<?xml version="1.0" encoding="UTF-8"?>
<svg width="120px" height="75px" viewBox="0 0 120 75" version="1.1" xmlns="http://www.w3.org/2000/svg" xmlns:xlink="http://www.w3.org/1999/xlink">
    <!-- Generator: Sketch 52 (66869) - http://www.bohemiancoding.com/sketch -->
    <title>Group 25</title>
    <desc>Created with Sketch.</desc>
    <defs>
        <polygon id="path-1" points="0 74.240273 119.74198 74.240273 119.74198 0 0 0"></polygon>
    </defs>
    <g id="Page-1" stroke="none" stroke-width="1" fill="none" fill-rule="evenodd">
        <g id="Group-25">
            <path d="M14.7620068,22.5922321 C17.4183891,22.5922321 19.0197543,21.6523003 19.0197543,19.6163959 L19.0197543,19.5381706 C19.0197543,17.6976246 17.6526553,16.5623345 14.5662389,16.5623345 L7.61320137,16.5623345 L7.61320137,22.5922321 L14.7620068,22.5922321 Z M13.1602321,11.5510034 C15.8170239,11.5510034 17.4962048,10.6897065 17.4962048,8.65298294 L17.4962048,8.57475768 C17.4962048,6.77352901 16.090198,5.75578157 13.5509488,5.75578157 L7.61320137,5.75578157 L7.61320137,11.5510034 L13.1602321,11.5510034 Z M1.75326962,0.470047782 L14.4495154,0.470047782 C17.5748396,0.470047782 20.0354539,1.33134471 21.5987304,2.89748805 C22.8482867,4.15073038 23.4736792,5.67796587 23.4736792,7.55701024 L23.4736792,7.63523549 C23.4736792,10.7282048 21.8329966,12.4512082 19.879413,13.5475904 C23.0440546,14.7611058 24.9968191,16.6020614 24.9968191,20.2823345 L24.9968191,20.3601502 C24.9968191,25.3718908 20.9340205,27.8779659 14.7620068,27.8779659 L1.75326962,27.8779659 L1.75326962,0.470047782 Z" id="Fill-1" fill="#231F20"></path>
            <mask id="mask-2" fill="white">
                <use xlink:href="#path-1"></use>
            </mask>
            <g id="Clip-4"></g>
            <polygon id="Fill-3" fill="#231F20" mask="url(#mask-2)" points="27.3427986 27.8776792 33.3587713 27.8776792 33.3587713 0.470170648 27.3427986 0.470170648"></polygon>
            <path d="M36.0963276,14.2521502 L36.0963276,14.1739249 C36.0963276,6.3825256 42.1516177,0.000409556314 50.433256,0.000409556314 C55.3553038,0.000409556314 58.3241775,1.33146758 61.1763276,3.75931741 L57.3862935,8.34020478 C55.2770785,6.57829352 53.4025392,5.55972696 50.2378976,5.55972696 C45.8626075,5.55972696 42.3854744,9.43617747 42.3854744,14.0952901 L42.3854744,14.1739249 C42.3854744,19.1856655 45.8232901,22.8663481 50.6675222,22.8663481 C52.8549625,22.8663481 54.8085461,22.3179522 56.3320956,21.22157 L56.3320956,17.3066212 L50.277215,17.3066212 L50.277215,12.0987031 L62.1527099,12.0987031 L62.1527099,24.0016382 C59.3398771,26.3901706 55.4724369,28.3478498 50.4721638,28.3478498 C41.9558498,28.3478498 36.0963276,22.3568601 36.0963276,14.2521502" id="Fill-5" fill="#231F20" mask="url(#mask-2)"></path>
            <path d="M0,44.9200546 L0,44.8422389 C0,37.05043 5.85952218,30.668314 14.2587031,30.668314 C19.4154266,30.668314 22.5014334,32.3909078 25.040273,34.8965734 L21.2117406,39.3210102 C19.1029352,37.4026485 16.9539932,36.228041 14.2193857,36.228041 C9.6094198,36.228041 6.28914676,40.0651741 6.28914676,44.7636041 L6.28914676,44.8422389 C6.28914676,49.5406689 9.5316041,53.4564369 14.2193857,53.4564369 C17.3447099,53.4564369 19.2589761,52.202785 21.4075085,50.2451058 L25.2356314,54.1215563 C22.4232082,57.1367099 19.297884,59.0161638 14.0240273,59.0161638 C5.97665529,59.0161638 0,52.7904983 0,44.9200546" id="Fill-6" fill="#231F20" mask="url(#mask-2)"></path>
            <polygon id="Fill-7" fill="#231F20" mask="url(#mask-2)" points="27.3428805 31.1383208 33.3592628 31.1383208 33.3592628 41.983372 44.4533242 41.983372 44.4533242 31.1383208 50.4692969 31.1383208 50.4692969 58.5462389 44.4533242 58.5462389 44.4533242 47.5439181 33.3592628 47.5439181 33.3592628 58.5462389 27.3428805 58.5462389"></polygon>
            <polygon id="Fill-8" fill="#231F20" mask="url(#mask-2)" points="53.9518362 31.1383208 74.5783208 31.1383208 74.5783208 36.5026894 59.928901 36.5026894 59.928901 42.0624164 72.8200956 42.0624164 72.8200956 47.4263754 59.928901 47.4263754 59.928901 53.1814608 74.7736792 53.1814608 74.7736792 58.5462389 53.9518362 58.5462389"></polygon>
            <polygon id="Fill-9" fill="#231F20" mask="url(#mask-2)" points="77.2369556 31.1383208 98.0587986 31.1383208 98.0587986 36.6198225 83.2529283 36.6198225 83.2529283 42.4535427 96.3009829 42.4535427 96.3009829 47.9354539 83.2529283 47.9354539 83.2529283 58.5462389 77.2369556 58.5462389"></polygon>
            <path d="M98.0999181,54.5522457 L101.655276,50.2846689 C104.115891,52.3205734 106.694048,53.612314 109.819372,53.612314 C112.280396,53.612314 113.765038,52.6334744 113.765038,51.0284232 L113.765038,50.950198 C113.765038,49.423372 112.827563,48.6398908 108.256915,47.4652833 C102.748792,46.056 99.1934334,44.5287645 99.1934334,39.0865802 L99.1934334,39.0083549 C99.1934334,34.0355222 103.178007,30.746785 108.764355,30.746785 C112.749338,30.746785 116.147836,31.9996177 118.921352,34.2312901 L115.796027,38.7732696 C113.374321,37.0899932 110.991522,36.0714266 108.686949,36.0714266 C106.381556,36.0714266 105.170908,37.128901 105.170908,38.459959 L105.170908,38.5381843 C105.170908,40.3398225 106.342648,40.9267167 111.069747,42.1402321 C116.616778,43.5888328 119.742102,45.5858294 119.742102,50.3628942 L119.742102,50.4411195 C119.742102,55.8837133 115.601078,58.9373652 109.702239,58.9373652 C105.561625,58.9373652 101.381283,57.4887645 98.0999181,54.5522457" id="Fill-10" fill="#231F20" mask="url(#mask-2)"></path>
            <path d="M0.814116041,70.7533106 L0.814116041,70.7336519 C0.814116041,68.8062799 2.26394539,67.2278498 4.34162457,67.2278498 C5.61739249,67.2278498 6.38080546,67.6537884 7.00865529,68.2734471 L6.06176109,69.3681911 C5.53998635,68.8935154 5.00838225,68.6031399 4.33179522,68.6031399 C3.19159044,68.6031399 2.37002048,69.5520819 2.37002048,70.7144027 L2.37002048,70.7336519 C2.37002048,71.8963823 3.1723413,72.8645734 4.33179522,72.8645734 C5.10503754,72.8645734 5.57848464,72.5545392 6.11008874,72.0708532 L7.05739249,73.0296246 C6.36114676,73.7754266 5.58831399,74.240273 4.28346758,74.240273 C2.29261433,74.240273 0.814116041,72.7003413 0.814116041,70.7533106" id="Fill-11" fill="#231F20" mask="url(#mask-2)"></path>
            <path d="M14.0635085,71.2860614 L13.164942,69.0871536 L12.2659659,71.2860614 L14.0635085,71.2860614 Z M12.4981843,67.2953447 L13.870198,67.2953447 L16.7694471,74.1242867 L15.2135427,74.1242867 L14.5951126,72.6036041 L11.7343618,72.6036041 L11.1159317,74.1242867 L9.59893515,74.1242867 L12.4981843,67.2953447 Z" id="Fill-12" fill="#231F20" mask="url(#mask-2)"></path>
            <polygon id="Fill-13" fill="#231F20" mask="url(#mask-2)" points="19.9392491 67.3436724 25.0902389 67.3436724 25.0902389 68.7001229 21.4275768 68.7001229 21.4275768 70.1429898 24.6552901 70.1429898 24.6552901 71.4990307 21.4275768 71.4990307 21.4275768 74.1242867 19.9392491 74.1242867"></polygon>
            <polygon id="Fill-14" fill="#231F20" mask="url(#mask-2)" points="28.7915222 67.3436724 33.8941843 67.3436724 33.8941843 68.6706348 30.2700205 68.6706348 30.2700205 70.0463345 33.4592355 70.0463345 33.4592355 71.3732969 30.2700205 71.3732969 30.2700205 72.7969147 33.9425119 72.7969147 33.9425119 74.1242867 28.7915222 74.1242867"></polygon>
            <path d="M46.3606689,71.3248464 L44.6405324,71.3248464 L44.6405324,72.8164505 L46.4089966,72.8164505 C47.0663345,72.8164505 47.4623754,72.5838225 47.4623754,72.0804778 L47.4623754,72.0608191 C47.4623754,71.605802 47.1240819,71.3248464 46.3606689,71.3248464 Z M47.0855836,69.3487372 C47.0855836,68.9031399 46.7374608,68.6516724 46.1096109,68.6516724 L44.6405324,68.6516724 L44.6405324,70.0851195 L46.0125461,70.0851195 C46.669884,70.0851195 47.0855836,69.8717406 47.0855836,69.3683959 L47.0855836,69.3487372 Z M43.1907031,67.3435495 L46.3315904,67.3435495 C47.1048328,67.3435495 47.713843,67.5569283 48.1004642,67.9443686 C48.4092696,68.2544027 48.5640819,68.6320137 48.5640819,69.0972696 L48.5640819,69.1161092 C48.5640819,69.88157 48.1582116,70.3079181 47.6749352,70.5790444 C48.4580068,70.8792491 48.9408737,71.3342662 48.9408737,72.2447099 L48.9408737,72.2643686 C48.9408737,73.5040956 47.9358225,74.1241638 46.4089966,74.1241638 L43.1907031,74.1241638 L43.1907031,67.3435495 Z" id="Fill-15" fill="#231F20" mask="url(#mask-2)"></path>
            <path d="M55.6766416,70.6369147 C56.4015563,70.6369147 56.817256,70.249884 56.817256,69.6781433 L56.817256,69.6584846 C56.817256,69.0195768 56.3724778,68.689884 55.6475631,68.689884 L54.1690648,68.689884 L54.1690648,70.6369147 L55.6766416,70.6369147 Z M52.6807372,67.3436724 L55.7732969,67.3436724 C56.6333652,67.3436724 57.3001229,67.5861297 57.744901,68.031727 C58.1216928,68.4093379 58.3244232,68.9417611 58.3244232,69.5814881 L58.3244232,69.6007372 C58.3244232,70.6954812 57.7350717,71.3827167 56.8750034,71.7025802 L58.5275631,74.1242867 L56.7881775,74.1242867 L55.3383481,71.9544573 L54.1690648,71.9544573 L54.1690648,74.1242867 L52.6807372,74.1242867 L52.6807372,67.3436724 Z" id="Fill-16" fill="#231F20" mask="url(#mask-2)"></path>
            <path d="M66.0653652,71.2860614 L65.1667986,69.0871536 L64.2678225,71.2860614 L66.0653652,71.2860614 Z M64.500041,67.2953447 L65.8720546,67.2953447 L68.7713038,74.1242867 L67.2158089,74.1242867 L66.5969693,72.6036041 L63.7362184,72.6036041 L63.118198,74.1242867 L61.6007918,74.1242867 L64.500041,67.2953447 Z" id="Fill-17" fill="#231F20" mask="url(#mask-2)"></path>
            <path d="M71.7671263,73.136273 L72.6464437,72.0804369 C73.2554539,72.5837816 73.8931331,72.9036451 74.6663754,72.9036451 C75.2749761,72.9036451 75.6427577,72.6615973 75.6427577,72.2643276 L75.6427577,72.2446689 C75.6427577,71.867058 75.4105392,71.6737474 74.2801638,71.3829625 C72.91757,71.0340205 72.037843,70.6564096 72.037843,69.3097884 L72.037843,69.2905392 C72.037843,68.0602321 73.0236451,67.2468532 74.4054881,67.2468532 C75.3912901,67.2468532 76.2321092,67.5568874 76.918116,68.1089693 L76.1448737,69.2327918 C75.5461024,68.8158635 74.9563413,68.5643959 74.3866485,68.5643959 C73.8161365,68.5643959 73.5163413,68.8261024 73.5163413,69.1549761 L73.5163413,69.1742253 C73.5163413,69.6198225 73.8063072,69.7656246 74.9755904,70.0654198 C76.3484232,70.4241911 77.121256,70.918116 77.121256,72.099686 L77.121256,72.1193447 C77.121256,73.4655563 76.0965461,74.2207782 74.6377065,74.2207782 C73.6134061,74.2207782 72.5788669,73.8624164 71.7671263,73.136273" id="Fill-18" fill="#231F20" mask="url(#mask-2)"></path>
            <path d="M80.3682184,73.136273 L81.2475358,72.0804369 C81.8565461,72.5837816 82.4942253,72.9036451 83.2674676,72.9036451 C83.8760683,72.9036451 84.2438498,72.6615973 84.2438498,72.2643276 L84.2438498,72.2446689 C84.2438498,71.867058 84.0116314,71.6737474 82.881256,71.3829625 C81.5186621,71.0340205 80.6389352,70.6564096 80.6389352,69.3097884 L80.6389352,69.2905392 C80.6389352,68.0602321 81.6247372,67.2468532 83.0065802,67.2468532 C83.9923823,67.2468532 84.8332014,67.5568874 85.5192082,68.1089693 L84.7459659,69.2327918 C84.1471945,68.8158635 83.5574334,68.5643959 82.9877406,68.5643959 C82.4172287,68.5643959 82.1174334,68.8261024 82.1174334,69.1549761 L82.1174334,69.1742253 C82.1174334,69.6198225 82.4073993,69.7656246 83.5766826,70.0654198 C84.9495154,70.4241911 85.7223481,70.918116 85.7223481,72.099686 L85.7223481,72.1193447 C85.7223481,73.4655563 84.6976382,74.2207782 83.2387986,74.2207782 C82.2144983,74.2207782 81.179959,73.8624164 80.3682184,73.136273" id="Fill-19" fill="#231F20" mask="url(#mask-2)"></path>
            <polygon id="Fill-20" fill="#231F20" mask="url(#mask-2)" points="89.5300341 67.3436724 94.6326962 67.3436724 94.6326962 68.6706348 91.0085324 68.6706348 91.0085324 70.0463345 94.1973379 70.0463345 94.1973379 71.3732969 91.0085324 71.3732969 91.0085324 72.7969147 94.6810239 72.7969147 94.6810239 74.1242867 89.5300341 74.1242867"></polygon>
            <path d="M101.51357,70.6369147 C102.238485,70.6369147 102.653775,70.249884 102.653775,69.6781433 L102.653775,69.6584846 C102.653775,69.0195768 102.208997,68.689884 101.484491,68.689884 L100.005584,68.689884 L100.005584,70.6369147 L101.51357,70.6369147 Z M98.5176655,67.3436724 L101.609816,67.3436724 C102.470294,67.3436724 103.137051,67.5861297 103.58142,68.031727 C103.958621,68.4093379 104.161352,68.9417611 104.161352,69.5814881 L104.161352,69.6007372 C104.161352,70.6954812 103.57159,71.3827167 102.711932,71.7025802 L104.364491,74.1242867 L102.624696,74.1242867 L101.175276,71.9544573 L100.005584,71.9544573 L100.005584,74.1242867 L98.5176655,74.1242867 L98.5176655,67.3436724 Z" id="Fill-21" fill="#231F20" mask="url(#mask-2)"></path>
            <polygon id="Fill-22" fill="#231F20" mask="url(#mask-2)" points="108.084778 74.1243686 109.573106 74.1243686 109.573106 67.3437543 108.084778 67.3437543"></polygon>
            <polygon id="Fill-23" fill="#231F20" mask="url(#mask-2)" points="113.777038 67.3436724 118.8797 67.3436724 118.8797 68.6706348 115.255536 68.6706348 115.255536 70.0463345 118.444341 70.0463345 118.444341 71.3732969 115.255536 71.3732969 115.255536 72.7969147 118.928027 72.7969147 118.928027 74.1242867 113.777038 74.1242867"></polygon>
            <path d="M39.4277816,70.7640819 C39.4277816,71.4017611 38.9117406,71.9186212 38.2756997,71.9186212 C37.6392491,71.9186212 37.1232082,71.4017611 37.1232082,70.7640819 C37.1232082,70.1259932 37.6392491,69.6091331 38.2756997,69.6091331 C38.9117406,69.6091331 39.4277816,70.1259932 39.4277816,70.7640819" id="Fill-24" fill="#231F20" mask="url(#mask-2)"></path>
        </g>
    </g>
</svg>