<?xml version="1.0" encoding="UTF-8"?>
<svg width="120px" height="47px" viewBox="0 0 120 47" version="1.1" xmlns="http://www.w3.org/2000/svg" xmlns:xlink="http://www.w3.org/1999/xlink">
    <!-- Generator: Sketch 52 (66869) - http://www.bohemiancoding.com/sketch -->
    <title>cpluslogo (1)</title>
    <desc>Created with Sketch.</desc>
    <defs>
        <polygon id="path-1" points="0 46.3036403 119.906328 46.3036403 119.906328 0 0 0"></polygon>
    </defs>
    <g id="Page-1" stroke="none" stroke-width="1" fill="none" fill-rule="evenodd">
        <g id="cpluslogo-(1)">
            <g id="g10" transform="translate(60.000000, 23.446497) scale(-1, 1) rotate(-180.000000) translate(-60.000000, -23.446497) translate(0.000000, 0.253220)">
                <g id="g12">
                    <g id="g14-Clipped">
                        <mask id="mask-2" fill="white">
                            <use xlink:href="#path-1"></use>
                        </mask>
                        <g id="path16"></g>
                        <g id="g14" mask="url(#mask-2)">
                            <g transform="translate(-0.448179, -0.448179)">
                                <g id="g20" stroke-width="1" fill="none" transform="translate(17.547876, 6.001658)">
                                    <path d="M17.9271704,32.717086 C18.7289631,32.717086 19.3810639,32.0622961 19.3810639,31.2573662 L19.3810639,3.9394957 C19.3810639,3.13456575 18.7294113,2.47932767 17.928515,2.47932767 C17.7963021,2.47932767 17.6609519,2.4981512 17.5202237,2.53803915 L3.695238,6.2193836 C2.99249292,6.41613429 2.22072824,7.25826312 2.22072824,7.82789896 L2.22072824,26.4757416 C2.22072824,27.011764 2.93691869,27.8256576 3.60515397,28.0569181 L17.4471704,32.6355174 C17.6031368,32.6897471 17.7649295,32.717086 17.9271704,32.717086 M17.9271704,35.0404473 C17.5072265,35.0404473 17.0908679,34.969635 16.6879548,34.8306994 L2.85445371,30.0495231 C1.33243694,29.5233606 0.30924369,28.0869461 0.30924369,26.4757416 L0.30924369,7.82789896 C0.30924369,6.14095223 1.44313722,4.6440335 3.0664425,4.18868337 L16.8981508,0.300728284 C17.2342853,0.204817922 17.581176,0.156414562 17.928515,0.156414562 C18.9203357,0.156414562 19.8597194,0.541848726 20.5732208,1.24145655 C21.3024084,1.95719883 21.7044252,2.91540609 21.7044252,3.9394957 L21.7044252,31.2573662 C21.7044252,33.3431924 20.0098594,35.0404473 17.9271704,35.0404473" id="path22" fill="#61CBEC" fill-rule="nonzero"></path>
                                </g>
                                <g id="g24" stroke-width="1" fill="none" transform="translate(0.154667, 0.264157)">
                                    <path d="M25.9943971,4.92997187 C25.9943971,3.65086826 24.9582067,2.60974783 23.6844812,2.60974783 C23.4729406,2.60974783 23.2591591,2.63977584 23.0435849,2.70028004 L4.40873939,7.66207264 C3.39854333,7.94577011 2.16470583,9.15899137 2.16470583,10.1696356 L2.16470583,35.2994949 C2.16470583,36.2617358 3.3214565,37.4359655 4.27249289,37.764929 L22.9207837,43.9323238 C23.1690751,44.0188224 23.4254336,44.0622958 23.6826885,44.0622958 C24.9577585,44.0622958 25.9943971,43.0216236 25.9943971,41.74252 L25.9943971,4.92997187 Z M23.6831367,46.487842 C23.1578706,46.487842 22.6348454,46.3991025 22.1275064,46.2247607 L3.48683465,39.7821839 C1.57714282,39.1220158 0.293557416,37.3203352 0.293557416,35.2990467 L0.293557416,10.1691874 C0.293557416,8.05378131 1.71607839,6.17635839 3.75260495,5.60448165 L22.3932768,0.36392156 C22.8168062,0.244705876 23.25154,0.183753497 23.6849294,0.183753497 C24.9277305,0.183753497 26.1059937,0.668235277 27.0014559,1.54666663 C27.9161898,2.44392151 28.4194951,3.6454901 28.4194951,4.92997187 L28.4194951,41.74252 C28.4194951,44.3589905 26.2951254,46.487842 23.6831367,46.487842 Z" id="path26" fill="#BDBDBD" fill-rule="nonzero"></path>
                                </g>
                                <g id="g28" stroke-width="1" fill="none" transform="translate(46.252817, 24.867630)">
                                    <path d="M6.72268891,9.85994373 C7.97490176,9.85994373 8.968067,9.29030789 9.59865522,8.26218467 L12.1290753,9.71294093 C11.1014003,11.5442014 9.06308101,12.6234171 6.75675053,12.6234171 C3.02610637,12.6234171 0.392156853,10.0154619 0.392156853,6.35383738 C0.392156853,2.69176464 3.02610637,0.0838095217 6.75675053,0.0838095217 C9.07204459,0.0838095217 10.9113723,1.11103639 12.0170305,2.76078424 L9.65019584,4.4365265 C8.95910342,3.40840328 7.95742277,2.84773102 6.73165249,2.84773102 C4.94341724,2.84773102 3.39764697,4.1080111 3.39764697,6.35383738 C3.39764697,8.42666646 4.81389344,9.85994373 6.72268891,9.85994373" id="path30" fill="#BDBDBD"></path>
                                </g>
                                <polygon id="path32" fill="#BDBDBD" points="60.4508668 25.1755736 63.3357967 25.1755736 63.3357967 37.2665537 60.4508668 37.2665537"></polygon>
                                <g id="g34" stroke-width="1" fill="none" transform="translate(65.980592, 24.960851)">
                                    <polygon id="path36" fill="#BDBDBD" points="8.51540595 4.92997187 3.0059383 12.305658 0.242016801 12.305658 0.242016801 0.214677866 3.12649852 0.214677866 3.12649852 7.59081214 8.63686253 0.214677866 11.4088513 0.214677866 11.4088513 12.305658 8.51540595 12.305658"></polygon>
                                </g>
                                <g id="g38" stroke-width="1" fill="none" transform="translate(80.054004, 25.056268)">
                                    <polygon id="path40" fill="#BDBDBD" points="3.13725482 4.92997187 9.10476168 4.92997187 9.10476168 7.52044799 3.13725482 7.52044799 3.13725482 9.61075606 9.47675046 9.61075606 9.47675046 12.2101958 0.252773103 12.2101958 0.252773103 0.119663863 9.51126027 0.119663863 9.51126027 2.71865539 3.13725482 2.71865539"></polygon>
                                </g>
                                <g id="g42" stroke-width="1" fill="none" transform="translate(91.941286, 25.107450)">
                                    <polygon id="path44" fill="#BDBDBD" points="7.17086817 4.48179261 4.41591025 12.1591033 0.330756294 12.1591033 0.330756294 0.0681232476 3.21523801 0.0681232476 3.21523801 8.31641436 5.63316513 1.20829129 8.69915945 1.20829129 11.1175347 8.34196058 11.1175347 0.0681232476 14.0015683 0.0681232476 14.0015683 12.1591033 9.90834709 12.1591033"></polygon>
                                </g>
                                <g id="g46" stroke-width="1" fill="none" transform="translate(107.565846, 24.945075)">
                                    <path d="M4.92997187,5.37815113 L6.39775894,9.4543415 L7.86644238,5.37815113 L4.92997187,5.37815113 Z M8.15103621,12.3213442 L4.70543406,12.3213442 L0.0672268891,0.230812319 L3.0816806,0.230812319 L3.99731082,2.77019601 L8.79910342,2.77019601 L9.71428547,0.230812319 L12.7887952,0.230812319 L8.15103621,12.3213442 Z" id="path48" fill="#BDBDBD" fill-rule="nonzero"></path>
                                </g>
                                <g id="g50" stroke-width="1" fill="none" transform="translate(46.404705, 9.869355)">
                                    <path d="M5.37815113,6.72268891 L3.1247058,6.72268891 L3.1247058,9.53770284 L5.37815113,9.53770284 C6.41478976,9.53770284 7.05389338,9.04605019 7.05389338,8.12145638 C7.05389338,7.20627433 6.41478976,6.72268891 5.37815113,6.72268891 M5.42207269,12.1546215 L0.240224084,12.1546215 L0.240224084,0.0640896343 L3.1247058,0.0640896343 L3.1247058,4.14879541 L5.44761891,4.14879541 C8.41008382,4.14879541 9.9903639,5.73803907 9.9903639,8.12145638 C9.9903639,10.5487953 8.41008382,12.1546215 5.42207269,12.1546215" id="path52" fill="#61CBEC" fill-rule="nonzero"></path>
                                </g>
                                <g id="g54" stroke-width="1" fill="none" transform="translate(58.123427, 9.923182)">
                                    <polygon id="path56" fill="#61CBEC" points="3.13725482 12.10084 0.252773103 12.10084 0.252773103 0.00985994373 9.21725467 0.00985994373 9.21725467 2.68728285 3.13725482 2.68728285"></polygon>
                                </g>
                                <g id="g58" stroke-width="1" fill="none" transform="translate(68.485376, 9.546801)">
                                    <path d="M8.06722669,5.37815113 C8.06722669,3.71988786 7.11708666,2.93422962 5.66633039,2.93422962 C4.22453771,2.93422962 3.2739495,3.71988786 3.2739495,5.37815113 L3.2739495,12.4773106 L0.381400551,12.4773106 L0.381400551,5.26565813 C0.381400551,1.95854337 2.37579826,0.161792713 5.66633039,0.161792713 C8.95686252,0.161792713 10.960672,1.95854337 10.960672,5.26565813 L10.960672,12.4773106 L8.06722669,12.4773106 L8.06722669,5.37815113 Z" id="path60" fill="#61CBEC"></path>
                                </g>
                                <g id="g62" stroke-width="1" fill="none" transform="translate(81.325040, 9.646162)">
                                    <path d="M6.72268891,7.61904743 L6.22162449,7.70554603 C4.88336122,7.93904742 3.73467778,8.12056002 3.73467778,8.88022387 C3.73467778,9.59731068 4.53736683,9.96840311 5.63406148,9.96840311 C7.05075613,9.96840311 8.23394937,9.46778688 9.09759081,8.94969165 L10.3843135,11.31563 C8.55350119,12.325826 7.13680654,12.5938372 5.50453768,12.5938372 C2.68056016,12.5938372 0.677198863,11.108123 0.633725474,8.75921547 C0.590252086,6.5824088 1.93792712,5.46061611 4.42532202,5.07114833 L5.02991584,4.97658251 C6.61019591,4.73456571 7.42229673,4.52795507 7.42229673,3.80190467 C7.42229673,3.05075623 6.59271692,2.67921562 5.50453768,2.67921562 C3.8032492,2.67921562 2.52504195,3.31831924 1.60089632,3.94890746 L0.158655458,1.59955178 C1.49736691,0.589355728 3.46666658,0.0627450965 5.47899146,0.0627450965 C8.06991576,0.0627450965 10.5483471,1.26252098 10.5483471,4.13893547 C10.5483471,6.11630237 9.07159641,7.2134452 6.72268891,7.61904743" id="path64" fill="#61CBEC"></path>
                                </g>
                            </g>
                        </g>
                    </g>
                </g>
            </g>
        </g>
    </g>
</svg>