<svg width="43" height="28" viewBox="0 0 43 28" fill="none" xmlns="http://www.w3.org/2000/svg">
<path d="M41 1H2C1.44772 1 1 1.44771 1 2V7.07551C1 7.55338 1.3397 7.95962 1.7938 8.10844C3.68516 8.72828 6.39474 10.4186 6.39474 13.7347C6.39474 16.9941 3.777 18.4254 1.89149 18.8853C1.39177 19.0072 1 19.4329 1 19.9473V26C1 26.5523 1.44771 27 2 27H41C41.5523 27 42 26.5523 42 26V19.9375C42 19.4272 41.6129 19.0041 41.1222 18.8643C39.4318 18.3828 37.1447 16.946 37.1447 13.7347C37.1447 10.4543 39.5313 8.76478 41.2305 8.12879C41.6707 7.96403 42 7.56293 42 7.09292V2C42 1.44772 41.5523 1 41 1Z" stroke="white" stroke-width="2"/>
<mask id="path-2-inside-1" fill="white">
<rect x="11" y="6" width="17" height="17" rx="1"/>
</mask>
<rect x="11" y="6" width="17" height="17" rx="1" stroke="white" stroke-width="4" mask="url(#path-2-inside-1)"/>
<path d="M16 17H23" stroke="white" stroke-width="2" stroke-linecap="round"/>
<path d="M16 12H23" stroke="white" stroke-width="2" stroke-linecap="round"/>
<rect x="32" y="5" width="2" height="2" rx="1" fill="white"/>
<rect x="32" y="9" width="2" height="2" rx="1" fill="white"/>
<rect x="32" y="17" width="2" height="2" rx="1" fill="white"/>
<rect x="32" y="21" width="2" height="2" rx="1" fill="white"/>
</svg>
