<?xml version="1.0" encoding="UTF-8"?>
<svg width="100px" height="80px" viewBox="0 0 100 80" version="1.1" xmlns="http://www.w3.org/2000/svg" xmlns:xlink="http://www.w3.org/1999/xlink">
    <!-- Generator: Sketch 52 (66869) - http://www.bohemiancoding.com/sketch -->
    <title>flash-kart-logo</title>
    <desc>Created with Sketch.</desc>
    <defs>
        <linearGradient x1="49.6229261%" y1="51.8918919%" x2="-179.864253%" y2="1162.97297%" id="linearGradient-1">
            <stop stop-color="#EC1C24" offset="40%"></stop>
            <stop stop-color="#9B0E0E" offset="100%"></stop>
        </linearGradient>
        <linearGradient x1="53.6565008%" y1="16.2612311%" x2="24.3499197%" y2="65.8776988%" id="linearGradient-2">
            <stop stop-color="#EC1C24" offset="0%"></stop>
            <stop stop-color="#9B0E0E" offset="100%"></stop>
        </linearGradient>
        <linearGradient x1="85.7896721%" y1="-123.534716%" x2="-143.611006%" y2="988.638413%" id="linearGradient-3">
            <stop stop-color="#EC1C24" offset="40%"></stop>
            <stop stop-color="#9B0E0E" offset="100%"></stop>
        </linearGradient>
        <linearGradient x1="94.7328819%" y1="-165.860215%" x2="-134.236268%" y2="939.247312%" id="linearGradient-4">
            <stop stop-color="#EC1C24" offset="40%"></stop>
            <stop stop-color="#9B0E0E" offset="100%"></stop>
        </linearGradient>
    </defs>
    <g id="Page-1" stroke="none" stroke-width="1" fill="none" fill-rule="evenodd">
        <g id="flash-kart-logo">
            <polygon id="Path" fill="url(#linearGradient-1)" points="87.0899471 6.14285714 91.3650794 0.26984127 81.6084656 0.26984127 77.3333333 6.14285714"></polygon>
            <path d="M37.4920635,0.26984127 C23.7516636,0.27241503 11.5276702,8.99624894 7.05820106,21.989418 L0,42.5449735 L21.0582011,42.5449735 L8.46560847,79.1798942 L48.026455,24.9047619 L27.1164021,24.9047619 C28.5542568,20.7255336 32.4851054,17.9186953 36.9047619,17.9153439 L53.0634921,17.9153439 L65.9259259,0.26984127 L37.4920635,0.26984127 Z" id="Path" fill="url(#linearGradient-2)"></path>
            <path d="M63.3703704,30.6349206 L65.1005291,28.1957672 L67.5079365,24.8042328 L65.7619048,24.8042328 C64.1770006,24.807882 62.6913195,25.5763377 61.7724868,26.8677249 L52.9100529,39.3756614 L57.1428571,39.3756614 L61.8201058,32.8042328 L63.3703704,30.6349206 Z" id="Path" fill="#231F20"></path>
            <path d="M57.3227513,29.4232804 L52.6825397,29.4232804 C53.1900895,28.7053998 54.0149998,28.2791303 54.8941799,28.2804233 L59.2592593,28.2804233 L61.7195767,24.8042328 L56.2804233,24.8042328 C53.3940123,24.806935 50.6888484,26.2118049 49.026455,28.5714286 L41.3544974,39.3915344 L45.5873016,39.3915344 L50.1957672,32.9100529 L54.8359788,32.9100529 L57.3227513,29.4232804 Z" id="Path" fill="#231F20"></path>
            <path d="M98.4126984,29.7301587 L93.994709,29.7301587 L96.9206349,25.5978836 L95.2380952,25.5978836 C93.6513226,25.599825 92.1633035,26.3684707 91.2433862,27.6613757 L82.962963,39.3492063 L87.2698413,39.2910053 L92.4867725,31.9206349 L93.7724868,31.9206349 L88.4814815,39.3280423 L92.7936508,39.2698413 L99.5608466,29.7089947 L98.4126984,29.7301587 Z" id="Path" fill="#231F20"></path>
            <polygon id="Path" fill="#231F20" points="74.0793651 31.9206349 74.2962963 31.6137566 75.6296296 29.7301587 65.7301587 29.7301587 64.1798942 31.9206349 69.8148148 31.9206349 68.7248677 33.4603175 63.1746032 33.4603175 61.6243386 35.6507937 61.6243386 35.6507937 59.047619 39.2910053 63.3121693 39.2910053 65.8888889 35.6507937 67.1746032 35.6507937 64.5978836 39.2910053 68.8571429 39.2910053 74.0687831 31.9206349"></polygon>
            <polygon id="Path" fill="#231F20" points="82.4761905 37.1005291 85.047619 33.4603175 84.8306878 33.4603175 84.8306878 33.4603175 79.3862434 33.4603175 80.4708995 31.9206349 86.1005291 31.9206349 87.6507937 29.7301587 82.021164 29.7301587 81.0687831 29.7301587 77.7671958 29.7301587 75.1269841 33.4603175 75.1216931 33.4603175 73.5714286 35.6507937 73.5767196 35.6507937 73.5714286 35.6507937 77.8359788 35.6507937 77.8359788 35.6507937 79.2433862 35.6507937 78.2169312 37.1005291 72.7671958 37.1005291 71.2169312 39.2910053 76.6666667 39.2910053 80.9259259 39.2910053 81.5502646 38.4074074 82.4761905 37.1005291"></polygon>
            <polygon id="Path" fill="#231F20" points="55.8994709 49.5396825 56.1111111 49.2380952 57.4285714 47.3809524 47.6507937 47.3809524 46.1216931 49.5396825 51.6825397 49.5396825 50.6084656 51.0634921 45.1269841 51.0634921 43.5978836 53.2222222 43.5978836 53.2222222 41.047619 56.8201058 45.2592593 56.8201058 47.8042328 53.2222222 49.0740741 53.2222222 46.5291005 56.8201058 50.7407407 56.8201058 55.8888889 49.5396825"></polygon>
            <path d="M78.3068783,45.2169312 L80.2222222,42.5132275 L78.5026455,42.5132275 C76.9513254,42.5274563 75.5010118,43.2850828 74.6031746,44.5502646 L74.1322751,45.2169312 L71.2486772,45.2169312 L69.7142857,47.3809524 L72.5978836,47.3809524 L65.8412698,56.9047619 L70.042328,56.9047619 L74.6455026,50.4338624 L76.1798942,48.2698413 L76.8148148,47.3809524 L79.4973545,47.3809524 L79.7089947,47.0740741 L81.026455,45.2169312 L78.3068783,45.2169312 Z" id="Path" fill="#231F20"></path>
            <path d="M39.7460317,51.8095238 C41.382913,51.8125953 42.9203077,51.0241877 43.8730159,49.6931217 L45.5079365,47.3915344 L41.2751323,47.3915344 L39.0740741,50.5026455 L37.6243386,50.5026455 L37.6613757,50.4444444 L39.1957672,48.2804233 L40.9047619,45.8730159 L43.2804233,42.5238095 L39.047619,42.5238095 L28.8412698,56.9153439 L33.042328,56.9153439 L36.0687831,52.6825397 L37.5661376,52.6825397 L34.5555556,56.9153439 L38.7566138,56.9153439 L42.3809524,51.8201058 L39.7460317,51.8095238 Z" id="Path" fill="#231F20"></path>
            <polygon id="Path" fill="#231F20" points="66.6825397 50.8148148 69.1111111 47.3809524 64.5925926 47.3809524 64.0793651 47.3809524 60.3650794 47.3809524 53.6190476 56.9047619 57.8148148 56.9047619 62.1534392 50.8148148"></polygon>
            <polygon id="Path" fill="url(#linearGradient-3)" points="64.5978836 6.14285714 60.3174603 12.010582 70.0740741 12.010582 74.3544974 6.14285714"></polygon>
            <polygon id="Path" fill="url(#linearGradient-4)" points="73.0529101 12.010582 68.7460317 17.9153439 78.5026455 17.9153439 82.8095238 12.010582"></polygon>
        </g>
    </g>
</svg>