<?xml version="1.0" encoding="UTF-8"?>
<svg width="120px" height="69px" viewBox="0 0 120 69" version="1.1" xmlns="http://www.w3.org/2000/svg" xmlns:xlink="http://www.w3.org/1999/xlink">
    <!-- Generator: Sketch 52 (66869) - http://www.bohemiancoding.com/sketch -->
    <title>Group 3</title>
    <desc>Created with Sketch.</desc>
    <defs>
        <polygon id="path-1" points="0 0 119.939179 0 119.939179 68.3606786 0 68.3606786"></polygon>
    </defs>
    <g id="Page-1" stroke="none" stroke-width="1" fill="none" fill-rule="evenodd">
        <g id="Group-3">
            <mask id="mask-2" fill="white">
                <use xlink:href="#path-1"></use>
            </mask>
            <g id="Clip-2"></g>
            <path d="M109.796321,24.5971071 L101.824179,24.5971071 L101.824179,27.54425 L104.271321,27.54425 L104.271321,43.0931786 L107.348821,43.0931786 L107.348821,27.54425 L109.796321,27.54425 L109.796321,24.5971071 Z M101.295964,43.0931786 L98.3306071,34.5746071 C99.67275,34.0824643 100.344179,32.9978214 100.344179,31.3235357 L100.344179,28.5985357 C100.344179,25.93675 99.1063214,24.6046071 96.6316786,24.5971071 L92.5941786,24.5971071 L92.5941786,43.0931786 L95.6688214,43.0931786 L95.6688214,35.1388929 L95.8373929,35.1388929 L97.9434643,43.0931786 L101.295964,43.0931786 Z M90.3766786,28.3024643 C90.3766786,25.6406786 89.0466786,24.3110357 86.38525,24.3110357 C83.7320357,24.3110357 82.4045357,25.6406786 82.4045357,28.3024643 L82.4045357,39.3903214 C82.4045357,42.0571071 83.7320357,43.3888929 86.38525,43.3888929 C89.0466786,43.38425 90.3766786,42.04925 90.3766786,39.3903214 L90.3766786,28.3024643 Z M80.8509643,28.5985357 C80.8509643,25.93675 79.6109643,24.6046071 77.1356071,24.5971071 L73.0984643,24.5971071 L73.0984643,43.0931786 L76.1759643,43.0931786 L76.1759643,35.3249643 L76.3698929,35.3249643 C77.1638214,35.3249643 77.7734643,35.2563929 78.1970357,35.1210357 C79.9663214,34.54175 80.8509643,33.2760357 80.8509643,31.3235357 L80.8509643,28.5985357 Z M70.9820357,28.3024643 C70.9820357,25.6406786 69.6531071,24.3110357 66.9913214,24.3110357 C64.3370357,24.3110357 63.0098929,25.6406786 63.0098929,28.3024643 L63.0098929,30.00175 C63.0098929,31.7271071 63.8520357,33.18925 65.5416786,34.3910357 C67.1184643,35.52425 67.9070357,36.5013929 67.9070357,37.3206786 L67.9070357,39.3903214 C67.9070357,40.08425 67.6034643,40.43425 67.0013214,40.43425 C66.3913214,40.43425 66.0848929,40.08425 66.0848929,39.3903214 L66.0848929,36.76425 L63.0098929,36.76425 L63.0098929,39.3903214 C63.0098929,42.04925 64.3398929,43.38425 67.0013214,43.3888929 C69.6548929,43.3888929 70.9820357,42.0571071 70.9820357,39.3903214 L70.9820357,37.0985357 C70.9820357,35.4171071 70.1373929,33.9753214 68.4506071,32.7731786 C66.8734643,31.6403214 66.0848929,30.6985357 66.0848929,29.9456786 L66.0848929,28.3024643 C66.0848929,27.6056786 66.3834643,27.2585357 66.9834643,27.2585357 L67.0013214,27.2585357 C67.6034643,27.2635357 67.9070357,27.6131786 67.9070357,28.3024643 L67.9070357,30.9256786 L70.9820357,30.9256786 L70.9820357,28.3024643 Z M119.939179,34.1785357 C119.939179,53.0571071 104.635607,68.3606786 85.7570357,68.3606786 C75.45775,68.3606786 66.2213214,63.8035357 59.9570357,56.5996071 C53.6998929,63.8106786 44.46775,68.3606786 34.1748929,68.3606786 C15.2963214,68.3606786 -0.000107142857,53.0571071 -0.000107142857,34.1856786 C-0.000107142857,15.3106786 15.2963214,0.0178214286 34.1748929,0.0178214286 C39.5534643,0.0178214286 44.6498929,1.26425 49.1748929,3.48567857 L42.4034643,19.4249643 C39.96775,18.0678214 37.1606071,17.28925 34.1748929,17.28925 C24.8320357,17.28925 17.2713214,24.8535357 17.2713214,34.1856786 C17.2713214,43.5181786 24.8320357,51.08925 34.1748929,51.08925 C38.2356071,51.08925 41.9641786,49.6496071 44.8784643,47.2571071 L44.8784643,41.8428214 L31.6998929,41.8428214 L38.39275,26.0928214 L52.5391786,26.0928214 L52.5391786,26.0999643 C56.16775,11.1213929 69.6606071,-3.57142857e-05 85.7570357,-3.57142857e-05 C104.635607,-3.57142857e-05 119.939179,15.2999643 119.939179,34.1785357 Z M96.3638214,27.54425 L95.6688214,27.54425 L95.6688214,32.3674643 L96.0388214,32.3674643 C96.3734643,32.3674643 96.5881071,32.3496071 96.6873929,32.3113929 C97.07525,32.1581786 97.2691786,31.82925 97.2691786,31.3235357 L97.2691786,28.5985357 C97.2691786,27.89675 96.96525,27.54425 96.3638214,27.54425 Z M76.86775,27.54425 L76.1759643,27.54425 L76.1759643,32.3674643 L76.5441786,32.3674643 C76.87775,32.3674643 77.09275,32.3496071 77.1916786,32.3113929 C77.5795357,32.1581786 77.7734643,31.82925 77.7734643,31.3235357 L77.7734643,28.5985357 C77.7734643,27.89675 77.4723929,27.54425 76.86775,27.54425 Z M87.2988214,28.3024643 L87.2988214,39.3903214 C87.2988214,40.08425 86.99525,40.43425 86.38525,40.43425 C85.7806071,40.43425 85.4795357,40.08425 85.4795357,39.3903214 L85.4795357,28.3024643 C85.4795357,27.6056786 85.7781071,27.2585357 86.37525,27.2585357 L86.3959643,27.2585357 C86.99775,27.2635357 87.2988214,27.6131786 87.2988214,28.3024643 Z" id="Fill-1" fill="#061922" mask="url(#mask-2)"></path>
        </g>
    </g>
</svg>