<svg width="1440" height="857" viewBox="0 0 1440 857" fill="none" xmlns="http://www.w3.org/2000/svg">
<g clip-path="url(#clip0)">
<path d="M427 54.5C201.9 -13.5 65.3 10.3 0 23.5V857H1440V0.5C1390.5 0.5 1247.5 54.5 1126.5 104C1012 150.8 936.5 164 859.5 164C797 164 642 119.5 427 54.5Z" fill="#303896"/>
<path d="M0.7 34.5998C159.6 -17.4002 332.3 29.2998 491.4 80.7998C650.5 132.3 817.2 189.3 981.2 156.9C1074.2 138.5 1158.9 92.4998 1247 57.6998C1309.4 33.0998 1374 13.9998 1439.8 0.799805M-1.1 40.6998C155.6 10.3998 316.2 54.0998 469.4 98.9998C622.6 143.9 781.4 191 939.3 167.5C1111.2 141.9 1266.7 34.1998 1440.5 31.5998M0.6 55.8998C104.5 31.3998 213.9 49.3998 316.7 78.3998C419.5 107.4 519.3 147.5 624 168.3C746.6 192.7 874.5 190.2 996 160.8C1144.1 125 1288.4 49.4998 1440 65.3998M-1 66.7998C87.8 49.0998 180 64.4998 266.9 89.4998C353.8 114.5 438 149 525.9 170.9C651.3 202.1 783.3 206.8 910.6 184.6C1088 153.6 1262.8 70.8998 1440.5 100.2M-1.2 79.3998C101.8 64.5998 205.8 93.8998 303.6 129.5C401.4 165.1 498.1 207.7 601.3 220.9C742 238.9 883 201.2 1021 168.2C1159 135.2 1304.1 106.6 1441.3 142.4M-1.5 96.2998C119.5 80.7998 224.5 132.4 434 211C601 273.6 718 250.5 804 233C890 215.5 950 189 1044 169C1171.7 141.8 1316.7 148.1 1441.5 186M-2.3 118.6C97.9 107.7 196.5 145.9 288.3 187.6C380.1 229.3 472.8 276 573.3 283.5C710.7 293.7 841.3 229.8 975.6 199.2C1129.9 164.1 1295 173.9 1441.9 232.6M-2.6 137.4C203.5 128.5 376 318.5 582.3 319.3C694.5 319.8 798.1 263.8 905.7 231.7C1082.9 178.8 1281.7 192.9 1443.4 282.5M-2.4 162.1C92.1 158.1 181.4 202.3 264.3 247.9C347.2 293.5 432.2 342.9 526.5 350.7C684.9 363.8 827.8 258.3 984.2 230.1C1142.3 201.6 1305.5 254.7 1443.6 336.8M-2.8 186.5C98 187.9 189.4 242 276.2 293.2C363 344.4 456.5 396.2 557.2 392.2C626.5 389.5 691.6 360.4 754.7 331.9C841.6 292.6 930.6 252.7 1025.7 245.3C1174.6 233.7 1317.8 303.5 1441.9 386.6M-3 238.7C93.8 230.2 186 277.4 270.5 325.4C355 373.4 443.1 425.1 540.3 427.1C677.5 429.9 795.5 334 927.6 296.6C1102.8 247 1295.6 305.8 1441.4 414.8M-2.7 293.4C94.9 274.1 192.6 320 279.9 367.9C367.2 415.8 458.7 468.7 558.2 464.6C633.8 461.5 703.5 425.5 771.9 393C860.9 350.7 954.4 312.6 1052.8 307.8C1202.1 300.5 1320.3 371.2 1444.6 442.1M-2.4 344.6C94.3 321.1 194.1 362.1 283.1 406.6C372.1 451.1 464.6 501.2 564 496.7C674.5 491.8 769.4 420.7 872.4 380.4C1059.5 307.2 1283.3 341.4 1443.2 463M-2.5 391.3C90.3 368.6 187 402.6 274.2 441.7C361.4 480.8 449.9 526.2 545.4 527.4C683.7 529.2 804.5 439 936.6 397.9C1105.9 345.3 1299.5 378.5 1441.5 484.5M-3 438.5C121.9 418.8 245.6 470.6 363.2 517.2C417.8 538.8 473.8 559.8 532.4 563.4C607.4 568 681.2 543.7 750.1 513.6C819 483.5 885.5 447.3 957.4 425.5C1120.6 376.2 1306.1 409 1443.1 510.4M-2.4 488C69.2 471.8 144.4 485.1 214.6 506.6C284.8 528.1 352.6 557.7 424 575C492.9 591.7 565 596.7 634.9 584.9C793 558.1 929.5 447.9 1089 431.8C1214.8 419.1 1340.1 467.6 1445.4 537.5M-2.6 533.3C169 502.1 333.5 617.6 507.6 627.4C605.4 632.9 702.2 604.6 793 567.7C899.5 524.4 1004.3 468.1 1119 460C1238.9 451.6 1345.2 504.9 1447 561.5M-2.9 569.6C197.3 554.2 389.1 681.2 588.8 660.9C747 644.8 882 539.1 1036.5 501.2C1175.5 467.1 1330.5 493.1 1444.3 580M-3 606.3C47.3 610.6 96.1 610.3 146.1 619.8C197.2 629.6 247.4 643.5 297.6 656.8C396.2 683 498.3 708.7 601 695.2C759.8 674.3 893 564 1048.3 524.9C1182 491.3 1331 515.5 1442 597.2M-3.5 632.5C77.5 635.6 151.2 643.7 230 665C311.2 687 392.5 713.2 477.2 716.6C587.6 721.1 695.8 686.3 798 644.5C905.4 600.5 1008.5 552.5 1125.5 544.2C1241.2 536.1 1352.1 587.9 1442.5 656.1M-4 659.1C163.6 651 321.7 750.6 489.5 746.6C602.3 743.9 708 694.8 811.5 649.7C914.9 604.6 1025 561.8 1137.3 572.8C1249.7 583.8 1349.4 647.2 1443.3 710M-4 682.9C160.2 682.4 313.4 782.9 477.5 776.2C624.2 770.2 752.4 680.2 891.2 632.2C967.5 605.8 1050.1 592 1129.4 607.3C1252.6 631.2 1336.7 720.1 1443.5 776.4M-3.6 711.2C163.1 717.2 317.9 826.3 483.9 809.8C613.3 797 722.1 710.4 843.9 665C929.8 633 1025.3 621.8 1113.8 645.9C1233.4 678.4 1327.9 770.5 1442.9 816.6M-3.6 734.4C160.4 738.9 312.4 847.6 475.7 832.4C623.3 818.6 744.4 706.8 889.2 674.8C946.8 662.1 1007.3 662.5 1064.7 676.1C1201 708.3 1303.8 809.3 1431.4 860.6M-3.5 773.2C172 777.5 337 900.3 509.8 869.3C586.8 855.5 654.8 812.2 722.7 773.2C790.6 734.2 864.2 697.6 942.5 699.4C1016.1 701.1 1084.5 736.7 1146.3 776.7C1208.1 816.7 1267.2 862.5 1335.8 889" stroke="url(#paint0_linear)" stroke-width="7"/>
</g>
<defs>
<linearGradient id="paint0_linear" x1="721.5" y1="0.799805" x2="721.5" y2="889" gradientUnits="userSpaceOnUse">
<stop stop-color="#444EAB"/>
<stop offset="0.932292" stop-color="#444EAB" stop-opacity="0"/>
</linearGradient>
<clipPath id="clip0">
<rect width="1440" height="857" fill="white"/>
</clipPath>
</defs>
</svg>
