<?xml version="1.0" encoding="UTF-8"?>
<svg width="16px" height="16px" viewBox="0 0 16 16" version="1.1" xmlns="http://www.w3.org/2000/svg" xmlns:xlink="http://www.w3.org/1999/xlink">
    <!-- Generator: Sketch 52 (66869) - http://www.bohemiancoding.com/sketch -->
    <title></title>
    <desc>Created with Sketch.</desc>
    <g id="Page-1" stroke="none" stroke-width="1" fill="none" fill-rule="evenodd">
        <g id="menu" transform="translate(-324.000000, -761.000000)" fill="#FFFFFF" fill-rule="nonzero">
            <g id="Group-5" transform="translate(324.000000, 753.000000)">
                <g id="Group-3-Copy">
                    <path d="M16.0004087,15.8933351 C16.0242182,18.1076129 15.2682798,20.000435 13.7325709,21.571858 C12.1968621,23.1432811 10.3218968,23.9527899 8.10761894,24.0004087 C5.89334105,24.0242182 4.00051899,23.2682798 2.42909597,21.7325709 C0.857672948,20.1968621 0.0481641416,18.3218968 0.000545262193,16.1076189 C-0.0232641775,13.8933411 0.732674194,12.000519 2.26838305,10.429096 C3.80409191,8.85767295 5.67905717,8.04816414 7.89333506,8.00054526 C10.1076129,7.97673582 12.000435,8.73267419 13.571858,10.2683831 C15.1432811,11.8040919 15.9527899,13.6790572 16.0004087,15.8933351 Z M8.82189856,11.1790896 C8.60761361,10.9648046 8.33380916,10.8576637 8.000477,10.8576637 C7.66714484,10.8576637 7.39334039,10.9648046 7.17905544,11.1790896 C6.96477048,11.3933745 6.85762961,11.667179 6.85762961,12.0005111 C6.85762961,12.3338433 6.96477048,12.6076477 7.17905544,12.8219327 C7.39334039,13.0362177 7.66714484,13.1433585 8.000477,13.1433585 C8.33380916,13.1433585 8.60761361,13.0362177 8.82189856,12.8219327 C9.03618352,12.6076477 9.14332439,12.3338433 9.14332439,12.0005111 C9.14332439,11.667179 9.03618352,11.3933745 8.82189856,11.1790896 Z M9.57189216,20.9647204 L9.57189216,20.5718666 L8.78618458,20.5718666 L8.78618458,14.4290618 L6.42906184,14.4290618 L6.42906184,14.8576296 L7.21476942,14.8576296 L7.21476942,20.5718666 L6.42906184,20.5718666 L6.42906184,20.9647204 L9.57189216,20.9647204 Z" id=""></path>
                </g>
            </g>
        </g>
    </g>
</svg>