<?xml version="1.0" encoding="UTF-8"?>
<svg width="100px" height="97px" viewBox="0 0 100 97" version="1.1" xmlns="http://www.w3.org/2000/svg" xmlns:xlink="http://www.w3.org/1999/xlink">
    <!-- Generator: Sketch 52 (66869) - http://www.bohemiancoding.com/sketch -->
    <title>Group 50</title>
    <desc>Created with Sketch.</desc>
    <defs>
        <polygon id="path-1" points="0 0.196333333 99.8323333 0.196333333 99.8323333 96.3333333 0 96.3333333"></polygon>
        <polygon id="path-3" points="0 96.4703333 99.8323333 96.4703333 99.8323333 0.333333333 0 0.333333333"></polygon>
    </defs>
    <g id="Page-1" stroke="none" stroke-width="1" fill="none" fill-rule="evenodd">
        <g id="Group-50">
            <g id="Group-3" transform="translate(0.000000, 0.137000)">
                <mask id="mask-2" fill="white">
                    <use xlink:href="#path-1"></use>
                </mask>
                <g id="Clip-2"></g>
                <path d="M99.7589,82.0804333 C99.6715667,81.9104333 99.5159,81.7861 99.3312333,81.7391 L93.7269,80.3047667 L93.9879,78.9544333 C94.0549,78.6071 93.8389,78.2677667 93.4959,78.1817667 L93.0862333,78.0784333 L94.1102333,73.0941 C94.5519,72.9994333 94.9759,72.8421 95.3759,72.6241 C95.8965667,72.3394333 96.2542333,72.0641 96.5715667,71.7027667 C96.7125667,71.5424333 96.7682333,71.3241 96.7215667,71.1157667 L96.6935667,70.9921 C96.6335667,70.7261 96.5435667,70.4617667 96.4259,70.2064333 C96.1032333,69.5054333 95.5695667,68.8621 94.8809,68.3451 C94.0405667,67.7141 93.0892333,67.3327667 92.3552333,67.0711 C91.4492333,66.7474333 90.5359,66.4804333 89.7605667,66.2614333 L89.2635667,66.1221 C89.1219,66.0824333 88.9635667,66.0381 88.8062333,65.9937667 C89.0635667,64.9807667 89.3352333,63.5391 89.2242333,62.2591 C89.1999,61.4131 88.6625667,60.3711 87.5289,60.0551 C87.3095667,59.9941 87.0732333,59.9611 86.8212333,59.9561 L87.5435667,55.8391 C87.5772333,55.6477667 87.5255667,55.4507667 87.4022333,55.3007667 C87.2785667,55.1504333 87.0955667,55.0617667 86.9012333,55.0577667 L84.0832333,54.9991 L85.2262333,44.6437667 C85.2472333,44.4554333 85.1865667,44.2671 85.0602333,44.1257667 C84.9335667,43.9844333 84.7529,43.9037667 84.5635667,43.9037667 L83.3382333,43.9037667 L83.3222333,42.6297667 C83.3179,42.2751 83.0365667,41.9861 82.6822333,41.9721 L82.0499,41.9471 L81.9055667,38.3357667 C81.8922333,37.9927667 81.6205667,37.7161 81.2779,37.6967667 C80.9315667,37.6754333 80.6335667,37.9207667 80.5809,38.2597667 L80.0329,41.7814333 L79.1055667,41.7514333 C78.9169,41.7464333 78.7429,41.8161 78.6129,41.9464333 C78.4825667,42.0764333 78.4119,42.2547667 78.4179,42.4391 L78.4432333,43.2251 L77.3609,43.1241 C77.1745667,43.1061 76.9932333,43.1671 76.8555667,43.2901 C76.7172333,43.4131 76.6365667,43.5877667 76.6322333,43.7731 L76.5009,49.6451 L74.9895667,49.5744333 C75.1992333,47.1691 75.4265667,44.7567667 75.6685667,42.3654333 C76.3599,35.5374333 77.1962333,28.6421 78.1542333,21.8714333 C78.2052333,21.5104333 77.9569,21.1754333 77.5965667,21.1191 L73.5475667,20.4884333 C73.3622333,20.4584333 73.1735667,20.5101 73.0275667,20.6277667 C72.8812333,20.7451 72.7912333,20.9187667 72.7795667,21.1061 L72.7172333,22.1157667 L71.0099,22.0691 C70.6485667,22.0521 70.3409,22.3437667 70.3255667,22.7077667 C70.3255667,22.7077667 70.1562333,26.7651 70.0722333,28.6997667 L69.6655667,28.6851 L69.5099,18.9071 C69.5062333,18.6917667 69.3989,18.4911 69.2215667,18.3687667 L64.9559,15.4301 L64.8102333,11.0827667 C64.8045667,10.9061 64.7282333,10.7387667 64.5992333,10.6181 C64.4699,10.4974333 64.2995667,10.4354333 64.1212333,10.4387667 L63.3535667,10.4651 C62.9859,10.4777667 62.6975667,10.7861 62.7102333,11.1537667 L62.8039,13.9474333 L61.1882333,12.8344333 C60.9802333,12.6914333 60.7099,12.6781 60.4885667,12.7994333 C60.2675667,12.9211 60.1342333,13.1571 60.1439,13.4091 L60.6875667,27.5461 L58.2792333,28.0444333 L57.7679,23.8227667 C58.5452333,22.8454333 59.0175667,21.6837667 59.1389,20.4427667 C59.1419,20.4094333 59.1429,20.3761 59.1409,20.3427667 C59.1055667,19.6777667 58.7692333,19.0884333 58.2565667,18.7177667 C58.2819,18.6257667 58.2875667,18.5284333 58.2719,18.4321 L58.1019,17.3924333 C58.0992333,17.3731 58.0952333,17.3544333 58.0902333,17.3361 C58.1155667,17.2421 58.1205667,17.1424333 58.1029,17.0444333 L57.9382333,16.1284333 C57.8769,15.7854333 57.5605667,15.5491 57.2139,15.5831 L56.7442333,15.6314333 L56.4262333,13.0354333 C56.5715667,13.0021 56.7025667,12.9207667 56.7969,12.8027667 C56.9115667,12.6597667 56.9622333,12.4761 56.9372333,12.2947667 L56.8619,11.7471 C56.8159,11.4147667 56.5312333,11.1714333 56.2019,11.1714333 L56.1979,11.1714333 L55.8555667,8.37176667 C55.9179,8.33376667 55.9739,8.28543333 56.0209,8.22776667 C56.1365667,8.08776667 56.1899,7.90643333 56.1685667,7.72576667 L56.1165667,7.28376667 C56.0852333,7.01543333 55.8975667,6.8021 55.6539,6.72543333 L55.5239,5.66443333 C55.6289,5.62276667 55.7232333,5.55443333 55.7955667,5.4651 C55.9099,5.3241 55.9619,5.1431 55.9399,4.9631 L55.8899,4.55643333 C55.8515667,4.2491 55.6095667,4.01476667 55.3135667,3.97643333 L54.9395667,1.0701 C54.8945667,0.566766667 54.4662333,0.1881 53.9599,0.196433333 C53.4942333,0.2081 53.1089,0.553433333 53.0369,1.00276667 C53.0239,1.06576667 53.0199,1.13176667 53.0262333,1.1991 L53.3005667,4.13943333 C53.1939,4.17843333 53.0975667,4.24476667 53.0222333,4.33276667 C52.9069,4.4681 52.8502333,4.64376667 52.8649,4.8211 L52.9005667,5.24643333 C52.9152333,5.42276667 52.9999,5.58643333 53.1352333,5.70043333 C53.2302333,5.78043333 53.3445667,5.83176667 53.4652333,5.8501 L53.5685667,6.90376667 C53.5009,6.9421 53.4395667,6.99243333 53.3885667,7.0531 C53.2735667,7.1891 53.2179,7.36543333 53.2335667,7.54276667 L53.2729,7.9841 C53.2972333,8.25776667 53.4842333,8.47843333 53.7302333,8.5591 L54.0039,11.3661 C53.6839,11.4374333 53.4579,11.7357667 53.4855667,12.0714333 L53.5302333,12.6191 C53.5445667,12.7957667 53.6292333,12.9594333 53.7649,13.0737667 C53.8889,13.1784333 54.0532333,13.2421 54.2069,13.2311 L54.4509,15.8574333 L53.9835667,15.9024333 C53.6305667,15.9367667 53.3659,16.2411 53.3815667,16.5951 L53.4219,17.5167667 C53.4265667,17.6224333 53.4562333,17.7244333 53.5072333,17.8151 C53.5072333,17.8301 53.5075667,17.8454333 53.5085667,17.8611 L53.5715667,18.9057667 C53.5772333,18.9964333 53.6002333,19.0814333 53.6382333,19.1584333 C53.2112333,19.6391 53.0009,20.2974333 53.1095667,20.9441 C53.1149,20.9771 53.1232333,21.0097667 53.1335667,21.0414333 C53.5192333,22.2164333 54.2605667,23.2787667 55.2359,24.0621 L55.6889,28.5804333 L53.6292333,29.0064333 C53.6749,28.5707667 53.7155667,28.1324333 53.7512333,27.6957667 C53.8382333,26.6304333 53.8952333,25.5487667 53.9209,24.4804333 C53.9255667,24.2944333 53.8519,24.1147667 53.7182333,23.9851 C53.5845667,23.8557667 53.4005667,23.7867667 53.2165667,23.7987667 L41.2809,24.4837667 C40.9245667,24.5041 40.6475667,24.8017667 40.6522333,25.1584333 L40.7072333,29.1367667 L40.0099,29.1077667 L39.6615667,17.3514333 C39.6505667,16.9904333 39.3552333,16.7044333 38.9952333,16.7044333 C38.9919,16.7044333 38.9882333,16.7044333 38.9849,16.7047667 L37.2252333,16.7311 L37.1665667,14.1641 C37.1625667,13.9827667 37.0849,13.8107667 36.9512333,13.6881 C36.8175667,13.5654333 36.6425667,13.5031 36.4585667,13.5137667 L30.0009,13.9174333 C29.8219,13.9287667 29.6552333,14.0114333 29.5379,14.1474333 C29.4209,14.2831 29.3632333,14.4604333 29.3782333,14.6387667 L29.6142333,17.4394333 L28.2459,17.5127667 C28.0685667,17.5221 27.9022333,17.6021 27.7839,17.7347667 C27.6655667,17.8674333 27.6052333,18.0417667 27.6162333,18.2194333 L30.2552333,61.3114333 L29.7072333,61.3651 L29.1425667,53.0704333 C29.1295667,52.8771 29.0329,52.6991 28.8779,52.5827667 C28.7229,52.4661 28.5259,52.4231 28.3355667,52.4644333 L27.2395667,52.7034333 L26.9622333,50.4567667 C26.9379,50.2594333 26.8265667,50.0831 26.6589,49.9761 C26.4912333,49.8697667 26.2845667,49.8434333 26.0949,49.9041 L24.3609,50.4654333 C24.3185667,50.1497667 24.2749,49.8281 24.2315667,49.5061 C24.1509,48.9101 24.0702333,48.3141 23.9969,47.7584333 C23.9722333,47.5687667 23.8672333,47.3991 23.7082333,47.2924333 C23.5495667,47.1854333 23.3519,47.1521 23.1679,47.2004333 L22.8639,47.2797667 L22.7962333,46.8601 C22.7662333,46.6747667 22.6595667,46.5107667 22.5022333,46.4081 C22.3445667,46.3051 22.1502333,46.2737667 21.9695667,46.3214333 L19.2365667,47.0344333 C18.8969,47.1231 18.6839,47.4604333 18.7502333,47.8054333 L18.8505667,48.3267667 L18.6105667,48.3891 C18.2715667,48.4777667 18.0589,48.8134333 18.1239,49.1577667 L18.7239,52.3377667 L17.6515667,52.6941 C17.3315667,52.8007667 17.1415667,53.1291 17.2085667,53.4594333 L20.9962333,72.1361 C20.8625667,72.1261 20.7299,72.1457667 20.6082333,72.2001 C20.4899,72.2504333 20.3829,72.3261 20.2799,72.4324333 C20.2332333,72.4807667 20.1895667,72.5367667 20.1475667,72.5977667 C20.0422333,72.5727667 19.9319,72.5547667 19.8079,72.5541 C19.4729,72.5551 19.0019,72.6397667 18.3689,72.8117667 C17.8602333,72.9497667 17.2545667,73.1427667 16.8262333,73.3024333 C16.4215667,73.4527667 16.1772333,73.5731 15.9839,73.7167667 C15.6565667,73.9597667 15.5512333,74.2547667 15.4629,74.7474333 C15.4155667,75.0067667 15.3652333,75.3674333 15.3112333,75.7911 C15.2775667,75.8001 15.2482333,75.8111 15.2235667,75.8217667 C14.8382333,75.9871 14.7999,76.2701 14.7059,76.9557667 C14.6182333,77.5987667 14.4352333,78.9364333 14.3802333,79.9311 C14.3749,80.0241 14.3709,80.1147667 14.3679,80.2027667 C11.6145667,79.6217667 9.0089,79.7481 6.6119,80.5811 C5.4679,80.9784333 4.36856667,81.5411 3.34323333,82.2531 C3.13056667,82.4011 3.0229,82.6591 3.0669,82.9147667 C3.11156667,83.1707667 3.30056667,83.3771 3.5509,83.4444333 C3.67256667,83.4767667 3.78956667,83.5181 3.90256667,83.5677667 C3.24423333,83.6714333 2.49856667,83.9067667 1.7779,84.3897667 C1.08456667,84.8541 0.498566667,85.4954333 0.0835666667,86.2444333 C-0.0364333333,86.4614333 -0.0267666667,86.7267667 0.109566667,86.9341 C0.245566667,87.1411 0.482233333,87.2577667 0.7319,87.2311 C1.7759,87.1281 2.8029,87.2277667 3.78323333,87.5261 C4.25456667,87.6697667 4.7139,87.8597667 5.15123333,88.0921 C5.82523333,89.2337667 6.5359,90.4401 7.24623333,91.6471 C7.83456667,92.6457667 8.42323333,93.6451 8.99123333,94.6084333 C8.5259,94.7474333 8.06423333,94.8887667 7.6099,95.0304333 C7.2729,95.1357667 7.0769,95.4854333 7.1619,95.8277667 C7.23723333,96.1294333 7.5079,96.3334333 7.80823333,96.3334333 C7.8489,96.3334333 7.89023333,96.3297667 7.9319,96.3221 C17.1569,94.5904333 26.4872333,93.4007667 35.6642333,92.7847667 C38.7095667,92.5811 44.9882333,92.2457667 52.8142333,92.2487667 C58.5119,92.2541 64.3485667,92.4507667 70.1615667,92.8341 C78.9842333,93.4157667 87.9325667,94.4501 96.7579,95.9084333 C97.0989,95.9627667 97.4272333,95.7504333 97.5129,95.4147667 C97.5982333,95.0791 97.4122333,94.7344333 97.0852333,94.6207667 L95.3425667,94.0164333 L99.7869,82.6274333 C99.8562333,82.4491 99.8462333,82.2504333 99.7589,82.0804333" id="Fill-1" fill="#FFFFFF" mask="url(#mask-2)"></path>
            </g>
            <path d="M19.3443333,81.8888 L19.2856667,81.9474667 L19.2903333,81.8691333 L19.393,81.8448 L19.3443333,81.8888 Z M19.4386667,81.8041333 L19.2743333,81.8431333 L19.2643333,81.8464667 L19.2626667,81.8561333 L19.2543333,81.9818 L19.2513333,82.0191333 L19.2773333,81.9931333 C19.3066667,81.9671333 19.3343333,81.9374667 19.364,81.9098 C19.3946667,81.8821333 19.4223333,81.8544667 19.4503333,81.8284667 L19.491,81.7911333 L19.4386667,81.8041333 Z M19.8366667,81.4421333 C19.812,81.4614667 19.7876667,81.4844667 19.7633333,81.5058 C19.739,81.5268 19.7143333,81.5481333 19.69,81.5708 L19.305,81.6638 L19.315,81.5364667 L19.8416667,81.4094667 L19.8366667,81.4421333 Z M19.8546667,81.3768 L19.297,81.5121333 L19.2873333,81.5138 L19.2873333,81.5251333 L19.2756667,81.6818 L19.2743333,81.7014667 L19.2936667,81.6964667 L19.6996667,81.5984667 L19.703,81.5971333 L19.7046667,81.5954667 C19.729,81.5741333 19.755,81.5511333 19.7813333,81.5268 C19.8056667,81.5058 19.8316667,81.4844667 19.858,81.4614667 L19.861,81.4581333 L19.8626667,81.4518 L19.8723333,81.3931333 L19.8756667,81.3718 L19.8546667,81.3768 Z M19.8886667,81.1291333 L19.8756667,81.1991333 L19.3296667,81.3328 L19.3376667,81.2058 L19.8986667,81.0701333 L19.8886667,81.1291333 Z M19.9133333,81.0361333 L19.3213333,81.1794667 L19.3116667,81.1828 L19.3116667,81.1928 L19.3003333,81.3491333 L19.2986667,81.3701333 L19.3166667,81.3654667 L19.892,81.2251333 L19.9,81.2234667 L19.9016667,81.2138 L19.9166667,81.1338 L19.9296667,81.0541333 L19.933,81.0311333 L19.9133333,81.0361333 Z M19.949,80.7881333 L19.936,80.8601333 L19.354,81.0018 L19.3623333,80.8748 L19.9606667,80.7294667 L19.949,80.7881333 Z M19.9753333,80.6951333 L19.346,80.8484667 L19.336,80.8501333 L19.336,80.8614667 L19.3246667,81.0181333 L19.323,81.0378 L19.341,81.0344667 L19.9506667,80.8861333 L19.9606667,80.8828 L19.9623333,80.8748 L19.9766667,80.7931333 L19.9913333,80.7131333 L19.9963333,80.6904667 L19.9753333,80.6951333 Z M20.016,80.4458 L20.0013333,80.5174667 L19.3786667,80.6691333 L19.3883333,80.5421333 L20.0273333,80.3871333 L20.016,80.4458 Z M20.0436667,80.3531333 L19.372,80.5158 L19.3623333,80.5191333 L19.3606667,80.5291333 L19.349,80.6871333 L19.3476667,80.7068 L19.367,80.7018 L20.016,80.5438 L20.0256667,80.5421333 L20.0273333,80.5341333 L20.06,80.3708 L20.065,80.3478 L20.0436667,80.3531333 Z M20.0893333,80.1018 L20.073,80.1751333 L19.4046667,80.3364667 L19.4143333,80.2111333 L20.104,80.0431333 L20.0893333,80.1018 Z M20.1186667,80.0088 L19.398,80.1851333 L19.3883333,80.1868 L19.3866667,80.1981333 L19.3753333,80.3544667 L19.3736667,80.3741333 L19.3916667,80.3691333 L20.0893333,80.2014667 L20.0973333,80.1981333 L20.099,80.1898 L20.135,80.0268 L20.1416667,80.0041333 L20.1186667,80.0088 Z M20.1723333,79.7561333 L20.1546667,79.8294667 L19.4306667,80.0058 L19.442,79.8784667 L20.187,79.6974667 L20.1723333,79.7561333 Z M20.2036667,79.6631333 L19.4256667,79.8524667 L19.416,79.8541333 L19.4143333,79.8654667 L19.4013333,80.0218 L19.3996667,80.0431333 L19.4193333,80.0381333 L20.1693333,79.8554667 L20.1773333,79.8541333 L20.179,79.8458 L20.1986667,79.7641333 L20.2196667,79.6811333 L20.2263333,79.6584667 L20.2036667,79.6631333 Z M20.2636667,79.4071333 L20.2443333,79.4821333 L19.4583333,79.6731333 L19.4696667,79.5458 L20.2816667,79.3484667 L20.2636667,79.4071333 Z M20.298,79.3144667 L19.4536667,79.5198 L19.4436667,79.5214667 L19.4436667,79.5328 L19.429,79.6894667 L19.4273333,79.7104667 L19.447,79.7058 L20.259,79.5084667 L20.267,79.5068 L20.2686667,79.4988 L20.2916667,79.4154667 C20.2996667,79.3878 20.308,79.3601333 20.3143333,79.3324667 L20.321,79.3094667 L20.298,79.3144667 Z M20.368,79.0568 L20.3453333,79.1318 L19.4876667,79.3404667 L19.5006667,79.2131333 L20.386,78.9981333 L20.368,79.0568 Z M20.404,78.9638 L19.483,79.1871333 L19.4746667,79.1888 L19.473,79.1984667 L19.4583333,79.3568 L19.4566667,79.3778 L19.4763333,79.3731333 L20.3583333,79.1578 L20.3663333,79.1561333 L20.368,79.1481333 L20.3943333,79.0648 L20.4203333,78.9818 L20.427,78.9574667 L20.404,78.9638 Z M20.4806667,78.7028 L20.456,78.7794667 L19.5186667,79.0061333 L19.5316667,78.8791333 L20.5003333,78.6441333 L20.4806667,78.7028 Z M20.518,78.6101333 L19.5153333,78.8531333 L19.5056667,78.8561333 L19.504,78.8661333 L19.4893333,79.0241333 L19.4876667,79.0438 L19.5073333,79.0388 L20.4693333,78.8054667 L20.4773333,78.8041333 L20.479,78.7958 L20.5066667,78.7128 L20.536,78.6278 L20.5443333,78.6034667 L20.518,78.6101333 Z M20.603,78.3474667 L20.577,78.4241333 L19.5513333,78.6734667 L19.5643333,78.5448 L20.624,78.2888 L20.603,78.3474667 Z M20.6436667,78.2544667 L19.548,78.5204667 L19.54,78.5218 L19.5383333,78.5318 L19.522,78.6898 L19.5203333,78.7111333 L19.54,78.7061333 L20.59,78.4501333 L20.598,78.4484667 L20.5996667,78.4421333 L20.629,78.3571333 L20.66,78.2724667 L20.668,78.2481333 L20.6436667,78.2544667 Z M20.735,77.9888 L20.7056667,78.0671333 L19.5873333,78.3394667 L19.5936667,78.2808 L19.6016667,78.2104667 L20.756,77.9301333 L20.735,77.9888 Z M20.7756667,77.8958 L19.5856667,78.1844667 L19.5756667,78.1878 L19.574,78.1974667 L19.566,78.2758 L19.558,78.3554667 L19.5546667,78.3768 L19.574,78.3721333 L20.7186667,78.0931333 L20.7266667,78.0914667 L20.7283333,78.0851333 L20.761,78.0001333 L20.792,77.9154667 L20.802,77.8891333 L20.7756667,77.8958 Z M20.8736667,77.6301333 L20.8426667,77.7084667 L19.6246667,78.0034667 L19.636,77.9074667 L19.641,77.8761333 L20.898,77.5698 L20.8736667,77.6301333 Z M20.9176667,77.5354667 L19.6246667,77.8501333 L19.615,77.8518 L19.6133333,77.8614667 L19.6083333,77.9024667 L19.5953333,78.0214667 L19.592,78.0411333 L19.6116667,78.0361333 L20.8556667,77.7344667 L20.8636667,77.7328 L20.8653333,77.7264667 L20.8996667,77.6398 L20.934,77.5551333 L20.9436667,77.5291333 L20.9176667,77.5354667 Z M21.022,77.2681333 L21.0203333,77.2681333 L20.9876667,77.3481333 L19.667,77.6674667 L19.6736667,77.6088 L19.6833333,77.5388 L21.0463333,77.2094667 L21.022,77.2681333 Z M21.066,77.1734667 L19.667,77.5144667 L19.659,77.5161333 L19.6573333,77.5258 L19.646,77.6054667 L19.636,77.6854667 L19.633,77.7068 L19.654,77.7018 L21.0023333,77.3741333 L21.009,77.3724667 L21.0106667,77.3661333 L21.0463333,77.2794667 L21.0823333,77.1948 L21.0936667,77.1671333 L21.066,77.1734667 Z M21.177,76.9028 L21.1426667,76.9844667 L19.711,77.3318 L19.7193333,77.2731333 L19.729,77.2028 L21.203,76.8441333 L21.177,76.9028 Z M21.224,76.8101333 L19.7143333,77.1768 L19.7046667,77.1784667 L19.703,77.1881333 L19.68,77.3481333 L19.6783333,77.3691333 L19.698,77.3644667 L21.1556667,77.0104667 L21.1623333,77.0088 L21.1636667,77.0024667 L21.203,76.9161333 L21.2403333,76.8294667 L21.252,76.8034667 L21.224,76.8101333 Z M21.366,76.4871333 L21.3333333,76.5554667 L21.304,76.6191333 L19.76,76.9941333 L19.7696667,76.9354667 L19.7796667,76.8654667 L21.3693333,76.4791333 L21.366,76.4871333 Z M21.392,76.4431333 L19.765,76.8394667 L19.755,76.8408 L19.7536667,76.8508 L19.742,76.9304667 L19.729,77.0104667 L19.7256667,77.0318 L19.747,77.0268 L21.317,76.6454667 L21.3233333,76.6438 L21.3266667,76.6371333 L21.3593333,76.5688 L21.3903333,76.5001333 L21.4066667,76.4644667 L21.42,76.4368 L21.392,76.4431333 Z M21.519,76.1674667 L21.4783333,76.2508 L19.8136667,76.6551333 L19.8236667,76.5964667 L19.835,76.5264667 L21.5486667,76.1108 L21.519,76.1674667 Z M21.5713333,76.0748 L19.8186667,76.5001333 L19.8103333,76.5018 L19.809,76.5118 L19.7956667,76.5914667 L19.7826667,76.6714667 L19.7796667,76.6944667 L19.799,76.6894667 L21.4913333,76.2784667 L21.498,76.2768 L21.4996667,76.2704667 C21.5143333,76.2411333 21.529,76.2118 21.5436667,76.1821333 C21.5583333,76.1528 21.573,76.1238 21.586,76.0958 L21.6006667,76.0681333 L21.5713333,76.0748 Z M21.71,75.7958 C21.697,75.8201333 21.6823333,75.8498 21.666,75.8808 L19.871,76.3161333 L19.8806667,76.2571333 L19.8936667,76.1854667 L21.741,75.7371333 L21.71,75.7958 Z M21.7653333,75.7014667 L21.754,75.7044667 L19.879,76.1594667 L19.8693333,76.1628 L19.8676667,76.1708 L19.853,76.2508 L19.84,76.3324667 L19.835,76.3534667 L19.8563333,76.3484667 L21.6773333,75.9068 L21.684,75.9051333 L21.687,75.9001333 C21.7016667,75.8724667 21.7163333,75.8431333 21.7343333,75.8104667 C21.7506667,75.7778 21.767,75.7488 21.7816667,75.7224667 L21.7963333,75.6948 L21.7653333,75.7014667 Z M19.9573333,75.8448 L21.886,75.3768 C21.8876667,75.3671333 21.891,75.3558 21.894,75.3441333 L19.9426667,75.8188 L19.933,75.8201333 L19.9313333,75.8301333 L19.9166667,75.9098 L19.9016667,75.9914667 L19.897,76.0144667 L19.9183333,76.0078 L21.8453333,75.5414667 L21.8453333,75.5398 C21.847,75.5348 21.8486667,75.5234667 21.8533333,75.5088 L19.933,75.9751333 L19.9443333,75.9164667 L19.9573333,75.8448 Z M20.0256667,75.5024667 L21.9723333,75.0294667 C21.974,75.0181333 21.9773333,75.0084667 21.979,74.9988 L20.0093333,75.4764667 L20.0013333,75.4781333 L19.9996667,75.4878 L19.9833333,75.5678 L19.967,75.6491333 L19.9623333,75.6721333 L19.985,75.6671333 L21.93,75.1944667 C21.9333333,75.1828 21.9366667,75.1731333 21.9383333,75.1614667 L19.9996667,75.6328 L20.011,75.5741333 L20.0256667,75.5024667 Z M20.099,75.1584667 L22.059,74.6838 C22.062,74.6724667 22.0653333,74.6611333 22.067,74.6514667 L20.0826667,75.1338 L20.0746667,75.1354667 L20.073,75.1438 L20.055,75.2234667 L20.0373333,75.3068 L20.0323333,75.3294667 L20.055,75.3248 L22.018,74.8471333 C22.0213333,74.8371333 22.023,74.8274667 22.0263333,74.8161333 L20.0696667,75.2904667 L20.0826667,75.2301333 L20.099,75.1584667 Z M20.6813333,73.1888 C20.7153333,73.1284667 20.748,73.0844667 20.779,73.0518 C20.815,73.0144667 20.849,72.9918 20.88,72.9768 C20.9143333,72.9621333 20.947,72.9574667 20.9876667,72.9734667 C21.025,72.9881333 21.0726667,73.0208 21.1343333,73.0778 L20.6813333,73.1888 Z M21.172,73.0748 C21.097,73.0048 21.043,72.9638 20.996,72.9458 C20.9483333,72.9281333 20.9093333,72.9328 20.8686667,72.9508 C20.8343333,72.9654667 20.7986667,72.9918 20.7593333,73.0324667 C20.722,73.0714667 20.6813333,73.1268 20.6403333,73.2034667 L20.624,73.2311333 L20.655,73.2248 L21.167,73.1008 L21.1916667,73.0941333 L21.172,73.0748 Z M20.5196667,73.5524667 C20.528,73.5311333 20.5343333,73.5101333 20.5426667,73.4888 C20.5523333,73.4644667 20.562,73.4398 20.572,73.4154667 L21.2943333,73.2411333 C21.3103333,73.2571333 21.3266667,73.2754667 21.3446667,73.2948 L21.387,73.3421333 L20.5196667,73.5524667 Z M21.4246667,73.3404667 C21.4033333,73.3178 21.3823333,73.2948 21.3643333,73.2754667 C21.3463333,73.2541333 21.3266667,73.2344667 21.309,73.2151333 L21.3023333,73.2084667 L21.2956667,73.2101333 L20.5573333,73.3894667 L20.5506667,73.3911333 L20.549,73.3974667 C20.5376667,73.4234667 20.528,73.4498 20.5166667,73.4791333 C20.5066667,73.5068 20.4953333,73.5361333 20.484,73.5688 L20.4756667,73.5931333 L20.5003333,73.5868 L21.4163333,73.3648 L21.4393333,73.3584667 L21.4246667,73.3404667 Z M20.4073333,73.9061333 L20.4253333,73.8444667 C20.4333333,73.8181333 20.44,73.7938 20.448,73.7708 L21.5323333,73.5084667 L21.581,73.5654667 L21.6203333,73.6111333 L20.4073333,73.9061333 Z M21.6563333,73.6111333 L21.6023333,73.5474667 L21.547,73.4824667 L21.542,73.4758 L21.534,73.4791333 L20.4333333,73.7448 L20.4253333,73.7481333 L20.4236667,73.7548 C20.4153333,73.7824667 20.4073333,73.8084667 20.3993333,73.8361333 C20.391,73.8608 20.3826667,73.8898 20.373,73.9208 L20.3663333,73.9451333 L20.391,73.9404667 L21.648,73.6338 L21.6706667,73.6291333 L21.6563333,73.6111333 Z M20.3126667,74.2551333 L20.3273333,74.1948 L20.347,74.1214667 L21.7573333,73.7791333 L21.8043333,73.8361333 L21.842,73.8834667 L20.3126667,74.2551333 Z M21.8763333,73.8834667 L21.8256667,73.8181333 L21.7736667,73.7548 L21.767,73.7464667 L21.759,73.7498 L20.3323333,74.0954667 L20.324,74.0971333 L20.3226667,74.1051333 L20.3013333,74.1868 L20.2783333,74.2698 L20.2736667,74.2941333 L20.2963333,74.2878 L21.8696667,73.9061333 L21.891,73.9014667 L21.8763333,73.8834667 Z M20.241,74.5404667 L20.259,74.4688 L21.9723333,74.0531333 C21.989,74.0741333 22.005,74.0954667 22.023,74.1181333 L22.0523333,74.1574667 L20.2263333,74.6008 L20.241,74.5404667 Z M22.0456667,74.1001333 C22.028,74.0774667 22.0083333,74.0531333 21.989,74.0268 L21.9836667,74.0204667 L21.9756667,74.0218 L20.2443333,74.4428 L20.236,74.4444667 L20.233,74.4524667 L20.2133333,74.5341333 L20.1936667,74.6171333 L20.1886667,74.6398 L20.21,74.6351333 L22.0636667,74.1834667 C22.0573333,74.1574667 22.0506667,74.1281333 22.0456667,74.1001333 Z M20.1463333,74.9464667 L20.1593333,74.8861333 L20.1756667,74.8144667 L22.098,74.3481333 C22.0946667,74.3401333 22.0933333,74.3284667 22.0916667,74.3188 L20.161,74.7884667 L20.153,74.7901333 L20.1513333,74.7998 L20.1316667,74.8798 L20.114,74.9628 L20.109,74.9858 L20.13,74.9808 L22.1063333,74.4998 C22.108,74.4864667 22.111,74.4768 22.1126667,74.4688 L20.1463333,74.9464667 Z" id="Fill-4" fill="#2AA0DA"></path>
            <path d="M15.0884667,80.1647 C15.0371333,80.6197 15.0404667,80.9253667 15.0438,81.2310333 C15.0738,81.6787 15.1434667,82.1033667 15.2504667,82.6133667 C15.4234667,83.4343667 15.6951333,84.4770333 15.9751333,85.5397 C16.1244667,85.5687 16.2751333,85.5987 16.4271333,85.6290333 C16.7764667,85.0350333 17.1641333,84.4423667 17.5998,83.8597 C17.7248,83.6923667 17.8538,83.5260333 17.9864667,83.3610333 C18.0368,83.0197 18.0921333,82.6380333 18.1574667,82.1690333 C18.2788,81.2997 18.4354667,80.1300333 18.5141333,79.1873667 C18.5928,78.2450333 18.5934667,77.5290333 18.5398,76.9487 C18.4861333,76.3680333 18.3781333,75.9230333 18.3051333,75.6233667 C18.2324667,75.3240333 18.1951333,75.1703667 18.1398,75.1130333 C18.0841333,75.0557 18.0108,75.0950333 17.8498,75.2027 C17.6891333,75.3103667 17.4408,75.4863667 17.1888,75.7143667 C16.9364667,75.9430333 16.6804667,76.2237 16.4631333,76.4907 C16.3281333,76.6560333 16.2078,76.8163667 16.0938,76.9930333 C16.0231333,77.1020333 15.9551333,77.2173667 15.8868,77.3443667 C15.7078,77.6770333 15.5294667,78.0887 15.3871333,78.5970333 C15.2454667,79.1053667 15.1398,79.7097 15.0884667,80.1647" id="Fill-6" fill="#2AA0DA"></path>
            <path d="M72.0076,27.4072 L72.7752667,27.4282 C72.7612667,27.9488667 72.7469333,28.4695333 72.7329333,28.9902 L71.9652667,28.9688667 L72.0076,27.4072 Z M65.5199333,25.0518667 L65.3949333,22.8875333 L66.1616,22.8422 L66.2866,25.0062 L65.5199333,25.0518667 Z M63.2086,26.9325333 L63.0832667,24.7682 L63.8492667,24.7228667 L63.9746,26.8868667 L63.2086,26.9325333 Z M15.0906,80.1608667 C15.1416,79.7058667 15.2476,79.1015333 15.3896,78.5932 C15.5316,78.0852 15.7099333,77.6728667 15.8889333,77.3402 C15.9562667,77.2152 16.0239333,77.1012 16.0936,76.9932 C16.2079333,76.8165333 16.3282667,76.6562 16.4629333,76.4905333 C16.6806,76.2238667 16.9366,75.9432 17.1886,75.7145333 C17.4409333,75.4865333 17.6889333,75.3102 17.8499333,75.2028667 C18.0106,75.0948667 18.0842667,75.0558667 18.1396,75.1132 C18.1952667,75.1705333 18.2326,75.3238667 18.3052667,75.6235333 C18.3779333,75.9232 18.4862667,76.3682 18.5399333,76.9488667 C18.5932667,77.5292 18.5926,78.2452 18.5142667,79.1875333 C18.4352667,80.1298667 18.2789333,81.2998667 18.1576,82.1692 C18.1522667,82.2058667 18.1476,82.2392 18.1426,82.2752 C17.2266,81.8692 16.1812667,81.4802 15.0452667,81.1845333 C15.0426,80.8928667 15.0416,80.5945333 15.0906,80.1608667 Z M74.7182667,25.1258667 L75.4812667,25.2162 L75.3042667,26.7495333 L74.5412667,26.6592 L74.7182667,25.1258667 Z M99.1659333,82.5222 C97.0952667,81.9922 95.0242667,81.4622 92.9532667,80.9322 L93.3332667,78.9655333 L92.3052667,78.7062 C92.7199333,76.6865333 93.1346,74.6668667 93.5496,72.6472 C93.8919333,72.6102 94.4519333,72.5058667 95.0562667,72.1758667 C95.5836,71.8882 95.8559333,71.6448667 96.0709333,71.3998667 L96.0429333,71.2758667 C95.9932667,71.0548667 95.9179333,70.8348667 95.8202667,70.6222 C95.5436,70.0215333 95.0809333,69.4662 94.4809333,69.0155333 C93.7132667,68.4395333 92.8219333,68.0825333 92.1309333,67.8362 C91.2479333,67.5208667 90.3459333,67.2568667 89.5806,67.0405333 L89.3526,66.9768667 C89.0056,66.8795333 88.3599333,66.6988667 87.9879333,66.5932 C88.2229333,65.7985333 88.6959333,63.9568667 88.5579333,62.4332 C88.5509333,61.9885333 88.2906,61.0965333 87.3496,60.8345333 C86.9762667,60.7305333 86.5272667,60.7348667 86.0129333,60.8438667 C86.3042667,59.1828667 86.5959333,57.5218667 86.8872667,55.8612 C85.7049333,55.8365333 84.5226,55.8122 83.3406,55.7878667 C83.7482667,52.0942 84.1552667,48.4008667 84.5636,44.7075333 L82.6802667,44.7075333 C82.6716,44.0632 82.6639333,43.4192 82.6552667,42.7752 C82.2392667,42.7588667 81.8236,42.7425333 81.4082667,42.7262 C81.3519333,41.3172 81.2956,39.9082 81.2396,38.4992 C81.0272667,39.8675333 80.8139333,41.2358667 80.6006,42.6038667 L79.0839333,42.5548667 C79.1002667,43.0685333 79.1172667,43.5822 79.1336,44.0958667 C78.5219333,44.0388667 77.9106,43.9818667 77.2989333,43.9248667 C77.2502667,46.1098667 77.2009333,48.2948667 77.1522667,50.4798667 C76.2792667,50.4392 75.6692667,50.4105333 74.7972667,50.3698667 L74.8096,53.7002 L73.9962667,53.6038667 C74.2879333,49.9355333 74.6232667,46.2122 75.0052667,42.4352 C75.7192667,35.3848667 76.5562667,28.5418667 77.4939333,21.9148667 L73.4449333,21.2842 L73.3429333,22.9368667 L70.9916,22.8725333 C70.9916,22.8725333 70.7729333,28.1195333 70.7092667,29.5265333 L69.0089333,29.4658667 L68.8432667,19.0548667 L64.3009333,15.9255333 L64.1442667,11.2422 L63.3762667,11.2685333 L63.5146,15.3835333 L60.8102667,13.5205333 C60.9989333,18.4208667 61.1872667,23.3212 61.3756,28.2215333 C60.1522667,28.4748667 58.9282667,28.7278667 57.7046,28.9812 L57.0746,23.7775333 L57.0572667,23.7705333 C57.8586,22.8592 58.3576,21.7225333 58.4756,20.5152 C58.4392667,19.8368667 57.9456,19.2708667 57.2792667,19.1412 L57.2782667,18.7268667 L57.6136,18.6768667 L57.4442667,17.6368667 L56.4779333,17.7328667 L56.4496,17.3958667 L57.4466,17.2995333 L57.2822667,16.3835333 L56.1619333,16.4985333 L55.6812667,12.5718667 L56.2769333,12.5228667 L56.2012667,11.9752 L55.6142667,12.0262 L55.1179333,7.96953333 L55.5069333,7.94086667 L55.4546,7.49886667 L55.0639333,7.5292 L54.7816,5.22386667 L55.2782667,5.18186667 L55.2282667,4.77486667 L54.7312667,4.8122 L54.2756,1.2662 C54.2619333,1.11253333 54.1309333,0.995866667 53.9766,0.999866667 C53.8222667,1.00386667 53.6976,1.12686667 53.6916,1.28086667 L53.6899333,1.2742 L54.0252667,4.86553333 L53.5292667,4.90253333 L53.5649333,5.32786667 L54.0666,5.2842 L54.2922667,7.58953333 L53.8976,7.62053333 L53.9369333,8.06186667 L54.3352667,8.03086667 L54.7322667,12.1032 L54.1499333,12.1538667 L54.1949333,12.7015333 L54.8092667,12.6478667 L55.1762667,16.5938667 L54.0479333,16.7032 L54.0882667,17.6245333 L55.0959333,17.5268667 L55.1409333,17.8672 L54.1739333,17.9578667 L54.2369333,19.0025333 L54.5742667,18.9878667 L54.6549333,19.3582 C54.0352667,19.6308667 53.6542667,20.3018667 53.7669333,20.9705333 C54.1456,22.1228667 54.8856,23.1272 55.8656,23.8418667 L55.8706,23.8482 L56.4122667,29.2485333 C55.2292667,29.4932 54.0466,29.7378667 52.8636,29.9828667 C52.9499333,29.2722 53.0252667,28.5372 53.0869333,27.7785333 C53.1769333,26.6752 53.2302667,25.6145333 53.2549333,24.6015333 C49.2762667,24.8298667 45.2976,25.0582 41.3189333,25.2865333 C41.3402667,26.8472 41.3619333,28.4082 41.3836,29.9692 C40.7096,29.9412 40.0356,29.9128667 39.3619333,29.8848667 C39.2396,25.7592 39.1172667,21.6338667 38.9949333,17.5082 C38.1879333,17.5205333 37.3806,17.5325333 36.5736,17.5448667 C36.5492667,16.4688667 36.5246,15.3925333 36.5002667,14.3162 C34.3479333,14.4508667 32.1952667,14.5852 30.0426,14.7198667 C30.1406,15.8815333 30.2386,17.0435333 30.3362667,18.2055333 C29.6516,18.2418667 28.9666,18.2788667 28.2816,18.3155333 C29.1746,32.8932 30.0672667,47.4712 30.9599333,62.0495333 C30.3362667,62.1105333 29.7126,62.1715333 29.0889333,62.2328667 C28.8849333,59.2395333 28.6812667,56.2462 28.4776,53.2528667 C27.8742667,53.3842 27.2709333,53.5158667 26.6676,53.6475333 C26.5449333,52.6568667 26.4229333,51.6662 26.3002667,50.6755333 C25.4689333,50.9445333 24.6372667,51.2135333 23.8056,51.4828667 C23.6589333,50.3698667 23.4826,49.0955333 23.3359333,47.9825333 L22.3226,48.2468667 L22.1379333,47.1035333 L19.4049333,47.8165333 L19.6229333,48.9512 C19.3416,49.0245333 19.0602667,49.0978667 18.7789333,49.1712 C19.0236,50.4678667 19.2426,51.6272 19.4869333,52.9235333 L17.8619333,53.4638667 C19.2806,60.4595333 20.6992667,67.4548667 22.1179333,74.4505333 C22.0269333,74.8138667 21.9362667,75.1768667 21.8452667,75.5402 C21.7032667,75.7912 21.5469333,76.0942 21.3786,76.4545333 C21.0146,77.2328667 20.5952667,78.2772 20.3169333,79.2365333 C20.1016,79.9785333 19.9496,80.7938667 19.8366,81.4805333 C19.6466,81.6495333 19.4566,81.8178667 19.2669333,81.9872 C19.3699333,80.5282 19.4812667,79.0372 19.6229333,77.8658667 C19.7872667,76.5065333 19.9969333,75.4872 20.1652667,74.7608667 C20.2722667,74.2985333 20.3629333,73.9548667 20.4439333,73.6968667 C20.1902667,73.4155333 20.0509333,73.3565333 19.8099333,73.3578667 C19.5132667,73.3585333 19.0619333,73.4515333 18.5432667,73.5925333 C18.0249333,73.7332 17.4392667,73.9225333 17.0582667,74.0645333 C16.6769333,74.2058667 16.5006,74.3005333 16.3809333,74.3895333 C16.2612667,74.4785333 16.1982667,74.5625333 16.1186,75.0038667 C16.0459333,75.4058667 15.9592667,76.1042 15.8709333,76.8288667 L15.5512667,76.5995333 C15.4556,76.5305333 15.4556,76.5305333 15.3666,77.1822 C15.2776,77.8338667 15.0992667,79.1365333 15.0456,80.1055333 C15.0232667,80.5088667 15.0232667,80.8532 15.0436,81.1842 C12.5936,80.5462 9.72426667,80.3428667 6.8306,81.3482 C5.8886,81.6752 4.8266,82.1712 3.72393333,82.9378667 C3.98693333,83.0082 4.43126667,83.1638667 4.8736,83.5252 C5.23493333,83.8198667 5.45626667,84.1388667 5.58326667,84.3565333 C5.1666,84.2922 3.61026667,84.1018667 2.14893333,85.0808667 C1.34293333,85.6205333 0.8926,86.2965333 0.6666,86.7048667 C1.4496,86.6278667 2.63426667,86.6162 3.9776,87.0252 C4.63526667,87.2262 5.18826667,87.4835333 5.63193333,87.7322 C7.03093333,90.1015333 8.5966,92.7665333 9.99993333,95.1432 C9.25526667,95.3595333 8.5246,95.5802 7.80893333,95.8035333 C18.8416,93.7332 28.3019333,92.7475333 35.6196,92.2572 C37.5689333,92.1265333 44.1466,91.7098667 52.8149333,91.7192 C56.3192667,91.7225333 62.5022667,91.7985333 70.2056,92.3058667 C77.4126,92.7812 86.4532667,93.6672 96.8662667,95.3875333 C96.0679333,95.1105333 95.2682667,94.8335333 94.4699333,94.5562 C96.0352667,90.5448667 97.5999333,86.5332 99.1659333,82.5222 Z" id="Fill-8" fill="#003875"></path>
            <path d="M6.39023333,84.5276333 C6.39023333,84.5276333 10.2059,86.2889667 12.9455667,90.7406333 L14.5109,93.8223 L20.4755667,92.8439667 C20.4755667,92.8439667 18.7212333,87.6249667 17.3482333,86.5823 C15.9752333,85.5396333 11.1352333,84.7233 6.39023333,84.5276333" id="Fill-10" fill="#2AA0DA"></path>
            <path d="M6.1456,87.7923 C6.29226667,88.0499667 9.58126667,94.3153 10.3079333,95.0423 C11.2416,94.7936333 13.5812667,94.1649667 13.5812667,94.1649667 C13.5812667,94.1649667 11.7712667,89.2729667 9.8636,88.7349667 C7.9556,88.1966333 6.1456,87.7923 6.1456,87.7923" id="Fill-12" fill="#2AA0DA"></path>
            <polygon id="Fill-14" fill="#5BBE8A" points="43.6308 52.2591 38.8841333 47.1151 38.8368 51.4281 33.5514667 51.2581 33.2021333 32.3797667 38.8081333 31.4574333 38.7894667 40.3764333 43.4234667 36.0741 48.2371333 38.7347667 42.6211333 43.4251 48.5008 48.4181"></polygon>
            <polygon id="Fill-16" fill="#F37D31" points="55.2302333 31.6747667 54.7772333 52.0697667 49.0199 51.7304333 50.0392333 31.4574333"></polygon>
            <polygon id="Fill-18" fill="#15BCC5" points="56.2745 50.8980667 56.9588333 36.5610667 66.0248333 41.8580667 66.1411667 32.1610667 72.1768333 33.3784 71.2741667 52.0697333 62.2965 46.5450667 62.3011667 51.4230667"></polygon>
            <polygon id="Fill-20" fill="#9EBCC4" points="30.6472333 70.3653667 30.1722333 81.9073667 35.2865667 81.2083667 35.1979 86.4520333 24.9142333 87.1790333 24.8565667 70.8210333"></polygon>
            <path d="M44.505,81.1798333 L43.6226667,78.9998333 L42.489,81.3268333 L44.505,81.1798333 Z M45.8196667,84.3978333 L40.854,84.6751667 L39.6946667,87.0625 L35.776,84.6921667 L43.8646667,70.3655 L51.8153333,84.8655 L46.7716667,86.7168333 L45.8196667,84.3978333 Z" id="Fill-22" fill="#28A1DB"></path>
            <polygon id="Fill-24" fill="#5BBE8A" points="51.7016 86.3967667 52.9066 70.7381 61.3886 76.8271 61.0206 70.4214333 67.2379333 70.3654333 66.8352667 86.3967667 57.7462667 80.8031 57.5159333 86.3967667"></polygon>
            <path d="M77.5329667,78.1967333 C77.5959667,77.7147333 77.5486333,77.2294 77.3899667,76.7407333 C77.2503,76.3150667 77.0276333,75.9730667 76.7233,75.7124 C76.3486333,75.3950667 75.8576333,75.2207333 75.2483,75.1890667 C74.5313,75.1447333 73.8683,75.2174 73.2589667,75.4080667 L73.1733,80.7197333 C73.8326333,80.8780667 74.5119667,80.8940667 75.2099667,80.7667333 C75.8133,80.6527333 76.3043,80.4180667 76.6856333,80.0627333 C77.1616333,79.6184 77.4433,78.9964 77.5329667,78.1967333 M82.8446333,78.0160667 C82.9399667,80.4660667 82.2449667,82.3790667 80.7599667,83.7557333 C79.5666333,84.8537333 77.9009667,85.5867333 75.7623,85.9544 C74.2329667,86.2154 72.5386333,86.2784 70.6789667,86.1454 C69.7523,86.0817333 68.9819667,85.9897333 68.3663,85.8690667 L67.7376333,70.6770667 C69.7876333,70.0427333 72.0433,69.7347333 74.5056333,69.7534 C78.0716333,69.7534 80.5313,71.1307333 81.8833,73.8847333 C82.1176333,74.3607333 82.3113,74.8687333 82.4633,75.4080667 C82.5833,75.8334 82.6789667,76.2737333 82.7486333,76.7310667 C82.8249667,77.2450667 82.8569667,77.6734 82.8446333,78.0160667" id="Fill-26" fill="#F9A231"></path>
            <polygon id="Fill-28" fill="#CF509C" points="58.0990667 57.7870667 52.3750667 57.6720667 52.2550667 59.5974 56.2067333 59.3867333 55.8750667 63.4587333 52.0337333 63.4390667 51.8960667 65.0840667 57.7174 65.2544 57.4017333 69.5174 47.3907333 69.0047333 47.9527333 53.5094 58.0334 53.3990667"></polygon>
            <path d="M41.5992333,62.8525 L38.0779,63.3261667 L38.0779,59.5605 C38.0779,58.5878333 38.8659,57.7995 39.8385667,57.7995 C40.8109,57.7995 41.5992333,58.5878333 41.5992333,59.5605 L41.5992333,62.8525 Z M47.4415667,60.8831667 C47.4535667,60.5511667 47.4229,60.1368333 47.3492333,59.6391667 C47.2815667,59.1968333 47.1892333,58.7705 47.0725667,58.3588333 C46.9255667,57.8371667 46.7382333,57.3455 46.5112333,56.8848333 C45.2032333,54.2195 42.8229,52.8871667 39.3712333,52.8871667 C36.9885667,52.8685 34.8049,53.1661667 32.8215667,53.7805 L33.4299,68.4828333 C34.0255667,68.5998333 34.7715667,68.6888333 35.6682333,68.7501667 C37.4675667,68.8788333 39.1072333,68.8181667 40.5872333,68.5658333 C42.6569,68.2098333 44.2689,67.5005 45.4242333,66.4378333 C46.8612333,65.1055 47.5339,63.2538333 47.4415667,60.8831667 Z" id="Fill-30" fill="#FFC72A"></path>
            <path d="M66.3946333,60.9898667 L63.4129667,61.1338667 L63.4129667,58.4128667 C63.4129667,57.5895333 64.0803,56.9218667 64.9033,56.9218667 C65.7273,56.9218667 66.3946333,57.5895333 66.3946333,58.4128667 L66.3946333,60.9898667 Z M69.0209667,63.7715333 C69.6593,63.4832 70.1753,63.0748667 70.5683,62.5462 C70.8819667,62.1225333 71.1116333,61.6315333 71.2596333,61.0728667 C71.4253,60.4338667 71.4739667,59.8505333 71.4073,59.3225333 C71.3089667,57.4305333 70.6113,55.9872 69.3159667,54.9925333 C68.2843,54.1945333 66.8929667,53.6968667 65.1426333,53.4998667 C63.1463,53.2792 61.1653,53.4022 59.2009667,53.8688667 L58.6296333,69.1978667 L63.7976333,69.3448667 L63.7976333,64.2232 L67.2239667,69.5175333 L73.2003,68.4155333 L69.0209667,63.7715333 Z" id="Fill-32" fill="#EF575E"></path>
            <mask id="mask-4" fill="white">
                <use xlink:href="#path-3"></use>
            </mask>
            <g id="Clip-35"></g>
            <polygon id="Fill-34" fill="#FFFFFF" mask="url(#mask-4)" points="30.8316667 26.0433333 31.6023333 26.0433333 31.6023333 24.209 30.8316667 24.209"></polygon>
            <polygon id="Fill-36" fill="#FFFFFF" mask="url(#mask-4)" points="20.3365333 56.9702 21.2535333 56.8112 21.6572 59.1415333 20.7402 59.3005333"></polygon>
            <polygon id="Fill-37" fill="#FFFFFF" mask="url(#mask-4)" points="25.4823667 59.3172 26.3957 59.1382 26.8503667 61.4588667 25.9373667 61.6378667"></polygon>
            <polygon id="Fill-38" fill="#FFFFFF" mask="url(#mask-4)" points="78.9395667 46.2359667 79.8695667 46.2746333 79.7709 48.6376333 78.8412333 48.5986333"></polygon>
            <polygon id="Fill-39" fill="#FFFFFF" mask="url(#mask-4)" points="81.1091667 48.4373 82.0385 48.4759667 81.9401667 50.8389667 81.0101667 50.7999667"></polygon>
            <polygon id="Fill-40" fill="#FFFFFF" mask="url(#mask-4)" points="86.8923667 73.068 87.8073667 73.236 87.3810333 75.562 86.4657 75.394"></polygon>
            <polygon id="Fill-41" fill="#FFFFFF" mask="url(#mask-4)" points="89.2885 76.2239333 90.2105 76.3512667 89.8871667 78.6939333 88.9648333 78.5666"></polygon>
            <polygon id="Fill-42" fill="#FFFFFF" mask="url(#mask-4)" points="85.5297333 81.4684 86.4534 81.5794 86.1720667 83.9270667 85.2477333 83.8164"></polygon>
            <polygon id="Fill-43" fill="#FFFFFF" mask="url(#mask-4)" points="92.5779 85.7200333 93.4739 85.9713667 92.8349 88.2483667 91.9392333 87.9970333"></polygon>
            <polygon id="Fill-44" fill="#FFFFFF" mask="url(#mask-4)" points="42.9903333 28.5886667 43.6283333 28.5886667 43.6283333 27.0333333 42.9903333 27.0333333"></polygon>
            <polygon id="Fill-45" fill="#FFFFFF" mask="url(#mask-4)" points="50.6706667 28.0503333 51.3086667 28.0503333 51.3086667 26.495 50.6706667 26.495"></polygon>
            <polygon id="Fill-46" fill="#FFFFFF" mask="url(#mask-4)" points="34.0873333 21.2506667 34.858 21.2506667 34.858 19.4163333 34.0873333 19.4163333"></polygon>
            <polygon id="Fill-47" fill="#FFFFFF" mask="url(#mask-4)" points="35.405 25.9563333 36.1756667 25.9563333 36.1756667 24.122 35.405 24.122"></polygon>
            <path d="M87.6863,67.8434 L87.4923,68.5397333 L86.3096333,68.2107333 C86.5916333,68.1870667 86.9293,68.0700667 87.1959667,67.7107333 C87.3159667,67.7390667 87.4856333,67.7830667 87.6863,67.8434 Z M85.4613,67.5894 L85.7729667,66.4707333 L87.1683,66.8594 C86.9323,67.3924 86.5989667,67.7854 86.1303,67.7754 L85.4613,67.5894 Z M86.0976333,65.3040667 L87.5196333,65.7000667 C87.4576333,65.9984 87.3783,66.3050667 87.2766333,66.5880667 L85.8506333,66.1907333 L86.0976333,65.3040667 Z M86.4229667,64.1370667 L87.6973,64.4920667 C87.6746333,64.7330667 87.6366333,65.0594 87.5743,65.4134 L86.1759667,65.0240667 L86.4229667,64.1370667 Z M87.0703,61.8107333 C87.6739667,61.8114 87.7446333,62.4964 87.7673,63.0400667 C87.7823,63.3874 87.7623,63.7360667 87.7283,64.0817333 C87.7283,64.0817333 87.7263,64.1234 87.7209667,64.1974 L86.5003,63.8574 L87.0703,61.8107333 Z M87.7713,67.8694 C88.0409667,67.9540667 88.3556333,68.0660667 88.6656333,68.2087333 L88.4956333,68.8190667 L87.5779667,68.5637333 L87.7713,67.8694 Z M88.7469667,68.2467333 C89.0519667,68.3930667 89.3473,68.5690667 89.5876333,68.7767333 L89.4986333,69.0984 L88.5809667,68.8430667 L88.7469667,68.2467333 Z M89.6616333,68.8430667 C89.7889667,68.9624 89.8969667,69.0920667 89.9779667,69.2320667 L89.5833,69.1220667 L89.6616333,68.8430667 Z M86.4229667,63.8360667 L84.9609667,63.4287333 L85.1486333,62.7557333 C85.1893,62.7234 85.2293,62.6907333 85.2703,62.6584 C85.7309667,62.2980667 86.3139667,61.9337333 86.8959667,61.8270667 C86.9273,61.8214 86.9569667,61.8174 86.9853,61.8147333 L86.4229667,63.8360667 Z M86.0976333,65.0027333 L84.6366333,64.5954 L84.8833,63.7084 L86.3453,64.1154 L86.0976333,65.0027333 Z M85.7733,66.1697333 L84.3116333,65.7624 L84.5579667,64.8754 L86.0203,65.2824 L85.7733,66.1697333 Z M85.3839667,67.5677333 L83.9223,67.1607333 L84.2336333,66.0420667 L85.6949667,66.4490667 L85.3839667,67.5677333 Z M84.8836333,63.4070667 L84.5196333,63.3057333 C84.6889667,63.1457333 84.8623,62.9920667 85.0403,62.8444 L84.8836333,63.4070667 Z M84.5583,64.5737333 L83.5776333,64.3007333 C83.8009667,64.0384 84.0349667,63.7840667 84.2783,63.5400667 L84.8053,63.6867333 L84.5583,64.5737333 Z M84.2339667,65.7407333 L82.7486333,65.3274 C82.8469667,65.2140667 82.9443,65.0957333 83.0403,64.9714 C83.1483,64.8280667 83.2596333,64.6860667 83.3736333,64.5454 L84.4806333,64.8537333 L84.2339667,65.7407333 Z M83.8446333,67.1390667 L82.3356333,66.7187333 L82.6476333,65.6004 L84.1553,66.0204 L83.8446333,67.1390667 Z M82.2583,66.6974 L81.5079667,66.4884 C81.8169667,66.2530667 82.1743,65.9474 82.5309667,65.5680667 L82.5693,65.5794 L82.2583,66.6974 Z M75.2539667,64.4117333 L75.5123,63.4847333 C75.5329667,63.5297333 75.5529667,63.5740667 75.5713,63.6164 C75.7183,63.9497333 75.8749667,64.2974 76.0543,64.6350667 L75.2539667,64.4117333 Z M75.1766333,64.3900667 L73.5126333,63.9267333 L73.7766333,62.9794 L75.4403,63.4427333 L75.1766333,64.3900667 Z M74.0339667,62.0540667 C74.6106333,62.0444 75.0339667,62.5790667 75.3246333,63.1090667 L73.8543,62.6997333 L74.0339667,62.0540667 Z M73.7766333,62.6780667 L73.1233,62.4960667 C73.2796333,62.3417333 73.4576333,62.2157333 73.6496333,62.1374 C73.7533,62.0947333 73.8529667,62.0700667 73.9486333,62.0594 L73.7766333,62.6780667 Z M73.4346333,63.9057333 L72.5083,63.6470667 C72.5139667,63.6110667 72.5213,63.5750667 72.5293,63.5394 C72.5923,63.2670667 72.7276333,62.9837333 72.9116333,62.7390667 L73.6986333,62.9577333 L73.4346333,63.9057333 Z M95.3169667,70.7607333 C95.0409667,70.1790667 94.5866333,69.6794 94.0659667,69.2940667 C93.3909667,68.7954 92.6039667,68.4580667 91.8179667,68.1790667 C90.9989667,67.8884 90.1656333,67.6414 89.3306333,67.4054 C89.1946333,67.3670667 87.8573,66.9940667 87.5519667,66.9037333 C87.7186333,66.3757333 88.3026333,64.3740667 88.1426333,62.7730667 C88.1426333,62.7730667 88.1166333,60.8224 85.5959667,61.5107333 C85.0353,61.6640667 84.4849667,61.8777333 83.9479667,62.0970667 C83.2429667,62.3860667 82.5889667,62.7827333 81.8929667,63.0917333 C81.5463,63.2460667 81.2003,63.3850667 80.8213,63.4214 C80.4113,63.4610667 79.9966333,63.4327333 79.5886333,63.3810667 C78.6483,63.2617333 77.6793,63.1380667 76.7966333,62.7757333 C75.9743,62.4387333 75.3156333,61.8524 74.4189667,61.6804 C73.6596333,61.5347333 72.9963,61.7380667 72.4589667,62.2930667 C72.4589667,62.2930667 71.4006333,63.3890667 71.9353,64.7777333 L72.6809667,64.9857333 C72.6176333,64.9680667 72.5533,64.6124 72.5406333,64.5604 C72.4946333,64.3577333 72.4716333,64.1490667 72.4786333,63.9407333 L73.3569667,64.1850667 L73.1013,65.1024 L73.1793,65.1240667 L73.4346333,64.2067333 L75.0979667,64.6700667 L74.8429667,65.5874 L74.9206333,65.6090667 L75.1763,64.6917333 L76.2559667,64.9924 C76.4583,65.3300667 76.6893,65.6470667 76.9593,65.9154 C77.0359667,65.9910667 77.1559667,66.1310667 77.2633,66.1610667 L80.5913,67.0877333 C80.5913,67.0877333 80.7586333,67.0030667 81.0229667,66.8307333 L82.1349667,67.1404 L82.0116333,67.5837333 L82.0893,67.6054 L82.2126333,67.1620667 L83.7209667,67.5820667 L83.5969667,68.0254 L83.6753,68.0470667 L83.7986333,67.6037333 L85.2606333,68.0107333 L85.1373,68.4540667 L85.2146333,68.4754 L85.3383,68.0324 L85.7579667,68.1494 C85.7579667,68.1494 85.8383,68.1780667 85.9653,68.1977333 L87.4709667,68.6170667 L87.3453,69.0687333 L87.4303,69.0927333 L87.5559667,68.6410667 L88.4733,68.8964 L88.3476333,69.3480667 L88.4333,69.3717333 L88.5589667,68.9200667 L89.4766333,69.1757333 L89.3506333,69.6274 L89.4366333,69.6510667 L89.5623,69.1994 L90.0286333,69.3294 C90.1046333,69.4890667 90.1449667,69.6614 90.1383,69.8467333 C90.1383,69.8467333 91.6516333,70.2680667 91.6519667,70.2680667 C91.6873,70.2780667 91.6333,69.8657333 91.6266333,69.8457333 C91.4193,69.1627333 90.6706333,68.7684 90.0833,68.4604 C89.9923,68.4124 89.8999667,68.3657333 89.8066333,68.3210667 L89.8286333,68.2440667 L89.7429667,68.2200667 L89.7253,68.2820667 C89.0986333,67.9857333 88.4426333,67.7530667 87.7776333,67.5580667 C87.7316333,67.5444 87.6846333,67.5310667 87.6379667,67.5174 C87.6113,67.5100667 87.4726333,67.4627333 87.3616333,67.4334 C87.3743,67.4070667 87.3873,67.3794 87.3993,67.3514 C87.9919667,67.5104 88.5763,67.7110667 89.1489667,67.9290667 C89.9136333,68.2204 90.6759667,68.5604 91.3833,68.9864 C91.8576333,69.2714 92.4169667,69.6507333 92.4909667,70.2484 C92.5009667,70.3324 92.5009667,70.4177333 92.4919667,70.5020667 C92.4919667,70.5020667 93.6006333,70.8107333 93.6009667,70.8107333 C93.6213,70.8164 93.6309667,70.5644 93.6296333,70.5517333 C93.6056333,70.1640667 93.3399667,69.8450667 93.0843,69.5747333 C92.6389667,69.1040667 92.0889667,68.7824 91.4996333,68.5304 L91.5003,68.5307333 C90.4963,68.0930667 88.4343,67.4410667 87.6126333,67.1934 C87.5753,67.1804 87.5353,67.1674 87.4966333,67.1584 C87.4883,67.1560667 87.4813,67.1540667 87.4733,67.1517333 C87.4829667,67.1240667 87.4916333,67.0960667 87.4996333,67.0670667 C87.5126333,67.0690667 87.5266333,67.0720667 87.5423,67.0754 C88.1806333,67.2807333 88.8193,67.4860667 89.4579667,67.6914 C90.6943,68.0890667 91.9503,68.4324 93.0126333,69.2124 C93.6393,69.6730667 94.1379667,70.2607333 94.3639667,71.0164 C94.7503,71.1260667 95.1369667,71.2360667 95.5233,71.3457333 C95.4749667,71.1430667 95.4049667,70.9477333 95.3169667,70.7607333 Z" id="Fill-48" fill="#28A1DB" mask="url(#mask-4)"></path>
            <path d="M79.8956,63.2084667 C79.8956,63.2084667 79.0929333,59.9101333 79.0906,59.9008 C79.0316,59.6598 78.6849333,59.3624667 78.4512667,59.3271333 C77.5046,59.1844667 77.2362667,60.7988 76.9472667,61.3984667 L76.4712667,62.3884667 C76.4712667,62.3884667 78.1116,63.1144667 79.8956,63.2084667" id="Fill-49" fill="#28A1DB" mask="url(#mask-4)"></path>
        </g>
    </g>
</svg>