<?xml version="1.0" encoding="UTF-8"?>
<svg width="100px" height="100px" viewBox="0 0 100 100" version="1.1" xmlns="http://www.w3.org/2000/svg" xmlns:xlink="http://www.w3.org/1999/xlink">
    <!-- Generator: Sketch 52 (66869) - http://www.bohemiancoding.com/sketch -->
    <title>laser-tag</title>
    <desc>Created with Sketch.</desc>
    <g id="Page-1" stroke="none" stroke-width="1" fill="none" fill-rule="evenodd">
        <g id="laser-tag">
            <path d="M85.6399395,49.9621785 C85.6399395,69.6686838 69.6641453,85.6399395 49.9606656,85.6399395 C30.2571861,85.6399395 14.2829047,69.6686838 14.2829047,49.9621785 C14.2829047,30.2556732 30.2556732,14.2859304 49.9652043,14.2859304 C69.6747353,14.2859304 85.6399395,30.2586989 85.6399395,49.9621785" id="Path" fill="#C8FF00"></path>
            <path d="M82.2844175,49.9621785 C82.2844175,67.8139183 67.8108925,82.2844175 49.9606656,82.2844175 C32.1104387,82.2844175 17.6369137,67.8154312 17.6369137,49.9621785 C17.6369137,32.1089259 32.1134645,17.6399395 49.9652043,17.6399395 C67.816944,17.6399395 82.2889561,32.1119515 82.2889561,49.9621785" id="Path" fill="#CC1944"></path>
            <path d="M49.9652043,86.9833585 C32.3011356,86.9862809 17.095072,74.510491 13.6470776,57.1862115 C10.1990833,39.8619319 19.4695605,22.5146566 35.7886635,15.7540202 C52.1077664,8.99338367 70.9299825,14.7024895 80.7435998,29.3896349 C90.5572172,44.0767804 88.6287571,63.6510171 76.1376702,76.1406959 C69.2113757,83.1047958 59.7871991,87.0090197 49.9652043,86.9833585 M49.9652043,15.6293495 C33.5809922,15.6281602 19.4777217,27.2012242 16.2808652,43.2705276 C13.0840086,59.3398311 21.6839998,75.4295234 36.8211379,81.699249 C51.9582759,87.9689746 69.4163499,82.6724005 78.5181108,69.0488783 C87.6198716,55.4253562 85.8301675,37.2695029 74.2435704,25.6853253 C67.8182665,19.225854 59.0761153,15.6048994 49.9652043,15.6293495" id="Shape" fill="#000000" fill-rule="nonzero"></path>
            <path d="M49.9652043,9.72617245 C70.5571953,9.75566091 87.779782,25.3772522 89.8118925,45.8687503 C91.8440027,66.3602483 78.0250296,85.0601836 57.8399052,89.1334763 C37.6547806,93.2067691 17.665377,81.3292543 11.5918272,61.6533055 C5.51827735,41.9773568 15.3349985,20.899321 34.3040847,12.8865355 C39.2587775,10.7905109 44.5854097,9.71561391 49.9652043,9.72617245 M49.9652043,7.45688351 C26.4886535,7.45688351 7.45385779,26.4886535 7.45385779,49.96823 C7.45385779,73.4478064 26.484115,92.4795764 49.9652043,92.4795764 C73.4462935,92.4795764 92.4765509,73.4508321 92.4765509,49.96823 C92.4765509,26.4856278 73.4432678,7.45688351 49.9652043,7.45688351" id="Shape" fill="#000000" fill-rule="nonzero"></path>
            <path d="M80.8880485,49.9621785 L97.6308627,49.9621785" id="Path"></path>
            <rect id="Rectangle" fill="#C8FF00" x="27.1301059" y="49.01059" width="6.79425114" height="2.82450832"></rect>
            <rect id="Rectangle" fill="#C8FF00" x="32.1815431" y="27.6111952" width="9.51134645" height="2.82450832"></rect>
            <rect id="Rectangle" fill="#C8FF00" x="32.1815431" y="33.2344932" width="9.51134645" height="2.82450832"></rect>
            <rect id="Rectangle" fill="#C8FF00" x="43.3313162" y="28.2753404" width="10.5446294" height="2.82450832"></rect>
            <rect id="Rectangle" fill="#C8FF00" x="28.6535552" y="53.8623298" width="13.6944025" height="3.63237519"></rect>
            <rect id="Rectangle" fill="#C8FF00" x="43.0922845" y="52.6807867" width="13.6944025" height="3.49470499"></rect>
            <rect id="Rectangle" fill="#C8FF00" x="58.4704993" y="52.3343419" width="11.6505295" height="3.49470499"></rect>
            <rect id="Rectangle" fill="#C8FF00" x="64.1028745" y="58.1195159" width="5.32677761" height="2.8698941"></rect>
            <rect id="Rectangle" fill="#C8FF00" x="70.9409985" y="58.1195159" width="2.3903177" height="4.8290469"></rect>
            <rect id="Rectangle" fill="#C8FF00" x="62.1875945" y="69.2375189" width="5.51437216" height="2.8698941"></rect>
            <rect id="Rectangle" fill="#C8FF00" x="43.0922845" y="58.9984872" width="13.6944025" height="2.82450832"></rect>
            <rect id="Rectangle" fill="#C8FF00" x="55.4720121" y="26.8638426" width="10.5446294" height="3.21785174"></rect>
            <rect id="Rectangle" fill="#C8FF00" x="64.913767" y="31.3192133" width="8.50378215" height="2.82450832"></rect>
            <rect id="Rectangle" fill="#C8FF00" x="64.913767" y="36.0590015" width="8.50378215" height="2.82450832"></rect>
            <rect id="Rectangle" fill="#C8FF00" x="55.4720121" y="34.3918305" width="6.40847201" height="2.82450832"></rect>
            <rect id="Rectangle" fill="#C8FF00" x="55.4720121" y="46.1875945" width="8.63086233" height="2.82450832"></rect>
            <rect id="Rectangle" fill="#C8FF00" x="43.3313162" y="33.03177" width="10.5446294" height="2.82450832"></rect>
            <rect id="Rectangle" fill="#C8FF00" x="43.3313162" y="47.8532526" width="10.5446294" height="2.82450832"></rect>
            <rect id="Rectangle" fill="#C8FF00" x="32.1815431" y="27.6111952" width="3.29803328" height="20.9304085"></rect>
            <rect id="Rectangle" fill="#C8FF00" x="26.505295" y="30.903177" width="3.29803328" height="20.9304085"></rect>
            <rect id="Rectangle" fill="#C8FF00" x="64.913767" y="31.3192133" width="3.29803328" height="19.6248109"></rect>
            <rect id="Rectangle" fill="#C8FF00" x="55.4720121" y="26.8487141" width="3.29803328" height="22.1618759"></rect>
            <rect id="Rectangle" fill="#C8FF00" x="43.3313162" y="28.2768533" width="3.29803328" height="7.5279879"></rect>
            <rect id="Rectangle" fill="#C8FF00" x="70.1210287" y="31.3555219" width="3.29803328" height="7.5279879"></rect>
            <rect id="Rectangle" fill="#C8FF00" x="38.3948563" y="27.6111952" width="3.29803328" height="24.4780635"></rect>
            <rect id="Rectangle" fill="#C8FF00" x="32.5400907" y="53.8623298" width="4.24508321" height="17.6248109"></rect>
            <rect id="Rectangle" fill="#C8FF00" x="65.7322239" y="58.1195159" width="3.698941" height="13.9878971"></rect>
            <rect id="Rectangle" fill="#C8FF00" x="58.4704993" y="52.6822995" width="4.24508321" height="19.4251135"></rect>
            <rect id="Rectangle" fill="#C8FF00" x="43.0635401" y="52.6807867" width="4.55975795" height="20.3948563"></rect>
            <rect id="Rectangle" fill="#C8FF00" x="52.2239032" y="52.6807867" width="4.55975795" height="20.3948563"></rect>
            <rect id="Rectangle" fill="#C8FF00" x="50.5779123" y="33.03177" width="3.29803328" height="17.6459909"></rect>
            <polygon id="Path" fill="#C8FF00" points="68.0468986 38.7276854 70.6066565 49.7140696 71.9077155 49.7140696 71.9077155 44.924357 70.3464448 38.0771558"></polygon>
            <rect id="Rectangle" fill="#C8FF00" x="34.3388805" y="48.2829047" width="1.13918305" height="2.03025718"></rect>
            <g id="Group" opacity="0.17" transform="translate(14.220877, 14.220877)" fill="#FCFCFC">
                <g id="Path">
                    <path d="M69.0741301,22.9939485 C63.9425114,9.58547655 50.9515885,0.0650529501 35.7443268,0.0650529501 C16.0393344,0.0650529501 0.0665658094,16.0378215 0.0665658094,35.7397882 C0.0594535907,40.7582118 1.11486723,45.7212855 3.16338881,50.3025718 L69.0741301,22.9939485 Z"></path>
                </g>
            </g>
            <path d="M97.6535555,52.2314675 L80.9122542,52.2314675 C79.6589605,52.2314675 78.6429652,51.2154722 78.6429652,49.9621785 C78.6429652,48.7088848 79.6589605,47.6928895 80.9122542,47.6928895 L97.6535555,47.6928895 C98.9068491,47.6928895 99.9228445,48.7088848 99.9228445,49.9621785 C99.9228445,51.2154722 98.9068491,52.2314675 97.6535555,52.2314675" id="Path" fill="#000000"></path>
            <path d="M19.01059,52.2314675 L2.26928895,52.2314675 C1.01599527,52.2314675 0,51.2154722 0,49.9621785 C0,48.7088848 1.01599527,47.6928895 2.26928895,47.6928895 L19.01059,47.6928895 C20.2638837,47.6928895 21.279879,48.7088848 21.279879,49.9621785 C21.279879,51.2154722 20.2638837,52.2314675 19.01059,52.2314675" id="Path" fill="#000000"></path>
            <path d="M49.9652043,21.2813918 C48.7119105,21.2813918 47.6959153,20.2653965 47.6959153,19.0121029 L47.6959153,2.26928895 C47.6959153,1.01599527 48.7119105,0 49.9652043,0 C51.2184979,0 52.2344932,1.01599527 52.2344932,2.26928895 L52.2344932,19.0121029 C52.2344932,20.2653965 51.2184979,21.2813918 49.9652043,21.2813918" id="Path" fill="#000000"></path>
            <path d="M49.9652043,99.9228445 C48.7119105,99.9228445 47.6959153,98.9068491 47.6959153,97.6535555 L47.6959153,80.9122542 C47.6959153,79.6589605 48.7119105,78.6429652 49.9652043,78.6429652 C51.2184979,78.6429652 52.2344932,79.6589605 52.2344932,80.9122542 L52.2344932,97.6535555 C52.2344932,98.9068491 51.2184979,99.9228445 49.9652043,99.9228445" id="Path" fill="#000000"></path>
        </g>
    </g>
</svg>