<?xml version="1.0" encoding="UTF-8"?>
<svg width="16px" height="16px" viewBox="0 0 16 16" version="1.1" xmlns="http://www.w3.org/2000/svg" xmlns:xlink="http://www.w3.org/1999/xlink">
    <!-- Generator: Sketch 52 (66869) - http://www.bohemiancoding.com/sketch -->
    <title></title>
    <desc>Created with Sketch.</desc>
    <g id="Page-1" stroke="none" stroke-width="1" fill="none" fill-rule="evenodd">
        <g id="menu" transform="translate(-964.000000, -760.000000)" fill="#FFFFFF" fill-rule="nonzero">
            <g id="Group-5" transform="translate(324.000000, 753.000000)">
                <g id="Group-4" transform="translate(640.000000, 0.000000)">
                    <path d="M14.6607143,16.8392857 C14.7916673,16.9583339 14.8571429,17.107142 14.8571429,17.2857143 L14.8571429,21.7142857 C14.8571429,22.0714304 14.7321441,22.3749987 14.4821429,22.625 C14.2321416,22.8750013 13.9285732,23 13.5714286,23 L2.42857143,23 C2.07142679,23 1.76785839,22.8750013 1.51785714,22.625 C1.26785589,22.3749987 1.14285714,22.0714304 1.14285714,21.7142857 L1.14285714,17.2857143 C1.14285714,17.107142 1.20535652,16.9553578 1.33035714,16.8303571 C1.45535777,16.7053565 1.60714196,16.6428571 1.78571429,16.6428571 C1.96428661,16.6428571 2.1160708,16.7053565 2.24107143,16.8303571 C2.36607205,16.9553578 2.42857143,17.107142 2.42857143,17.2857143 L2.42857143,21.7142857 L13.5714286,21.7142857 L13.5714286,17.2857143 C13.5714286,17.107142 13.6339279,16.9553578 13.7589286,16.8303571 C13.8839292,16.7053565 14.0357134,16.6428571 14.2142857,16.6428571 C14.392858,16.6428571 14.5416661,16.7083327 14.6607143,16.8392857 Z M14.7142857,7 C15.0714304,7 15.3749987,7.12499875 15.625,7.375 C15.8750013,7.62500125 16,7.92856964 16,8.28571429 L16,11.9285714 C16,12.7738137 15.6964316,13.499997 15.0892857,14.1071429 C14.4821398,14.7142888 13.7500043,15.0178571 12.8928571,15.0178571 C12.4047595,15.0178571 11.9494069,14.9107154 11.5267857,14.6964286 C11.1041646,14.4821418 10.7500014,14.190478 10.4642857,13.8214286 C10.1666652,14.190478 9.80654973,14.4821418 9.38392857,14.6964286 C8.96130741,14.9107154 8.5000025,15.0178571 8,15.0178571 C7.51190232,15.0178571 7.05357357,14.9107154 6.625,14.6964286 C6.19642643,14.4821418 5.83928714,14.1845257 5.55357143,13.8035714 C5.26785571,14.1845257 4.91071643,14.4821418 4.48214286,14.6964286 C4.05356929,14.9107154 3.59524054,15.0178571 3.10714286,15.0178571 C2.24999571,15.0178571 1.51786018,14.7142888 0.910714286,14.1071429 C0.303568393,13.499997 0,12.7738137 0,11.9285714 L0,8.28571429 C0,7.92856964 0.12499875,7.62500125 0.375,7.375 C0.62500125,7.12499875 0.928569643,7 1.28571429,7 L14.7142857,7 Z M4.91071429,8.28571429 L1.28571429,8.28571429 L1.28571429,11.9285714 C1.28571429,12.4285739 1.46130777,12.8541649 1.8125,13.2053571 C2.16369223,13.5565494 2.59225938,13.7321429 3.09821429,13.7321429 C3.6041692,13.7321429 4.03273634,13.5565494 4.38392857,13.2053571 C4.7351208,12.8541649 4.91071429,12.4285739 4.91071429,11.9285714 L4.91071429,8.28571429 Z M8,13.7321429 C8.46428804,13.7321429 8.86904589,13.5773825 9.21428571,13.2678571 C9.55952554,12.9583318 9.75595214,12.5773832 9.80357143,12.125 L9.80357143,8.28571429 L6.19642857,8.28571429 L6.19642857,11.9285714 C6.19642857,12.4285739 6.37202205,12.8541649 6.72321429,13.2053571 C7.07440652,13.5565494 7.4999975,13.7321429 8,13.7321429 Z M14.7142857,11.9285714 L14.7142857,8.28571429 L11.0892857,8.28571429 L11.0892857,11.9285714 C11.0892857,12.4285739 11.2648792,12.8541649 11.6160714,13.2053571 C11.9672637,13.5565494 12.3958308,13.7321429 12.9017857,13.7321429 C13.4077406,13.7321429 13.8363078,13.5565494 14.1875,13.2053571 C14.5386922,12.8541649 14.7142857,12.4285739 14.7142857,11.9285714 Z" id=""></path>
                </g>
            </g>
        </g>
    </g>
</svg>