<?xml version="1.0" encoding="UTF-8"?>
<svg width="12px" height="16px" viewBox="0 0 12 16" version="1.1" xmlns="http://www.w3.org/2000/svg" xmlns:xlink="http://www.w3.org/1999/xlink">
    <!-- Generator: Sketch 52 (66869) - http://www.bohemiancoding.com/sketch -->
    <title>location_on - material</title>
    <desc>Created with Sketch.</desc>
    <g id="Page-1" stroke="none" stroke-width="1" fill="none" fill-rule="evenodd">
        <g id="menu" transform="translate(-500.000000, -760.000000)" fill="#FFFFFF">
            <g id="Group-5" transform="translate(324.000000, 753.000000)">
                <g id="Group-3" transform="translate(176.000000, 0.000000)">
                    <path d="M5.59615385,14.5769231 C5.95513,14.5769231 6.28846,14.4871804 6.59615385,14.3076923 C6.90384769,14.1282042 7.147435,13.887822 7.32692308,13.5865385 C7.50641115,13.2852549 7.59615385,12.95513 7.59615385,12.5961538 C7.59615385,12.2371777 7.50641115,11.9038477 7.32692308,11.5961538 C7.147435,11.28846 6.90384769,11.0448727 6.59615385,10.8653846 C6.28846,10.6858965 5.95513,10.5961538 5.59615385,10.5961538 C5.23717769,10.5961538 4.90705279,10.6858965 4.60576923,10.8653846 C4.30448567,11.0448727 4.06410346,11.28846 3.88461538,11.5961538 C3.70512731,11.9038477 3.61538462,12.2371777 3.61538462,12.5961538 C3.61538462,13.1474387 3.80769038,13.6153827 4.19230769,14 C4.576925,14.3846173 5.04486904,14.5769231 5.59615385,14.5769231 Z M5.59615385,7 C6.6218,7 7.56409827,7.2499975 8.42307692,7.75 C9.269235,8.2500025 9.94230519,8.92307269 10.4423077,9.76923077 C10.9423102,10.6282094 11.1923077,11.5705077 11.1923077,12.5961538 C11.1923077,13.378209 11.0000019,14.275636 10.6153846,15.2884615 C10.2820496,16.1474402 9.82051577,17.0769181 9.23076923,18.0769231 C8.74358731,18.8717988 8.18590058,19.6987137 7.55769231,20.5576923 C7.12179269,21.1602594 6.66025885,21.7499971 6.17307692,22.3269231 L5.59615385,23 L5.01923077,22.3269231 C4.53204885,21.7499971 4.070515,21.1602594 3.63461538,20.5576923 C3.00640712,19.6987137 2.44872038,18.8717988 1.96153846,18.0769231 C1.37179192,17.0769181 0.910258077,16.1474402 0.576923077,15.2884615 C0.192305769,14.275636 4.21884749e-13,13.378209 4.21884749e-13,12.5961538 C4.21884749e-13,11.5705077 0.2499975,10.6282094 0.75,9.76923077 C1.2500025,8.92307269 1.92307269,8.2500025 2.76923077,7.75 C3.62820942,7.2499975 4.57050769,7 5.59615385,7 Z" id="location_on---material"></path>
                </g>
            </g>
        </g>
    </g>
</svg>