<svg width="137" height="16" viewBox="0 0 137 16" fill="none" xmlns="http://www.w3.org/2000/svg">
<path fill-rule="evenodd" clip-rule="evenodd" d="M46.012 0.794678C45.4521 0.794678 44.9976 1.26173 44.9976 1.83654C44.9976 2.41047 45.4521 2.87798 46.012 2.87798C46.5719 2.87798 47.0257 2.41051 47.0257 1.83654C47.0257 1.26176 46.5719 0.794678 46.012 0.794678Z" fill="#022169"/>
<path fill-rule="evenodd" clip-rule="evenodd" d="M43.6887 1.83654C43.6887 1.26176 43.2333 0.794678 42.6746 0.794678C42.116 0.794678 41.6602 1.26173 41.6602 1.83654C41.6602 2.41047 42.116 2.87798 42.6746 2.87798C43.2333 2.87798 43.6887 2.41051 43.6887 1.83654Z" fill="#022169"/>
<path fill-rule="evenodd" clip-rule="evenodd" d="M63.6793 2.87798C64.2392 2.87798 64.6942 2.41051 64.6942 1.83654C64.6942 1.26176 64.2392 0.794678 63.6793 0.794678C63.1207 0.794678 62.6665 1.26173 62.6665 1.83654C62.6665 2.41047 63.1207 2.87798 63.6793 2.87798Z" fill="#022169"/>
<path fill-rule="evenodd" clip-rule="evenodd" d="M26.7295 13.8197L20.2884 9.50245L26.6032 6.17037C27.0858 5.8849 27.2513 5.25129 26.9739 4.75676C26.7942 4.43781 26.46 4.23993 26.1006 4.23993C25.9243 4.23993 25.7513 4.28715 25.5988 4.3773L18.1292 8.39186V5.06208C18.1292 4.49198 17.6779 4.0271 17.1226 4.0271C16.5678 4.0271 16.1152 4.49202 16.1152 5.06208V14.7153C16.1152 15.2854 16.5678 15.749 17.1226 15.749C17.6779 15.749 18.1292 15.2854 18.1292 14.7153V11.8352C18.1346 11.4472 18.4434 11.1317 18.8211 11.1317C18.9151 11.1317 19.0083 11.1519 19.0931 11.1892L19.0977 11.1862L25.7202 15.6097C25.8727 15.7003 26.0474 15.7488 26.2233 15.7488C26.5818 15.7488 26.916 15.5509 27.0953 15.2337C27.2307 14.9941 27.2666 14.716 27.1972 14.449C27.1279 14.182 26.9624 13.9583 26.7293 13.8196" fill="#022169"/>
<path fill-rule="evenodd" clip-rule="evenodd" d="M12.1019 12.1274C12.1019 13.0062 11.4071 13.7205 10.5514 13.7205H4.29388C3.43941 13.7205 2.74417 13.0061 2.74417 12.1274V7.66683C2.74417 6.7881 3.43944 6.07337 4.29388 6.07337H10.5514C11.4071 6.07337 12.1019 6.78813 12.1019 7.66683V12.1274ZM10.8159 4.04517H4.02938C2.21349 4.04517 0.736328 5.56221 0.736328 7.42775V12.3665C0.736328 14.2317 2.21333 15.7497 4.02938 15.7497H10.8159C12.6317 15.7497 14.1083 14.2318 14.1083 12.3665V7.42775C14.1083 5.56211 12.6317 4.04517 10.8159 4.04517Z" fill="#022169"/>
<path fill-rule="evenodd" clip-rule="evenodd" d="M57.1463 13.7022H50.9446C50.1328 13.7022 49.4713 13.0227 49.4713 12.1869V7.80139C49.4713 6.96643 50.1328 6.2869 50.9446 6.2869H58.6208V12.1869C58.6208 13.0227 57.9603 13.7023 57.1463 13.7023V13.7022ZM59.6282 0.794711C59.0725 0.794711 58.6208 1.25832 58.6208 1.82926V4.24007H50.6868C48.9006 4.24007 47.4482 5.73222 47.4482 7.56657V12.422C47.4482 14.2567 48.9006 15.7492 50.6868 15.7492H57.4064C59.1926 15.7492 60.6404 14.2566 60.6404 12.422V1.82923C60.6404 1.25828 60.1837 0.794678 59.6284 0.794678" fill="#022169"/>
<path fill-rule="evenodd" clip-rule="evenodd" d="M39.2682 12.1875C39.2682 13.0224 38.6072 13.7019 37.7945 13.7019H31.5432C30.7327 13.7019 30.1669 13.1207 30.1669 12.2879V11.9728C30.1669 11.1409 30.7327 10.5601 31.5432 10.5601H39.2739L39.2681 12.1874L39.2682 12.1875ZM38.054 4.23999H30.5233C30.1766 4.23999 29.859 4.42158 29.6756 4.72678C29.5786 4.88905 29.5264 5.0758 29.5264 5.2651C29.5264 5.83001 29.9743 6.28978 30.5233 6.28978L37.7942 6.28677C38.6069 6.28677 39.2679 6.96631 39.2679 7.80126V8.51215H31.3811C31.0105 8.51215 30.6457 8.57697 30.2981 8.70403C28.969 9.18784 28.1426 10.3507 28.1426 11.7382V12.5237C28.1426 14.3323 29.5653 15.7493 31.3812 15.7493H38.0538C39.84 15.7493 41.2928 14.2567 41.2928 12.4222V7.5667C41.2928 5.73242 39.84 4.2402 38.0538 4.2402L38.054 4.23999Z" fill="#022169"/>
<mask id="mask0" mask-type="alpha" maskUnits="userSpaceOnUse" x="43" y="4" width="3" height="12">
<path d="M45.3627 15.7997H43.335V4.00928H45.3627V15.7997Z" fill="white"/>
</mask>
<g mask="url(#mask0)">
<path fill-rule="evenodd" clip-rule="evenodd" d="M44.349 4.01025C43.7891 4.01025 43.335 4.47816 43.335 5.05297V14.7593C43.335 15.3336 43.7892 15.8007 44.349 15.8007C44.9072 15.8007 45.3627 15.3337 45.3627 14.7593V5.05297C45.3627 4.47819 44.9072 4.01025 44.349 4.01025Z" fill="#022169"/>
</g>
<mask id="mask1" mask-type="alpha" maskUnits="userSpaceOnUse" x="62" y="4" width="3" height="12">
<path d="M64.6868 15.7995H62.6582V4.00903H64.6868V15.7995Z" fill="white"/>
</mask>
<g mask="url(#mask1)">
<path fill-rule="evenodd" clip-rule="evenodd" d="M63.6727 4.00903C63.1132 4.00903 62.6582 4.47693 62.6582 5.05175V14.7581C62.6582 15.3324 63.1132 15.7995 63.6727 15.7995C64.2317 15.7995 64.6867 15.3325 64.6867 14.7581V5.05175C64.6867 4.47697 64.2317 4.00903 63.6727 4.00903Z" fill="#022169"/>
</g>
<mask id="mask2" mask-type="alpha" maskUnits="userSpaceOnUse" x="115" y="0" width="3" height="3">
<path d="M115.526 0.125H117.594V2.25074H115.526V0.125Z" fill="white"/>
</mask>
<g mask="url(#mask2)">
<path fill-rule="evenodd" clip-rule="evenodd" d="M116.56 0.125C115.989 0.125 115.526 0.601494 115.526 1.18789C115.526 1.77471 115.989 2.25077 116.56 2.25077C117.13 2.25077 117.594 1.77471 117.594 1.18789C117.594 0.601494 117.13 0.125 116.56 0.125Z" fill="#9AD1DC"/>
</g>
<mask id="mask3" mask-type="alpha" maskUnits="userSpaceOnUse" x="118" y="0" width="3" height="3">
<path d="M118.924 0.125H120.991V2.25074H118.924V0.125Z" fill="white"/>
</mask>
<g mask="url(#mask3)">
<path fill-rule="evenodd" clip-rule="evenodd" d="M119.958 0.125C119.388 0.125 118.924 0.601494 118.924 1.18789C118.924 1.77471 119.388 2.25077 119.958 2.25077C120.528 2.25077 120.991 1.77471 120.991 1.18789C120.991 0.601494 120.528 0.125 119.958 0.125Z" fill="#9AD1DC"/>
</g>
<mask id="mask4" mask-type="alpha" maskUnits="userSpaceOnUse" x="134" y="0" width="3" height="3">
<path d="M134.933 0.125H137V2.25074H134.933V0.125Z" fill="white"/>
</mask>
<g mask="url(#mask4)">
<path fill-rule="evenodd" clip-rule="evenodd" d="M135.968 0.125C135.399 0.125 134.933 0.601494 134.933 1.18789C134.933 1.77471 135.399 2.25077 135.968 2.25077C136.538 2.25077 137 1.77471 137 1.18789C137 0.601494 136.538 0.125 135.968 0.125Z" fill="#9AD1DC"/>
</g>
<path fill-rule="evenodd" clip-rule="evenodd" d="M118.261 3.43188C117.724 3.43188 117.287 3.88132 117.287 4.43338V14.69C117.287 15.2416 117.724 15.6919 118.261 15.6919C118.798 15.6919 119.234 15.2416 119.234 14.69V4.43338C119.234 3.88132 118.798 3.43188 118.261 3.43188Z" fill="#9AD1DC"/>
<path fill-rule="evenodd" clip-rule="evenodd" d="M135.993 3.43188C135.456 3.43188 135.019 3.88132 135.019 4.43338V14.69C135.019 15.2416 135.456 15.6919 135.993 15.6919C136.529 15.6919 136.966 15.2416 136.966 14.69V4.43338C136.966 3.88132 136.529 3.43188 135.993 3.43188Z" fill="#9AD1DC"/>
<path fill-rule="evenodd" clip-rule="evenodd" d="M131.127 12.8729C130.482 13.5619 129.046 14.0216 127.469 14.0435C127.435 14.0444 127.4 14.0444 127.364 14.0444C125.151 14.0444 123.397 13.2163 123.372 12.1586C123.364 11.8825 123.482 11.6112 123.722 11.3502C124.365 10.6613 125.799 10.2032 127.377 10.183C127.415 10.1817 127.455 10.1817 127.495 10.1817C129.705 10.1817 131.453 11.0094 131.476 12.0658C131.485 12.3414 131.369 12.6119 131.127 12.8729L131.127 12.8729ZM123.722 6.01163C124.365 5.32134 125.799 4.86288 127.377 4.84399C127.415 4.8427 127.455 4.8427 127.495 4.8427C129.705 4.8427 131.453 5.66949 131.476 6.72595C131.485 6.99983 131.369 7.27328 131.127 7.53385C130.481 8.2224 129.046 8.68132 127.469 8.70404H127.364C125.151 8.70404 123.397 7.87683 123.371 6.81866C123.364 6.54264 123.482 6.27048 123.722 6.01162L123.722 6.01163ZM131.395 9.41585C131.747 9.20636 132.055 8.96684 132.306 8.69981L132.309 8.69638L132.312 8.69337C133 7.94985 133.126 7.18961 133.111 6.67622C133.058 4.60453 130.751 3.16016 127.495 3.16016C127.448 3.16016 127.402 3.16101 127.357 3.16101C125.864 3.1799 124.51 3.51774 123.511 4.09511C123.384 3.69159 123.017 3.40056 122.585 3.40056C122.047 3.40056 121.61 3.84872 121.61 4.40034V14.6898C121.61 15.2418 122.047 15.6917 122.585 15.6917C123.065 15.6917 123.463 15.3311 123.543 14.8606C124.519 15.4109 125.838 15.7269 127.364 15.7269C127.405 15.7269 127.447 15.7269 127.49 15.7265C129.544 15.6977 131.344 15.0671 132.306 14.0394L132.309 14.0368L132.312 14.0342C133 13.2907 133.126 12.5301 133.111 12.0162C133.083 10.9439 132.45 10.0398 131.395 9.41607" fill="#9AD1DC"/>
<path fill-rule="evenodd" clip-rule="evenodd" d="M108.182 13.9245C105.495 13.9245 103.31 11.9202 103.31 9.45731C103.31 6.99026 105.495 4.98294 108.182 4.98294C110.869 4.98294 113.055 6.99022 113.055 9.45731C113.055 11.9201 110.869 13.9245 108.182 13.9245ZM113.865 3.4002C113.327 3.4002 112.891 3.84836 112.891 4.39999V4.94473C111.667 3.86938 110.007 3.20874 108.182 3.20874C104.425 3.20874 101.368 6.00933 101.368 9.45737C101.368 12.9006 104.425 15.7031 108.182 15.7031C110.007 15.7031 111.667 15.0407 112.891 13.9658V14.6891C112.891 15.2416 113.327 15.691 113.865 15.691C114.401 15.691 114.837 15.2416 114.837 14.6891V4.40032C114.837 3.84869 114.401 3.40053 113.865 3.40053" fill="#9AD1DC"/>
<path fill-rule="evenodd" clip-rule="evenodd" d="M98.2219 12.8747C97.5774 13.5637 96.1419 14.0235 94.5648 14.0458C94.5297 14.0462 94.4938 14.0462 94.4588 14.0462C92.2457 14.0462 90.4908 13.2177 90.4659 12.1604C90.4579 11.8844 90.5769 11.6135 90.8165 11.3516C91.4589 10.6635 92.8935 10.2046 94.4722 10.184C94.5111 10.184 94.5503 10.1832 94.59 10.1832C96.801 10.1832 98.5491 11.0108 98.5711 12.0681C98.5807 12.3424 98.4634 12.6133 98.2217 12.8747L98.2219 12.8747ZM90.8164 6.01182C91.4588 5.32153 92.8934 4.86435 94.4721 4.84418C94.5109 4.8429 94.5502 4.8429 94.5898 4.8429C96.8009 4.8429 98.549 5.67054 98.5709 6.727C98.5805 7.0013 98.4633 7.27348 98.2216 7.53447C97.5771 8.22345 96.1416 8.68148 94.5645 8.70552H94.4585C92.2454 8.70552 90.4905 7.87702 90.4655 6.81929C90.4576 6.54412 90.5766 6.27238 90.8162 6.01181L90.8164 6.01182ZM98.4904 9.41867C98.8432 9.20746 99.1512 8.96834 99.4008 8.70135L99.4042 8.69792L99.4067 8.69534C100.095 7.95097 100.223 7.18987 100.206 6.67688C100.153 4.60561 97.8464 3.16016 94.5897 3.16016C94.5434 3.16016 94.4979 3.16101 94.4524 3.16101C92.9597 3.1799 91.6044 3.51774 90.6051 4.09511C90.479 3.69159 90.1117 3.40056 89.6788 3.40056C89.1416 3.40056 88.7046 3.84872 88.7046 4.40034V14.6914C88.7046 15.2443 89.1416 15.6929 89.6788 15.6929C90.1593 15.6929 90.5579 15.3336 90.6372 14.8627C91.6135 15.4126 92.9326 15.729 94.4586 15.729C94.5003 15.729 94.5429 15.729 94.5842 15.7277C96.6396 15.7006 98.4391 15.0692 99.4007 14.0419L99.404 14.0381L99.4065 14.035C100.095 13.2924 100.223 12.5313 100.206 12.0179C100.178 10.9451 99.5459 10.0411 98.4903 9.41864" fill="#9AD1DC"/>
<path fill-rule="evenodd" clip-rule="evenodd" d="M80.1068 14.099C77.316 14.099 75.0454 12.0165 75.0454 9.45767C75.0454 6.89574 77.3161 4.81047 80.1068 4.81047C82.898 4.81047 85.1679 6.8959 85.1679 9.45767C85.1679 12.0166 82.898 14.099 80.1068 14.099ZM80.1068 3.03784C76.247 3.03784 73.1055 5.91612 73.1055 9.45767C73.1055 12.9954 76.2469 15.8745 80.1068 15.8745C83.9659 15.8745 87.1058 12.9954 87.1058 9.45767C87.1058 5.91602 83.9656 3.03784 80.1068 3.03784Z" fill="#9AD1DC"/>
<path fill-rule="evenodd" clip-rule="evenodd" d="M71.1127 10.2614C71.1127 9.95562 70.8279 9.70532 70.4766 9.70532H68.0838C67.7321 9.70532 67.4473 9.95561 67.4473 10.2614C67.4473 10.5684 67.7321 10.8176 68.0838 10.8176H70.4766C70.8279 10.8176 71.1127 10.5684 71.1127 10.2614Z" fill="#022169"/>
</svg>
