<?xml version="1.0" encoding="UTF-8"?>
<svg width="131px" height="54px" viewBox="0 0 131 54" version="1.1" xmlns="http://www.w3.org/2000/svg" xmlns:xlink="http://www.w3.org/1999/xlink">
    <!-- Generator: Sketch 52 (66869) - http://www.bohemiancoding.com/sketch -->
    <title>Combined Shape</title>
    <desc>Created with Sketch.</desc>
    <g id="Page-1" stroke="none" stroke-width="1" fill="none" fill-rule="evenodd">
        <g id="menu" transform="translate(-155.000000, -44.000000)" fill="#FFFFFF">
            <g id="Combined-Shape-2" transform="translate(155.000000, 44.000000)">
                <path d="M71.9773146,17.94685 C71.9773146,17.3987208 72.1355528,16.9932203 72.4533211,16.729709 C72.7710895,16.4661976 73.2270741,16.3338024 73.8206291,16.3338024 C74.1907129,16.3338024 74.5278573,16.3792133 74.8359376,16.4700352 C75.1427261,16.5621362 75.347467,16.6273745 75.4501604,16.6683083 L75.4501604,30.3945635 C75.4501604,31.8752159 75.2402525,33.1646306 74.8197908,34.2602494 C74.3999749,35.3558682 73.8206291,36.2685641 73.0843367,36.9983371 C72.3461066,37.7293892 71.4754731,38.2768788 70.4711445,38.6420851 C69.4668158,39.0079309 68.3701276,39.1902143 67.1823717,39.1902143 C65.973302,39.1902143 64.8624047,38.9868244 63.8477421,38.5819635 C62.8343712,38.1764631 61.9579249,37.6181004 61.2209866,36.9075152 C60.4827566,36.19693 59.9040566,35.3449952 59.4835949,34.3504317 C59.0644249,33.3571474 58.8545169,32.2813559 58.8545169,31.124976 C58.8545169,29.9487688 59.0534451,28.8678606 59.4525931,27.8828909 C59.8530328,26.8998401 60.4065439,26.0479053 61.1131262,25.3270867 C61.8197086,24.6075472 62.6502981,24.0491845 63.6016654,23.6532779 C64.5556162,23.2580109 65.594176,23.0590982 66.7212201,23.0590982 C67.9096219,23.0590982 68.9546404,23.2880716 69.8569216,23.7440998 C70.757911,24.2007675 71.4644933,24.754653 71.9773146,25.4025584 L71.9773146,17.94685 Z M71.9773146,31.124976 C71.9773146,30.4348577 71.8591202,29.7863128 71.6233775,29.1774224 C71.3882806,28.5678925 71.0653454,28.0408698 70.6558634,27.5950752 C70.2450898,27.1486409 69.7497071,26.7987848 69.1651942,26.5442277 C68.5806814,26.2909498 67.9412696,26.1643108 67.2443752,26.1643108 C66.527459,26.1643108 65.8815884,26.2909498 65.3080554,26.5442277 C64.7338765,26.7987848 64.237202,27.1435241 63.8173862,27.579725 C63.3975703,28.0152862 63.074635,28.5384714 62.8492262,29.1467221 C62.6238174,29.7556124 62.5114359,30.4143908 62.5114359,31.124976 C62.5114359,31.8355612 62.6238174,32.4892229 62.8492262,33.0885193 C63.074635,33.6865366 63.3975703,34.2039655 63.8173862,34.6401663 C64.237202,35.0763671 64.7338765,35.4211065 65.3080554,35.675024 C65.8815884,35.9283019 66.527459,36.0549408 67.2443752,36.0549408 C67.9412696,36.0549408 68.5806814,35.9340582 69.1651942,35.6897346 C69.7497071,35.4460505 70.2450898,35.1121842 70.6558634,34.6862168 C71.0653454,34.2602494 71.3882806,33.742181 71.6233775,33.1332907 C71.8591202,32.52504 71.9773146,31.854749 71.9773146,31.124976 Z M129.423818,36.1851615 C130.469482,36.1851615 130.999742,36.724976 130.999742,37.7489607 C130.999742,38.1448673 130.907382,38.6463064 130.672931,39.1304765 L116.871324,39.1304765 C115.883788,39.1304765 115.082908,38.3373841 115.082908,37.3588104 C115.082908,36.6399105 115.393572,35.956188 115.939332,35.4816118 C116.3824,35.0965782 121.50157,30.5976975 124.863326,27.2839783 C125.246973,26.9066198 124.979582,26.2599936 124.439635,26.2599936 L118.026786,26.2599936 C117.975762,26.2599936 117.92926,26.2580748 117.880819,26.2567957 L117.803315,26.2567957 C116.716961,26.2567957 116.165387,25.6958746 116.165387,24.6322354 C116.165387,24.2209786 116.262268,23.6997122 116.505115,23.1969939 L117.036666,23.1969939 L121.672079,23.1969939 L128.734028,23.1969939 C129.916617,23.1969939 130.607698,23.7393668 130.607698,24.8170771 C130.607698,25.8992645 129.818444,26.5887432 129.328875,27.084426 C126.479294,29.973457 121.048814,34.7761433 120.630936,35.1368724 C120.21112,35.4988807 120.47076,36.1851615 121.028792,36.1851615 L129.423818,36.1851615 Z M107.183524,29.2202111 L107.183524,37.8054365 C107.183524,38.4987528 106.786313,39.2144547 105.449361,39.2144547 C104.897142,39.2144547 104.482493,39.103166 103.917357,38.9029741 L103.921232,30.0420851 C103.921232,27.9007355 103.00345,26.1034858 100.201017,26.1034858 C97.399877,26.1034858 96.4859701,27.8604413 96.4859701,30.0420851 L96.4859701,37.8054365 C96.4859701,38.4987528 96.0881139,39.2144547 94.7524536,39.2144547 C94.1989426,39.2144547 93.7855854,39.103166 93.2204487,38.9029741 L93.2204487,29.2202111 C93.2204487,25.2912056 96.3865061,23.184394 100.201017,23.184394 C104.23125,23.184394 107.183524,25.4056924 107.183524,29.2202111 Z M111.85982,23.148513 C112.426895,23.148513 112.850586,23.2591621 113.430577,23.4599936 L113.430577,37.8092101 C113.430577,38.5018868 113.023033,39.2182283 111.653142,39.2182283 C111.086067,39.2182283 110.662376,39.1069396 110.08303,38.9067477 L110.08303,24.5568916 C110.08303,23.8642149 110.489929,23.148513 111.85982,23.148513 Z M83.3866176,23.1997442 C88.6078351,23.1997442 91.7131806,26.4181644 91.7131806,31.0276943 C91.7131806,36.7923249 87.1087695,39.0986888 83.4718725,39.0986888 C79.4461615,39.0986888 76.9582682,36.884426 76.9582682,34.1181964 C76.9582682,31.6519348 78.4825226,30.3740326 81.4419014,29.7830508 C82.5741125,29.5566358 84.0066533,29.4383115 85.7440451,29.4383115 C86.1483601,29.4383115 87.2024208,29.4440678 88.0162177,29.498433 C87.5589413,26.8825072 85.2040973,26.0689479 82.9177156,26.0689479 C82.4262081,26.0689479 80.985271,26.3637992 80.082344,26.7897665 C79.4713504,27.0814199 78.6724086,27.2061401 77.9490336,26.2102974 C77.6493496,25.7990406 77.5330929,25.4095299 77.4769022,24.8230253 C79.6276511,23.7242085 81.5910975,23.1997442 83.3866176,23.1997442 Z M83.5325844,36.4584586 C85.6439352,36.4584586 87.934838,35.1786377 88.1679972,31.8386952 C87.7042622,31.8182283 87.2586115,31.8086345 86.8355663,31.8086345 L85.5619096,31.8086345 C84.4516581,31.8086345 83.3724085,31.9007355 82.8654001,32.0177806 C81.9011154,32.2429165 80.3213161,32.5384074 80.3213161,34.1783179 C80.3213161,35.5054685 81.4205877,36.4584586 83.5325844,36.4584586 Z M113.785419,18.6039015 C113.785419,19.7129517 112.876679,20.6134954 111.756094,20.6134954 C110.635508,20.6134954 109.726768,19.7129517 109.726768,18.6039015 C109.726768,17.4942117 110.635508,16.5936681 111.756094,16.5936681 C112.876679,16.5936681 113.785419,17.4942117 113.785419,18.6039015 Z M19.4885784,0.0307003518 C19.5602701,0.0108730413 19.6410039,0 19.730134,0 C20.2461846,0 21.0296255,0.33834346 21.9364278,0.862807803 C21.0703154,0.683722418 20.1815975,0.443875919 19.261232,0.138791174 C19.3380906,0.0895426927 19.4143033,0.0518068436 19.4885784,0.0307003518 Z M18.5391487,0.908858331 C18.6153615,0.798848737 18.6909283,0.697793412 18.7664952,0.606331948 C20.4425292,1.178126 21.9855139,1.57723057 23.4406603,1.81835625 C23.6589645,1.96738088 23.8798522,2.12152223 24.1007399,2.27950112 C22.3975793,2.05436521 20.5775162,1.60921011 18.5766092,0.922289735 C18.5630459,0.918452191 18.5507744,0.913335465 18.5391487,0.908858331 Z M18.1154577,1.58618484 C18.1781071,1.47681484 18.2394648,1.37256156 18.3021142,1.27150624 C19.0687626,1.56507835 19.8412237,1.85097538 20.6123932,2.11192837 C22.4427903,2.7329709 24.1214078,3.14550688 25.6837686,3.45442917 C25.8878637,3.61112888 26.0887295,3.767189 26.2844282,3.92069076 C24.4340091,3.57403262 22.6281551,3.17556764 20.493553,2.4521906 C19.700424,2.18228334 18.9047115,1.88871122 18.1154577,1.58618484 Z M17.7143721,2.34537896 C17.7699169,2.23472977 17.82417,2.12727854 17.8797149,2.02174608 C19.3432576,2.55836265 20.8494276,3.10585225 22.3459097,3.57211385 C24.1026776,4.11704509 25.6953943,4.4317237 27.1860635,4.63895107 C27.3707825,4.7879757 27.547751,4.93316278 27.7189067,5.07387272 C26.0441644,4.86600576 24.2531654,4.5410937 22.2367576,3.91429485 C20.7202535,3.44163735 19.1953532,2.88775184 17.7143721,2.34537896 Z M35.2084215,4.02494404 C37.2739155,3.10585225 39.3988295,2.30700352 40.5562295,2.30700352 C40.5801267,2.30700352 40.604024,2.3082827 40.6272753,2.30892229 C39.8573976,2.59929645 39.0758943,2.88903102 38.2950368,3.16085705 C37.7828614,3.33930285 37.3049172,3.49152542 36.8340776,3.62583946 C36.2915464,3.78189958 35.749661,3.91365526 35.2084215,4.02494404 Z M17.3468717,3.12567957 C17.3978955,3.0137512 17.4469816,2.9043812 17.4980054,2.79565078 C18.1793988,3.01758874 18.856917,3.24400384 19.5279765,3.46913975 C21.1316731,4.00639591 22.7889769,4.5615606 24.4288422,5.02526383 C26.0151002,5.46977934 27.4599126,5.7876559 28.8143031,5.98784778 C28.8956828,6.05692357 28.9738332,6.12280141 29.0455248,6.18356252 C29.1779282,6.29740966 29.3180822,6.38055644 29.4608195,6.43748001 C27.8894165,6.24880077 26.2062779,5.89830508 24.3306699,5.37064279 C22.6811165,4.90502079 21.0192916,4.34793732 19.4117198,3.80940198 C18.7296805,3.58106812 18.0398908,3.35081548 17.3468717,3.12567957 Z M41.0147976,3.13271506 C41.2104964,3.05596418 41.4061952,2.97857371 41.6025398,2.90118324 C41.661314,2.99840102 41.7181506,3.10393348 41.7736955,3.22097857 C41.5644334,3.30284618 41.3558173,3.38535337 41.1472011,3.46658139 C40.604024,3.67700672 40.1041202,3.85992965 39.6203631,4.02302526 C37.1221359,4.86664535 34.6839746,5.32011513 32.3446315,5.38087624 C32.6029797,5.25167893 32.8742453,5.11800448 33.155199,4.98241126 C35.2064839,4.8493764 37.3313979,4.41573393 39.5028147,3.68276303 C39.9820506,3.52094659 40.4767875,3.34122162 41.0147976,3.13271506 Z M16.9477237,4.05180684 C16.9942264,3.9385993 17.0420208,3.82667093 17.0891694,3.71602175 C18.6315082,4.10169492 20.1615755,4.54429165 21.6625787,4.97985289 C23.3250494,5.46338343 25.0462944,5.85545251 26.7417046,6.26223217 C30.1292956,7.07323313 32.8981426,7.36424688 35.455144,7.17940518 C37.6756469,7.02270547 39.9607369,6.49184522 42.4815696,5.54269268 C42.5061127,5.66101695 42.5306558,5.77870163 42.5558447,5.90022386 C40.0227405,6.84809722 37.7208579,7.37895747 35.4822706,7.53821554 C32.8865169,7.72497602 30.0815011,7.43076431 26.6564497,6.61144867 C24.9526432,6.20275024 23.227523,5.81068116 21.5605311,5.32587144 C20.0466106,4.88583307 18.5023341,4.43875919 16.9477237,4.05180684 Z M32.6372109,6.29037416 C35.604986,6.27438439 38.7154985,5.58490566 42.1347371,4.18867925 C42.17026,4.30060761 42.2031994,4.41637352 42.2361388,4.53533738 C38.7865443,5.93987848 35.6443841,6.63383435 32.6404402,6.6504637 C31.8046837,6.65622002 30.9540722,6.59417972 30.0666461,6.50399744 C30.1583597,6.48672849 30.2494275,6.45794691 30.3353283,6.4112568 C30.4509391,6.35049568 30.5846343,6.28014071 30.7280175,6.20466901 C31.3797009,6.2603134 32.0145917,6.2948513 32.6372109,6.29037416 Z M16.5091776,5.15574033 C16.5530968,5.0412536 16.597016,4.92676687 16.6415811,4.81419891 C18.8711262,5.19475536 21.0916291,5.7396866 23.2585248,6.2737448 C24.983645,6.698433 26.7668935,7.13655261 28.5210779,7.48257115 C32.1334318,8.19379597 35.0598712,8.37352095 37.7324835,8.05052766 C39.4705212,7.84202111 41.1549515,7.40518068 42.734105,6.86152862 C42.7547728,6.98049248 42.774149,7.10073553 42.794171,7.22097857 C41.2098505,7.76335146 39.5208991,8.19827311 37.7757569,8.40805884 C35.0643923,8.73552926 32.1017842,8.55324592 28.450678,7.83498561 C26.6880973,7.48768788 24.8990359,7.0476495 23.1706864,6.62232171 C20.9882898,6.08506556 18.7497025,5.534378 16.5091776,5.15574033 Z M16.1035709,6.24368404 C16.1461984,6.12791813 16.1875341,6.01279181 16.2308074,5.89574672 C18.8013722,6.19635433 21.3887295,6.75471698 23.8953531,7.29772945 C25.6165981,7.67061081 27.3966173,8.05692357 29.1482182,8.35241445 C34.0193738,9.178126 38.0056868,9.22097857 41.6923158,8.49056604 C42.1050271,8.40933802 42.5203218,8.3153182 42.9427212,8.20978574 C42.9601597,8.32938919 42.9769523,8.44899264 42.9924532,8.56923569 C42.5778043,8.6715702 42.17026,8.76303166 41.7646533,8.84298049 C38.0321675,9.58426607 34.003227,9.5407739 29.0868605,8.70674768 C27.3275092,8.40997761 25.5429689,8.02238567 23.8184945,7.64886473 C21.2931407,7.10137512 18.6851155,6.53917493 16.1035709,6.24368404 Z M15.8303677,7.01311161 C15.8704117,6.89862488 15.9111015,6.78221938 15.9530831,6.66517429 C18.6166532,6.95618804 21.3021829,7.53821554 23.9005201,8.10041573 C25.6211192,8.47329709 27.4011384,8.85960985 29.1527393,9.15574033 C34.0238949,9.98145187 38.0108537,10.024944 41.6974828,9.29389191 C42.1418417,9.2056284 42.58943,9.10329389 43.0467063,8.98752798 C43.0628531,9.10841062 43.0770622,9.22737448 43.0919173,9.34761752 C42.644329,9.46018548 42.2044911,9.55932203 41.7691744,9.64566677 C38.0360427,10.3869524 34.0077481,10.3428206 29.0920275,9.50943396 C27.3313844,9.2126639 25.5481358,8.82507195 23.8223697,8.45155101 C21.2253243,7.88935082 18.5404405,7.30668372 15.8859126,7.01950752 C15.8665364,7.01758874 15.8490979,7.01630956 15.8303677,7.01311161 Z M15.5274544,7.89958427 C15.5662066,7.78381836 15.6056047,7.66613367 15.6456487,7.54844899 C15.7380082,7.55676367 15.8310136,7.56379917 15.9240189,7.57339303 C18.5998606,7.83946274 21.2995994,8.40038375 23.910854,8.94275664 C25.6359742,9.30092741 27.4192228,9.6712504 29.1734072,9.95267029 C34.0516673,10.7355293 38.0373344,10.7451231 41.7187965,9.98209146 C42.1818857,9.88679245 42.6501418,9.77358491 43.128086,9.64758555 C43.142941,9.76974736 43.1565043,9.88935082 43.1700676,10.0089543 C42.7031032,10.1311161 42.2458269,10.2404861 41.7937175,10.3345059 C38.0670445,11.1071314 34.0393958,11.0988168 29.1152788,10.3070035 C27.3520522,10.024944 25.5655743,9.65462104 23.8365789,9.29517109 C21.2350124,8.75535657 18.5443157,8.19635433 15.8878502,7.93092421 C15.7677182,7.91941158 15.6475863,7.90917813 15.5274544,7.89958427 Z M15.1599541,9.02014711 C15.1961228,8.90566038 15.2335833,8.78925488 15.2723355,8.66965142 C15.7548008,8.71506236 16.2398496,8.77006716 16.7307112,8.83402622 C18.8239776,9.11032939 20.942433,9.54972817 22.9911344,9.97569555 C25.2691197,10.4470739 27.6239637,10.9363607 29.9497435,11.2011513 C34.3494137,11.7070675 38.4054806,11.4544292 42.3491661,10.4323633 C42.6255987,10.3607291 42.9059066,10.2826991 43.1907355,10.2001919 C43.2036529,10.3229933 43.217862,10.4438759 43.2307794,10.564119 C42.963389,10.6402303 42.6998739,10.712504 42.4415256,10.779661 C38.4539209,11.8145187 34.3532889,12.0690758 29.9084078,11.5580429 C27.5658354,11.2913335 25.2019492,10.8014071 22.9162134,10.3268308 C20.8739707,9.90342181 18.7626199,9.46466262 16.6829168,9.19091781 C16.1707415,9.12376079 15.6630872,9.06619763 15.1599541,9.02014711 Z M14.7672648,10.2705469 C14.8008501,10.162456 14.8363729,10.0454109 14.8744793,9.92196994 C15.4124895,9.99360409 15.9588959,10.0773905 16.5111152,10.1726895 C18.1412925,10.4560281 19.7908458,10.8276303 21.3874378,11.1870803 C24.0975106,11.7978894 26.8999429,12.4291653 29.6804155,12.6434282 C33.724211,12.959386 37.6168727,12.4144547 41.9351631,11.1045731 C42.3511038,10.9772945 42.7799618,10.8410617 43.2436968,10.6862808 C43.2559684,10.8090822 43.2675941,10.9318836 43.2798656,11.0527662 C42.8445489,11.1979533 42.4376504,11.3271506 42.0417318,11.4480333 C37.6782304,12.7726255 33.7410036,13.3213943 29.6519972,13.001599 C26.8456897,12.7860569 24.0303401,12.1509434 21.306704,11.5382155 C19.7146331,11.1787656 18.0696008,10.807803 16.4497575,10.5263831 C15.8800997,10.4291653 15.3194841,10.3434602 14.7672648,10.2705469 Z M14.3849094,11.0943396 C14.3913681,11.0949792 14.406869,11.0937 14.4243075,11.0917813 C15.0902001,11.2069076 15.7735311,11.3361049 16.4768841,11.4870483 C17.7298729,11.756316 18.9996544,12.0741925 20.2261626,12.3805564 C23.282422,13.1455069 26.4433124,13.7940518 29.5951606,13.9200512 C33.2753309,14.0716342 37.011692,13.4102974 41.7045874,11.7742245 C42.2245131,11.5919412 42.7366885,11.4064599 43.2947206,11.1998721 C43.3069922,11.3258714 43.3186178,11.4493124 43.3302435,11.5695555 C42.8051508,11.7652702 42.3188102,11.9417972 41.826011,12.1132075 C38.6347647,13.2248161 34.3629769,14.4758555 29.5809515,14.2788615 C26.390351,14.151583 23.2113762,13.4985609 20.1376783,12.7297729 C18.9124619,12.4227694 17.6465556,12.1068116 16.4006714,11.837544 C15.1224936,11.5644388 13.9134239,11.3552926 12.7547322,11.2049888 C13.7429141,11.1282379 14.3849094,11.0943396 14.3849094,11.0943396 Z M8.0366479,11.7019508 C8.72256241,11.6066517 9.41235214,11.523505 10.0737236,11.4518708 C12.3555842,11.6603774 14.5089166,12.1381516 16.4497575,12.6338343 C17.3914368,12.8775184 18.3453876,13.1455069 19.2689824,13.4032619 C22.6049038,14.3364247 26.0544983,15.3009274 29.5163644,15.31244 L29.6093698,15.31244 C33.9470363,15.31244 37.8513237,13.9123761 41.481762,12.4777742 C41.9125577,12.3070035 42.3427074,12.1349536 42.774149,11.960985 C42.9640349,11.8848737 43.1552126,11.809402 43.3450985,11.7320115 C43.3573701,11.8605692 43.367704,11.9852894 43.3793297,12.1068116 C43.223029,12.1694915 43.0667283,12.2315318 42.9110735,12.2954909 C42.4783403,12.4675408 42.0475446,12.6415094 41.6161031,12.8116406 C37.9268906,14.2705469 33.9618913,15.6981132 29.5150727,15.67189 C26.0034745,15.6610169 22.5299828,14.6888391 19.1701642,13.7492805 C18.248507,13.492165 17.2958479,13.2248161 16.3586898,12.9824113 C13.8727341,12.3466581 11.0380083,11.7428846 8.0366479,11.7019508 Z M4.81633739,12.4509114 C5.54229588,12.3677646 6.2630874,12.3293892 6.98064957,12.3293892 C10.2558591,12.3293892 13.4367715,13.1269587 16.4271521,14.0211065 C17.1078996,14.2264151 17.799627,14.4425967 18.4674571,14.6530221 C22.0326625,15.7710265 25.7179998,16.9267669 29.443381,16.8026863 C33.6234552,16.6677327 37.2797283,15.0457307 41.1497846,13.329709 L41.3726099,13.231212 C42.0359189,12.9376399 42.71925,12.6344739 43.3999975,12.3472977 C43.4109773,12.4771346 43.4219571,12.6037736 43.4309993,12.7252958 C42.7896499,12.998401 42.1463628,13.2830189 41.521806,13.559322 L41.2983348,13.657819 C37.3946932,15.3898305 33.7061266,17.0246242 29.4556526,17.1621362 C25.6682677,17.2894148 21.9519287,16.1228014 18.3576591,14.9945635 C17.6904748,14.7860569 17.0000392,14.5698753 16.3212293,14.3652063 C12.71598,13.2862168 8.83106866,12.3504957 4.8576731,12.8090822 C4.09942109,12.8960665 3.34116908,13.0450911 2.58937577,13.2459226 C2.82382678,13.0105532 3.23912153,12.7975696 3.78036105,12.6063319 C4.12461004,12.5436521 4.47079665,12.490566 4.81633739,12.4509114 Z M43.2469262,13.1199232 C43.3160343,13.0885833 43.3864342,13.0598017 43.4548965,13.029741 C43.4652304,13.1634154 43.4755644,13.290694 43.4839607,13.4090182 C43.4542506,13.4224496 43.4251865,13.4346019 43.3954764,13.4473937 C42.6075144,13.7998081 41.8499082,14.1682123 41.2111423,14.4828909 C40.8016603,14.6837224 40.394116,14.889031 39.9872176,15.0924209 C36.5163093,16.8269907 33.2378705,18.4649824 29.4001077,18.7304125 C25.377626,19.012472 21.4578377,17.6367125 17.6691611,16.3076431 C17.2093013,16.1458267 16.7494415,15.9846498 16.2889358,15.8266709 C12.7030625,14.5960985 8.86852915,13.4269268 4.86929877,13.8081228 C4.01739553,13.8893508 3.17065926,14.0537256 2.34071561,14.2884554 C2.32844407,14.1547809 2.32650646,14.0319795 2.33167343,13.9194116 C3.15322075,13.6910777 3.99091484,13.5305405 4.83377589,13.4505916 C8.90663551,13.0617205 12.7844422,14.243684 16.407776,15.4864087 C16.8695734,15.6450272 17.330725,15.8068436 17.7912306,15.9686601 C21.5450302,17.2862168 25.4260663,18.6479053 29.3749188,18.3716022 C33.1396981,18.1119284 36.3858435,16.4892869 39.8231665,14.7700672 C40.2313567,14.5666773 40.6395468,14.3620083 41.0503205,14.1605373 C41.6910241,13.8452191 42.4525054,13.4742565 43.2469262,13.1199232 Z M43.0131211,13.985929 C43.1778181,13.9091781 43.3431609,13.8356252 43.5091496,13.7607931 C43.5201294,13.9123761 43.5285258,14.0428526 43.5349845,14.1451871 C43.4129149,14.1995523 43.2901995,14.2539175 43.1700676,14.3102015 C42.5216136,14.6165654 41.8363449,14.9670611 41.0147976,15.414135 C40.3773234,15.7607931 39.7340363,16.123441 39.1140006,16.4745763 C36.0693669,18.1969939 32.920748,19.9782539 29.3477922,20.3556124 C25.1186319,20.8065238 21.032209,19.2088264 17.0807731,17.6648545 C16.8075698,17.5580429 16.5337207,17.4505916 16.2598716,17.3450592 C12.4608611,15.8727215 8.73225047,14.5743524 4.88350793,14.8660058 C4.08327433,14.9254877 3.29531227,15.065558 2.52285111,15.2715062 C2.49184932,15.1519028 2.46407689,15.0348577 2.44017968,14.9222897 C3.23007935,14.7112248 4.03806339,14.5685961 4.85508962,14.5071954 C8.78004489,14.2097857 12.5519288,15.5222258 16.3929209,17.0099137 C16.66677,17.1167253 16.9406191,17.2235369 17.2144683,17.3309882 C21.1252144,18.8589703 25.1690098,20.4387592 29.3096858,19.9980812 C32.8070748,19.6283978 35.7826004,17.9449952 38.9338027,16.1630956 C39.5557761,15.8113208 40.1990631,15.4473937 40.8391208,15.0988168 C41.6677727,14.6485449 42.3588542,14.2948513 43.0131211,13.985929 Z M42.7818994,14.8928686 C43.088042,14.7412856 43.3967682,14.5980173 43.7087236,14.4611449 C43.8282097,14.4950432 44.0116369,14.5494084 44.250609,14.6210425 C43.8094794,14.8052446 43.372871,15.0009594 42.9446588,15.2133035 C41.4139456,15.9737768 39.9239223,16.9229293 38.4842768,17.8420211 C35.849125,19.5228654 33.1313018,21.2523185 30.0537287,21.8867925 C29.862551,21.7908539 29.6655605,21.7038695 29.4627572,21.6283978 C32.6869429,21.1064918 35.5332944,19.2951711 38.2866405,17.5394947 C39.7353281,16.6165654 41.2331019,15.6610169 42.7818994,14.8928686 Z M43.0893338,16.3556124 C44.0135745,15.8880716 44.9694629,15.4838503 45.9466651,15.1429485 C46.1320299,15.2024304 46.3244993,15.2631916 46.5227816,15.3277902 C45.4028421,15.6955548 44.3080915,16.1439079 43.2546766,16.6754077 C41.7840294,17.42181 40.3424464,18.3274704 38.947366,19.2056284 C36.612544,20.6741286 34.2150726,22.1778062 31.5831501,22.9920051 C31.4856237,22.8941477 31.3848679,22.8007675 31.2802369,22.709306 C33.9450987,21.9245283 36.3819682,20.3927087 38.752959,18.9024624 C40.1544981,18.0198273 41.6038315,17.1084106 43.0893338,16.3556124 Z M4.87834096,15.6034538 C5.13152221,15.5887432 5.38405759,15.5817077 5.63530123,15.5817077 C9.47629333,15.5829869 13.1532343,17.1768468 16.7184397,18.7201791 C19.5266848,19.9373201 22.4021004,21.181324 25.3414572,21.6207227 C25.1334869,21.6974736 24.9313295,21.7870163 24.7343389,21.8848737 C21.9461158,21.3763991 19.2302302,20.2001919 16.5718271,19.0495683 C12.8135064,17.4211705 8.92213641,15.7384074 4.89900882,15.9622642 C4.20276038,16.0019188 3.50780368,16.1055325 2.82511852,16.2705469 C2.78572042,16.1535018 2.74761405,16.0396546 2.7114453,15.9270867 C3.42577812,15.753118 4.15109073,15.6443876 4.87834096,15.6034538 Z M43.3967682,17.8381836 C44.9778592,17.0252638 46.6228915,16.3882315 48.2982797,15.9283658 C48.4978537,15.9980812 48.6967818,16.0690758 48.8982934,16.1419891 C47.0737091,16.6024944 45.2807725,17.2740646 43.5646945,18.1566997 C42.1625096,18.8832747 40.778409,19.7428846 39.4375818,20.5743524 C37.2293504,21.946914 34.9655741,23.3488967 32.5190165,24.2200192 C32.4583047,24.1132075 32.3937177,24.0083147 32.3265471,23.9059802 C34.766646,23.0489287 37.0342975,21.643748 39.2451123,20.2705469 C40.5911065,19.4346019 41.9816658,18.5698753 43.3967682,17.8381836 Z M43.706786,19.3303486 C45.9460192,18.1528622 48.3053843,17.3143588 50.6854172,16.825072 C50.8895123,16.9075791 51.0897322,16.9907259 51.2847851,17.0745123 C48.760723,17.537576 46.2502242,18.3997442 43.87665,19.6482251 C42.5364686,20.3524145 41.2059753,21.1691717 39.9194012,21.9590662 C37.7292542,23.3041254 35.4867917,24.6792453 33.0809239,25.5785098 C33.0492763,25.4614647 33.0131075,25.3456988 32.9750011,25.2331308 C35.3434084,24.345379 37.560682,22.98433 39.7282235,21.6533419 C41.0199646,20.8602494 42.3556249,20.0409338 43.706786,19.3303486 Z M6.45168159,17.6731692 C6.62219142,17.6667733 6.7914095,17.6642149 6.96127345,17.6642149 C10.5968787,17.6642149 14.0852255,19.0988168 17.4644202,20.4892869 C19.4569308,21.3098817 21.4856101,22.1426287 23.5459371,22.6760473 C23.4374309,22.7694276 23.3308623,22.864087 23.2294606,22.9651423 C21.2253243,22.4259674 19.2592944,21.6162456 17.3242662,20.8212344 C13.8242938,19.3808762 10.2009601,17.8925488 6.46589075,18.0326191 C5.52162802,18.0677966 4.58253225,18.2008315 3.66345848,18.4195715 C3.61566406,18.3082827 3.56722377,18.1957147 3.52072109,18.0850656 C4.48242232,17.8522546 5.46414554,17.7102654 6.45168159,17.6731692 Z M44.016158,20.8353054 C46.9141791,19.2817397 49.918123,18.2724656 52.8897733,17.8253917 C53.0751382,17.9232491 53.2488774,18.0191877 53.4129285,18.1151263 C50.3301884,18.5167893 47.2028833,19.5356572 44.1892513,21.1512632 C42.933679,21.8247522 41.6787525,22.585865 40.4664535,23.3233131 C38.1652168,24.7220979 35.8084352,26.1528622 33.2804979,27.0777103 C33.279852,26.9510713 33.2746851,26.8257115 33.2662888,26.7009914 C35.7218885,25.7850975 38.0257088,24.384394 40.2759217,23.0169492 C41.4933877,22.2769428 42.7515435,21.5119923 44.016158,20.8353054 Z M44.3261759,22.3549728 C47.7014953,20.5103933 51.1775705,19.371922 54.5386808,18.973457 C54.637499,19.0898625 54.7059613,19.2024304 54.7447135,19.3111609 C51.379728,19.685961 47.8900895,20.8180365 44.5012068,22.6696514 C43.3450985,23.301567 42.1844692,24.0019188 41.0600086,24.6779661 C38.4991319,26.2225776 35.8717305,27.8036457 33.0363588,28.7489607 C33.0776946,28.6114487 33.1138633,28.4707387 33.1448651,28.3293892 C35.8601048,27.3879117 38.3964385,25.8631276 40.8720602,24.3716022 C41.9984584,23.6917173 43.1636089,22.9900863 44.3261759,22.3549728 Z M8.02695984,19.7633515 C8.12061107,19.7614327 8.2142623,19.7607931 8.30855939,19.7607931 C11.727798,19.7607931 15.0230295,21.0393348 18.2110465,22.275024 C19.6267947,22.8237928 21.0625649,23.3795971 22.513836,23.8228334 C22.444082,23.9258075 22.3775573,24.0313399 22.314262,24.1394308 C20.8843047,23.696834 19.4724317,23.149984 18.078643,22.6101695 C14.8363729,21.3520947 11.4810755,20.053086 8.03406441,20.1228014 C6.88829008,20.1458267 5.74380748,20.2833387 4.62193036,20.518708 C4.5683231,20.4086984 4.51536172,20.2967701 4.46240033,20.1848417 C5.63400949,19.932843 6.82886999,19.7876559 8.02695984,19.7633515 Z M44.6368396,23.8899904 C47.2719914,22.4227694 50.7751932,20.8883914 54.6407284,20.2942117 C54.5974551,20.4163735 54.5464313,20.5462104 54.4863653,20.6811641 C50.7558171,21.290694 47.3714555,22.779661 44.8157457,24.2033898 C43.7752483,24.782859 42.7257087,25.4115766 41.7110461,26.0191877 C38.6593078,27.8464982 35.5190852,29.7224177 32.077887,30.6165654 C32.1902684,30.4707387 32.2968371,30.3178766 32.3943635,30.1611768 C35.6308208,29.2388871 38.617972,27.4512312 41.5237436,25.7115446 C42.5403438,25.1013751 43.5924669,24.4720179 44.6368396,23.8899904 Z M44.9455657,25.3725616 C48.0896635,23.5951391 51.0923156,22.3818356 53.9360836,21.7364886 C53.8527663,21.8771986 53.7662197,22.0211065 53.6745061,22.1662936 C50.9683085,22.8212344 48.112269,23.9955229 45.1257636,25.6840422 C44.2447962,26.1874001 43.3502655,26.7201791 42.4854448,27.2376079 C38.6702876,29.5171091 34.7227268,31.8746402 30.2771999,32.4912056 C29.9678279,32.5340582 29.6597477,32.5634794 29.3516674,32.5852255 C29.7127091,32.4585865 30.0550204,32.2993284 30.3805392,32.1106492 C34.6910792,31.4704189 38.5579061,29.164055 42.2981424,26.9299648 C43.1649006,26.4118964 44.0607231,25.8771986 44.9455657,25.3725616 Z M9.60094634,21.8631276 L9.65067837,21.8631276 C12.8567797,21.8631276 15.9576042,22.98433 18.9563811,24.0677966 C19.9167906,24.4157339 20.8868881,24.7649504 21.8640903,25.0789894 C21.8234004,25.1915574 21.7852941,25.3054045 21.7510629,25.4198913 C20.7686938,25.1045731 19.7953669,24.754717 18.8310822,24.4055005 C15.8626612,23.3322673 12.7934844,22.2225776 9.65067837,22.2225776 C9.63517748,22.2225776 9.61838485,22.2225776 9.60288395,22.2225776 C8.27562,22.2276943 6.94900191,22.3498561 5.64563516,22.5762712 C5.58944442,22.4675408 5.53260782,22.3568916 5.47512534,22.2430445 C6.83403695,22 8.21684578,21.8682443 9.60094634,21.8631276 Z M45.2458955,26.7105852 C47.3585381,25.4908858 50.0408384,24.0863447 53.0170098,23.1634154 C52.9059201,23.3258714 52.7896634,23.4889671 52.6734067,23.6527023 C49.9103725,24.5615606 47.4153747,25.8740006 45.4286769,27.0207867 C44.7078854,27.4397186 43.9735306,27.8771986 43.263073,28.3012472 C39.2438206,30.7009914 35.0857061,33.181324 30.4076658,33.8292293 C27.538063,34.2264151 24.6516675,33.7371282 21.8595692,33.2644707 C20.4128192,33.0188679 18.9189206,32.7662296 17.4418147,32.6389511 C11.752987,32.1490246 6.0131355,32.3434602 0.467691051,33.1973137 C0.531632234,33.0693956 0.601386252,32.9370003 0.676953105,32.8033259 C6.16943617,31.9788935 11.8459923,31.795331 17.4734623,32.2814199 C18.9641315,32.4086984 20.4677182,32.6645347 21.9209269,32.9094979 C24.6858987,33.3783179 27.5438758,33.862488 30.3585796,33.4723377 C34.9623448,32.8353054 39.0868741,30.3741605 43.0757705,27.9936041 C43.7875198,27.5695555 44.5218746,27.1301567 45.2458955,26.7105852 Z M6.54662456,24.2839783 C7.96495627,24.0799488 9.39878886,23.9731372 10.8261628,23.9731372 C10.9430653,23.9731372 11.0606138,23.9737768 11.1775163,23.975056 C14.1000805,24.0127918 16.9419109,24.9574672 19.69009,25.8714423 C20.3017294,26.0754717 20.9178899,26.2788615 21.5379256,26.4752159 C21.5256541,26.5967381 21.5166119,26.7195395 21.511445,26.8442597 C20.8623451,26.6389511 20.2164745,26.4253278 19.5744792,26.2117045 C16.8527808,25.3073233 14.0374311,24.3722418 11.1729952,24.3351455 C9.69072235,24.3153182 8.20069901,24.4138152 6.72940593,24.6191238 C6.68484086,24.5372562 6.62219142,24.4240486 6.54662456,24.2839783 Z M45.5468712,28.0582028 C47.2519694,27.0521266 49.4279073,25.8305085 51.7730632,24.8660058 C51.6225753,25.0649185 51.469504,25.2612728 51.3183703,25.4550688 C49.3620285,26.3012472 47.4857745,27.3322673 45.7328819,28.367125 C45.2000387,28.6805245 44.6671955,28.9996802 44.1343523,29.3188359 C39.8819407,31.8631276 35.4848541,34.4931244 30.5394233,35.1742885 C27.3798247,35.6085705 24.1537013,35.2145827 21.032209,34.832747 C20.3656706,34.7508794 19.6771726,34.6677327 19.0009462,34.5929005 C12.6552681,33.8925488 6.29602679,33.9213303 8.07805992e-05,34.6645347 C-0.00121096048,34.5551647 0.0129981914,34.4323633 0.0420623656,34.2986888 C6.33800838,33.5612408 12.695958,33.5362968 19.0403443,34.236009 C19.7191542,34.3108411 20.4095898,34.3946274 21.0774199,34.476495 C24.1743692,34.8544931 27.3778871,35.2465622 30.4896913,34.8180365 C35.3608469,34.1471059 39.72564,31.5362968 43.946404,29.0118324 C44.4798931,28.6913975 45.0133821,28.3728814 45.5468712,28.0582028 Z M5.21871474,26.6248801 C7.32166921,26.2699073 9.47564746,26.0850656 11.6386679,26.0850656 C12.0100435,26.0850656 12.3820649,26.0908219 12.7540863,26.1023345 C15.3672785,26.1790854 17.9268635,26.945315 20.4024852,27.6866006 C20.7945287,27.8055644 21.1891556,27.9232491 21.5850742,28.0383754 C21.6076797,28.1726895 21.6348062,28.3050847 21.665808,28.4362008 C21.2085317,28.303166 20.7512553,28.1682123 20.2972083,28.0313399 C17.8448379,27.2970899 15.3078584,26.5366166 12.7424606,26.4611449 C10.0879327,26.3837544 7.43469655,26.5877838 4.8621942,27.0521266 C4.98426373,26.9050208 5.10245804,26.7617525 5.21871474,26.6248801 Z M44.3119667,29.4307643 C46.0403163,28.4400384 48.256944,27.2337704 50.6460191,26.2993284 C50.4845515,26.5014391 50.3250214,26.6958746 50.1693666,26.8858331 C48.1800854,27.7083467 46.2734755,28.7220979 44.4934563,29.7409658 C43.9373618,30.0594819 43.382559,30.3831148 42.8245269,30.7080269 C38.6412234,33.1423089 34.3158284,35.6590982 29.4840709,36.3396226 C28.9505818,36.4144547 28.3931955,36.4694595 27.8248295,36.5020787 C25.1476961,36.65622 22.4253518,36.3197953 19.7927834,35.9929645 C19.2302302,35.9232491 18.6689687,35.8535337 18.1096448,35.7895747 C14.9287324,35.4205309 11.8195116,35.2177806 8.86788328,35.1851615 C6.01894833,35.1525424 3.24493437,35.2798209 0.559404667,35.5631596 C0.426355336,35.4525104 0.315265604,35.3431404 0.22742721,35.2356892 C3.01758794,34.9299648 5.90333751,34.7918132 8.87240437,34.825072 C11.8363043,34.8576911 14.9584425,35.0623601 18.1509805,35.4320435 C18.7128879,35.4966421 19.2747953,35.5663575 19.8373485,35.6360729 C22.4544159,35.960985 25.1606135,36.2961305 27.8035157,36.1426287 C28.3615479,36.1100096 28.9092461,36.056284 29.4330471,35.9827311 C34.1937589,35.3137192 38.4881521,32.8148385 42.6404538,30.3978254 C43.19784,30.0735529 43.7558722,29.7492805 44.3119667,29.4307643 Z M43.0764164,30.8020467 C45.5113483,29.449952 47.5968643,28.4835305 49.4078853,27.7985289 C49.2393131,27.9974416 49.0817206,28.1829229 48.9357539,28.3524145 C46.9458268,29.1429485 45.0353417,30.126639 43.2546766,31.1160857 C42.674039,31.439079 42.0927555,31.767189 41.5101803,32.0972178 C37.3972767,34.4214902 33.1442192,36.8269907 28.4280726,37.5043172 C27.9003963,37.5804285 27.3507605,37.6354333 26.7940201,37.6712504 C24.0342153,37.8433003 21.231783,37.4896067 18.5204185,37.1480652 C18.0851017,37.0924209 17.6510767,37.0380556 17.2164059,36.9856092 C13.8843598,36.5801087 10.9081883,36.3492165 8.1199652,36.2795011 C5.97696675,36.2244963 3.90372232,36.2699073 1.904753,36.4138152 C1.70388726,36.3082827 1.51400132,36.2027502 1.33832454,36.098497 C3.51555412,35.9213303 5.7806221,35.8592901 8.12965325,35.918772 C10.9301479,35.9904061 13.9172992,36.221938 17.2609709,36.6287176 C17.6956418,36.6811641 18.1303127,36.7368084 18.5662753,36.7911736 C21.2608472,37.1314359 24.0458409,37.4832107 26.7707688,37.3118004 C27.318467,37.2772626 27.8577689,37.2228973 28.3764029,37.1487048 C33.0247332,36.4809722 37.2474348,34.0933802 41.3306283,31.7844579 C41.9138494,31.4550688 42.4951329,31.1256796 43.0764164,30.8020467 Z M3.29402053,29.0009594 C6.15587289,28.4675408 9.10879299,28.1925168 12.0817351,28.1925168 C12.8296532,28.1925168 13.5801547,28.2097857 14.3306563,28.2449632 C16.6209132,28.3524145 18.882106,28.9440358 21.0690236,29.5171091 C21.4397533,29.6143268 21.8117748,29.7115446 22.1857338,29.8068436 C22.2658217,29.9558682 22.3523684,30.1016949 22.4447279,30.2430445 C21.9519287,30.1196035 21.4623588,29.9923249 20.9760183,29.8650464 C18.807185,29.2970899 16.5647225,28.7099456 14.3145095,28.6044132 C10.4761009,28.423409 6.64156753,28.7099456 2.96656417,29.4282059 C3.07571629,29.2855772 3.18486841,29.1423089 3.29402053,29.0009594 Z M41.8421578,32.1752478 C43.7591015,31.1448673 45.8252414,30.1893188 47.9830949,29.4787336 C48.0063462,29.5215862 48.0677039,29.632875 48.1587716,29.8004477 C46.0028558,30.5052766 43.9341325,31.4595459 42.015897,32.490566 C41.4074869,32.8180365 40.7997227,33.1512632 40.1906668,33.4857691 C36.1507466,35.7019508 31.9726101,37.9942437 27.373366,38.6690118 C26.8508567,38.7451231 26.3102631,38.8026863 25.7638566,38.8404221 C22.9091088,39.0329389 20.0104418,38.6581388 17.2093013,38.2948513 C16.9134926,38.2571154 16.6196215,38.2193796 16.3251045,38.1810042 C12.8038183,37.7326511 9.95940449,37.4768148 7.37204711,37.3732012 C6.19333338,37.326511 5.04303795,37.3149984 3.91922321,37.3348257 C3.64666584,37.2235369 3.37927544,37.1090502 3.1215731,36.9952031 C4.50179844,36.9517109 5.92271362,36.9549089 7.38625626,37.0137512 C9.98523931,37.1180045 12.8399871,37.3757595 16.3716072,37.8247522 C16.66677,37.862488 16.961287,37.9002239 17.2551581,37.9385993 C20.0407977,38.2986888 22.9207345,38.6715702 25.7393135,38.4809722 C26.275386,38.4451551 26.8075834,38.3888711 27.3204046,38.3133994 C31.8537699,37.6475855 36.0021964,35.3725616 40.01499,33.1710905 C40.6240459,32.835945 41.2331019,32.5027183 41.8421578,32.1752478 Z M1.73876427,31.1160857 C5.11925067,30.5180684 8.60307636,30.2110649 12.0862562,30.2110649 C13.3605587,30.2110649 14.6367989,30.2513591 15.9052887,30.3357851 C17.8396709,30.4617845 19.7669486,30.8826351 21.6315769,31.290694 C22.3736821,31.4518708 23.1216002,31.6162456 23.8740394,31.7614327 C24.140138,31.9571474 24.4230293,32.1304765 24.7201298,32.2814199 C23.6550893,32.1004157 22.5971533,31.8701631 21.5534265,31.6424688 C19.7023616,31.2376079 17.7886472,30.818676 15.8813915,30.6939559 C11.0554468,30.3767189 6.15135179,30.6715702 1.45845646,31.5305405 C1.54887833,31.3930285 1.64252956,31.2548769 1.73876427,31.1160857 Z M40.6078992,33.5471698 C43.0144128,32.2967701 45.6566692,31.0585225 48.4190575,30.2820595 C48.4733106,30.3824752 48.5314389,30.4912056 48.5921508,30.6076111 C45.8329918,31.3744803 43.1849226,32.6133674 40.7764714,33.865686 C40.1389972,34.1976335 39.5008771,34.5366166 38.8621111,34.8755996 C34.8971119,36.9830508 30.7977716,39.1621362 26.3186594,39.834346 C25.8019629,39.9117365 25.2697656,39.9705788 24.7343389,40.0095939 C21.7678556,40.2257755 18.7593906,39.8228334 15.8516814,39.4339623 L15.4331573,39.3776783 C12.7379396,39.0182283 9.86252391,38.6670931 7.02715224,38.4931244 C6.63640057,38.3600895 6.2366067,38.2193796 5.8355211,38.0735529 C6.10420324,38.0837864 6.37223952,38.0940198 6.64479689,38.1080908 C9.62290594,38.2724656 12.6526846,38.6440678 15.4815976,39.0220659 L15.9001217,39.0777103 C18.7903924,39.464023 21.7775436,39.8644068 24.7078582,39.6507835 C25.2335969,39.6130476 25.7573979,39.5542053 26.2637604,39.4787336 C30.680869,38.8154781 34.751791,36.6517429 38.6903095,34.5590022 C39.3303673,34.21874 39.9691332,33.8803965 40.6078992,33.5471698 Z M39.3736406,34.920371 C42.3020176,33.4505916 45.5843317,32.0025584 48.9984033,31.3815158 C49.0545941,31.4902462 49.1127224,31.6008954 49.1714967,31.7166613 C45.7606543,32.3185161 42.4699439,33.7697474 39.5370458,35.2408059 C38.8679239,35.5772306 38.1988021,35.9200512 37.5290343,36.2647905 C33.6408937,38.2641509 29.6203496,40.3306684 25.262661,40.9996802 C24.7524233,41.0777103 24.2286223,41.1378318 23.7035296,41.1787656 C20.6065803,41.4205309 17.5225485,41.1045731 14.5405642,40.6881996 L14.441746,40.673489 C13.3928523,40.5283019 12.3303952,40.3792773 11.2621254,40.2404861 C11.2485621,40.0217461 11.2408116,39.8989447 11.2408116,39.8989447 L11.238874,39.8752798 C12.3323329,40.0166294 13.419333,40.1675728 14.4934157,40.317237 L14.591588,40.3319476 C17.5541962,40.7451231 20.6175601,41.0585225 23.6751113,40.8205948 C24.1905159,40.779661 24.7059206,40.7201791 25.2071162,40.6434282 C29.5066764,39.9840102 33.499448,37.9315638 37.361108,35.9462744 C38.0328133,35.6008954 38.7025811,35.2561561 39.3736406,34.920371 Z M38.1387361,36.2922929 C41.606415,34.6165654 45.5752895,32.9708986 49.6655876,32.695235 C49.7230701,32.8103614 49.7805526,32.9267669 49.8393268,33.0450911 C45.7561332,33.2868564 41.7743414,34.9350815 38.2982661,36.6152862 C37.5942672,36.956188 36.8902684,37.304765 36.1856236,37.6552606 C32.3788626,39.545251 28.4422817,41.4992005 24.2073086,42.1637352 C23.7015919,42.2430445 23.1848955,42.3057243 22.6733661,42.3479373 C19.6946111,42.5967381 16.7048764,42.2161816 13.6492629,41.770387 C13.2016746,41.7045091 12.7534404,41.6386313 12.3058522,41.5714743 C11.9880839,41.5254237 11.6690238,41.4787336 11.348672,41.4314039 C11.3376922,41.3009274 11.3292959,41.1794052 11.3202537,41.0629997 C11.6677321,41.1148065 12.0145645,41.1659738 12.3594594,41.2165014 C12.8064018,41.2830189 13.254636,41.3488967 13.7015784,41.414135 C16.7358782,41.8573713 19.7023616,42.2353694 22.643656,41.9897665 C23.1467892,41.9475536 23.6537975,41.8867925 24.1498261,41.8081228 C28.3286085,41.1525424 32.2406463,39.2120243 36.0228642,37.3335465 C36.7281548,36.9830508 37.4334455,36.6331948 38.1387361,36.2922929 Z M36.9031858,37.6648545 C40.6317964,35.9334826 44.9436281,34.2404861 49.3549239,34.2404861 C49.7127362,34.2411257 50.0705484,34.2513591 50.4302983,34.2743844 C50.4877808,34.398465 50.5452633,34.5225456 50.6020999,34.6466262 C45.8342836,34.2795011 41.1013443,36.112568 37.0581947,37.9897665 C36.3154436,38.3351455 35.5604209,38.6971538 34.8305872,39.0457307 C31.1084353,40.8269907 27.2596927,42.6690118 23.152602,43.3284298 C22.6520523,43.4090182 22.145044,43.4716981 21.6438484,43.5164695 C18.5688588,43.7908539 15.4441371,43.3770387 12.7566698,42.9657819 C12.32652,42.9005437 11.8957244,42.8314679 11.4642828,42.7636713 C11.4526572,42.6370323 11.4410315,42.5148705 11.4300517,42.3933483 C11.8905574,42.4669012 12.351709,42.5410937 12.8122147,42.6114487 C15.4783682,43.0169492 18.5753175,43.4294851 21.6115549,43.1589383 C22.1037082,43.1148065 22.603612,43.0527662 23.0944736,42.9740966 C27.148603,42.3223537 30.9740942,40.4924848 34.6717031,38.7220979 C35.4028285,38.3722418 36.1591429,38.010873 36.9031858,37.6648545 Z M35.669573,39.0367765 C39.3206792,37.4096578 43.5362762,35.8241126 47.8513373,35.8241126 C48.621215,35.8241126 49.394322,35.8740006 50.1687208,35.9846498 C50.5413881,36.0377358 50.9153471,36.106172 51.280264,36.1861209 C51.3377464,36.3223537 51.3939372,36.4592261 51.4481903,36.5948193 C51.3868326,36.5801087 51.3261208,36.5628398 51.2641172,36.5494084 C50.8875747,36.465622 50.5013441,36.3946274 50.117697,36.3402622 C45.1018664,35.6277582 40.0744101,37.4685002 35.8187691,39.3648865 C35.0340364,39.714103 34.2363863,40.081228 33.4652169,40.43748 C29.8315492,42.1106492 26.0732286,43.8394627 22.0966037,44.493764 C21.6018668,44.574992 21.1032548,44.6395907 20.6136849,44.6856412 C17.6019906,44.9721778 14.6284026,44.603134 11.8653685,44.1618164 C11.7781759,44.1490246 11.6903375,44.1336744 11.6037909,44.120243 C11.5889359,43.9948833 11.5760185,43.8714423 11.563101,43.7492805 C11.683233,43.7684682 11.802719,43.7876559 11.9228509,43.8074832 C14.6632796,44.2449632 17.6084493,44.6101695 20.5794538,44.3287496 C21.0606273,44.2826991 21.5508431,44.2200192 22.0378294,44.1394308 C25.9647223,43.4934442 29.6997916,41.7742245 33.3108538,40.1106492 C34.083315,39.7556764 34.8835486,39.3879117 35.669573,39.0367765 Z M34.4359603,40.409338 C38.044439,38.8711225 42.1560509,37.4058203 46.3393543,37.4058203 C47.5329231,37.4058203 48.7329506,37.5247841 49.9284569,37.795331 C50.6737915,37.9654621 51.4023335,38.1931564 52.1192498,38.4521906 C52.1644607,38.6005756 52.2057964,38.7432043 52.2419652,38.8819955 C51.4572325,38.5884234 50.6595824,38.331308 49.8477231,38.1464663 C44.5657938,36.9497921 39.1637327,38.7854173 34.5793436,40.7400064 C33.7468164,41.0937 32.9020178,41.4678606 32.0836998,41.8292293 C28.0980327,43.5913016 23.9760869,45.4128558 19.5835214,45.8554525 C16.9748503,46.1176847 14.3545535,45.8823153 11.7671961,45.4838503 C11.7504035,45.3591302 11.7355485,45.2369683 11.7200476,45.1122482 C14.317093,45.5164695 16.9432026,45.7601535 19.5467068,45.4979213 C23.881144,45.0610809 27.9753173,43.2516789 31.9357955,41.5011193 C32.7547593,41.139111 33.6008497,40.7649504 34.4359603,40.409338 Z M38.8201295,41.0770707 C41.3261072,40.285897 44.4566417,39.4550688 47.6872862,39.4550688 C48.5398353,39.4550688 49.4001348,39.5132715 50.2584968,39.6450272 C51.0031855,39.7588743 51.7356027,39.929645 52.4570401,40.1285577 C52.4615612,40.2641509 52.4551025,40.3875919 52.437664,40.4969619 C51.7020174,40.2922929 50.9573287,40.1164055 50.202306,40 C46.1707821,39.3802366 42.0611079,40.4323633 38.9299275,41.4192517 C37.7615477,41.7876559 36.522768,42.2142629 35.0333906,42.7636713 C34.4850465,42.9645027 33.9373483,43.1704509 33.3890042,43.3757595 C30.7958339,44.3460185 28.1135336,45.3501759 25.4015232,46.0582028 C23.4781207,46.560921 21.7291033,46.8647266 20.054361,46.9868884 C17.3384754,47.1858011 14.6045054,46.9120563 11.9112253,46.5091142 C11.8931409,46.3850336 11.8744106,46.260953 11.8563263,46.1362328 C14.5651073,46.5455708 17.3100571,46.8269907 20.0272345,46.6287176 C21.6787254,46.5071954 23.407075,46.207867 25.3091637,45.7102654 C28.0030897,45.0073553 30.6763479,44.0070355 33.2611218,43.0393348 C33.8094659,42.8340262 34.35781,42.6287176 34.9067999,42.4253278 C36.4019902,41.8752798 37.6459369,41.4467541 38.8201295,41.0770707 Z M39.296782,43.2670291 C42.3233313,42.3773585 45.7793846,41.4557083 49.1953939,41.4569875 C49.6604207,41.4569875 50.1254474,41.4729773 50.5872449,41.5100736 C50.7829436,41.5254237 50.9754131,41.5465302 51.1678825,41.5676367 C50.9043673,41.6680524 50.6046834,41.7620723 50.2811022,41.8522546 C46.5673466,41.6226415 42.7237711,42.6351135 39.4001213,43.6117685 C38.0360427,44.010873 36.6655054,44.4355612 35.4887293,44.8007675 C32.3749874,45.7748641 29.1527393,46.7822194 25.8432987,47.4467541 C23.9179586,47.8337064 22.1786292,48.0594819 20.5245548,48.1336744 C17.7117886,48.260953 14.8718958,47.9552287 12.082381,47.5586824 C12.0604214,47.4352414 12.0391076,47.3105213 12.0177939,47.1851615 C14.8286225,47.5881036 17.6878914,47.9021426 20.508408,47.7748641 C22.1437522,47.7006716 23.8643513,47.478094 25.7709612,47.0943396 C29.0616716,46.4336425 32.2742316,45.4294851 35.380223,44.4585865 C36.5582909,44.0914615 37.9301199,43.6674129 39.296782,43.2670291 Z M35.8549379,46.5129517 C36.9529178,46.2334506 38.124527,45.9251679 39.5183156,45.5478094 C39.4750423,45.6808443 39.4304772,45.8164375 39.3846204,45.9565078 C38.0883582,46.3070035 36.9839196,46.5973777 35.9447139,46.8615286 C32.287149,47.7985289 29.3975242,48.4029421 26.6377194,48.8052446 C26.5085453,48.698433 26.3845382,48.5941797 26.2676356,48.4956828 C29.109466,48.095299 32.0681989,47.4832107 35.8549379,46.5129517 Z M36.3309445,48.5916214 C37.1001763,48.4393988 37.8732833,48.2724656 38.6438069,48.0972178 C38.5940748,48.2308922 38.5456345,48.3645667 38.4952566,48.5001599 C37.7977165,48.6568596 37.0988845,48.8065238 36.4019902,48.9433962 C33.7080642,49.4838503 31.0406189,49.8791174 28.2930856,50.148385 C28.1561611,50.0402942 28.0224659,49.9334826 27.8900624,49.8273105 C30.7551441,49.5586824 33.5291581,49.153182 36.3309445,48.5916214 Z M12.291643,48.6402303 C12.2651623,48.518708 12.2393275,48.3933483 12.2154303,48.2679885 C15.1115138,48.6543012 18.0734761,48.9932843 20.9915192,48.9433962 C21.4397533,48.9363607 21.8970297,48.9184522 22.3639941,48.892229 C22.1056458,49.0207867 21.8343802,49.1538216 21.5553641,49.2894148 C21.3680617,49.2951711 21.182051,49.3002878 20.9966861,49.3028462 C18.0934981,49.3514551 15.1618917,49.0220659 12.291643,48.6402303 Z M12.5654921,49.7627119 C12.531261,49.6411896 12.4989675,49.5151903 12.4653822,49.3879117 C14.8964389,49.6814839 17.3862698,49.9699392 19.8560788,50.0850656 C19.6132314,50.1944356 19.3690924,50.3025264 19.1255992,50.4086984 C16.9270559,50.2782219 14.7239915,50.0217461 12.5654921,49.7627119 Z M12.9562438,50.8903102 C12.9045741,50.7726255 12.8535504,50.6472657 12.8044642,50.5123121 C13.1241701,50.54685 13.443876,50.5807483 13.7616444,50.6152862 C15.0449891,50.7534378 16.3490017,50.8935082 17.6575354,51.0150304 C17.3940203,51.1167253 17.1350262,51.2126639 16.8831367,51.3022066 C15.8213255,51.1979533 14.7646813,51.0853854 13.7228921,50.9728174 C13.4684191,50.945315 13.2120085,50.9184522 12.9562438,50.8903102 Z M36.8056593,50.6587784 C37.1040515,50.6159258 37.3998602,50.5698753 37.6943772,50.5225456 C37.6394782,50.6543012 37.5826416,50.7841382 37.5251591,50.9120563 C37.3036255,50.9465942 37.0827378,50.9817717 36.8579748,51.0143908 C34.8247744,51.3086025 32.6985686,51.5017589 30.2126129,51.6143268 C30.0595415,51.5017589 29.9064702,51.3885513 29.7533989,51.2740646 C32.4195525,51.1653342 34.6639526,50.9683403 36.8056593,50.6587784 Z M13.6253657,51.8081228 C13.5110466,51.7460825 13.4018945,51.6418292 13.2972634,51.5023985 C14.0516402,51.5714743 14.8027877,51.6443876 15.5481223,51.7179405 C14.6787805,51.9430764 13.9870532,52.0063959 13.6253657,51.8081228 Z M31.8350396,52.7425648 C33.4658628,52.7630317 35.0818308,52.7336105 36.6881109,52.6146466 C36.6138358,52.7457627 36.5402065,52.8724017 36.4672232,52.9920051 C35.1212289,53.0841062 33.7694219,53.1167253 32.4098644,53.1090502 C32.222562,52.9932843 32.0300925,52.8698433 31.8350396,52.7425648 Z M34.1020452,54 C33.9832051,53.9513911 33.8598438,53.8976655 33.7319614,53.837544 C34.4017292,53.8803965 35.0714969,53.9110969 35.7412647,53.9264471 C35.7128464,53.9520307 35.6850739,53.9763351 35.6573015,54 L34.1020452,54 Z M127.112828,47.8002558 C126.879669,47.8424688 126.096874,47.9358491 125.201697,47.9358491 C123.41199,47.9358491 123.007675,47.2713144 123.007675,46.5556124 C123.007675,45.6256476 123.548915,45.1401983 125.071877,45.1401983 C125.511715,45.1401983 125.932823,45.1740966 126.131751,45.1996802 C126.131751,44.3989127 125.58922,44.2025584 124.814175,44.2025584 C124.159908,44.2025584 123.763989,44.3989127 123.634815,44.5006076 C123.565707,44.4411257 123.402302,44.2793092 123.402302,44.0490566 C123.402302,43.7254237 123.703923,43.4184202 124.830968,43.4184202 C126.173732,43.4184202 127.112828,43.9038695 127.112828,45.2335785 L127.112828,47.8002558 Z M126.139501,45.9077071 C126.027766,45.8821234 125.735832,45.8226415 125.1074,45.8226415 C124.323959,45.8226415 123.988106,46.0433003 123.988106,46.5466581 C123.988106,46.9643108 124.254851,47.2284618 125.201697,47.2284618 C125.72679,47.2284618 126.036808,47.1772945 126.139501,47.1517109 L126.139501,45.9077071 Z M128.562226,41.5286217 C128.766967,41.5286217 128.961374,41.6079309 129.018857,41.6303166 L129.018857,47.3636073 C129.018857,47.6693316 128.82445,47.8157979 128.493764,47.8157979 C128.287085,47.8157979 128.093324,47.7480013 128.037133,47.7256156 L128.037133,41.9808123 C128.037133,41.6757275 128.230249,41.5286217 128.562226,41.5286217 Z M122.082724,45.0569875 L122.082724,47.3633515 C122.082724,47.6690758 121.888963,47.8155421 121.558277,47.8155421 C121.352244,47.8155421 121.158483,47.748385 121.101001,47.7259994 L121.101001,45.3850975 C121.101001,44.6047969 120.724458,44.2990726 120.107652,44.2990726 C119.525076,44.2990726 119.080072,44.6495683 119.080072,45.4867925 L119.080072,47.3633515 C119.080072,47.6690758 118.885665,47.8155421 118.554333,47.8155421 C118.348946,47.8155421 118.155185,47.748385 118.097703,47.7259994 L118.097703,45.4867925 C118.097703,44.6495683 117.652698,44.2990726 117.070123,44.2990726 C116.475922,44.2990726 116.065794,44.6163096 116.065794,45.3966102 L116.065794,47.3633515 C116.065794,47.6690758 115.871387,47.8155421 115.540055,47.8155421 C115.334023,47.8155421 115.140261,47.748385 115.082779,47.7259994 L115.082779,45.0685002 C115.082779,44.3220979 115.472239,43.8244963 116.065794,43.5872082 C116.338997,43.473361 116.647077,43.4170771 116.979055,43.4170771 C117.41308,43.4170771 117.790268,43.5078989 118.097703,43.6997761 C118.303089,43.8244963 118.474245,43.9939878 118.611816,44.1973777 C118.737114,44.0048609 118.89729,43.8462424 119.080072,43.7228014 C119.388152,43.5194116 119.77632,43.4170771 120.210991,43.4170771 C120.530697,43.4170771 120.838131,43.473361 121.101001,43.5872082 C121.694556,43.8021106 122.082724,44.2990726 122.082724,45.0569875 Z M130.54337,41.5286217 C130.748756,41.5286217 130.943163,41.6079309 131,41.6303166 L131,47.3636073 C131,47.6693316 130.806239,47.8157979 130.474907,47.8157979 C130.268875,47.8157979 130.075113,47.7480013 130.018277,47.7256156 L130.018277,41.9808123 C130.018277,41.6757275 130.212038,41.5286217 130.54337,41.5286217 Z" id="Combined-Shape"></path>
            </g>
        </g>
    </g>
</svg>