<svg width="123" height="36" viewBox="0 0 123 36" fill="none" xmlns="http://www.w3.org/2000/svg">
<path d="M28.2549 15.2316V25.3116C27.4149 25.4516 26.5749 25.5223 25.7349 25.5223C24.8949 25.5223 24.0549 25.4516 23.2149 25.3116V16.3516C23.2149 14.3566 22.2699 13.3066 20.3799 13.3066C19.0849 13.3066 18.2799 13.7962 17.6849 14.2166C17.7199 14.5666 17.7549 14.8816 17.7549 15.2316V25.3116C16.9149 25.4516 16.0749 25.5223 15.2349 25.5223C14.3949 25.5223 13.5549 25.4516 12.7499 25.3116V16.3516C12.7499 14.3566 11.7699 13.3066 9.87991 13.3066C8.75991 13.3066 7.88491 13.6212 7.28991 13.9712V25.3116C6.44991 25.4516 5.60991 25.5223 4.76991 25.5223C3.92991 25.5223 3.12491 25.4516 2.28491 25.3116V11.4166C3.33491 10.4366 6.34491 8.75659 10.2999 8.75659C12.5749 8.75659 14.3249 9.31659 15.5149 10.2616C16.8099 9.45659 18.6649 8.75659 20.8349 8.75659C25.8399 8.75659 28.2549 11.4866 28.2549 15.2316Z" fill="#0072CE"/>
<path d="M46.0693 15.8962V24.2966C43.6893 25.2762 40.8893 25.8716 37.9843 25.8716C33.3993 25.8716 30.7393 24.1216 30.7393 20.6216C30.7393 17.2612 33.6443 15.5112 37.7393 15.5462C39.0343 15.5816 40.1193 15.7212 41.0993 16.0362V15.4062C41.0993 14.0062 40.1543 13.0262 37.7743 13.0262C35.8843 13.0262 34.2743 13.7612 33.4343 14.4262C32.3493 13.8312 31.5093 12.7112 31.2643 11.2062C32.1743 10.4012 34.6943 8.86121 38.2293 8.86121C42.8493 8.86121 46.0693 10.8912 46.0693 15.8962ZM38.6493 22.3719C39.4543 22.3719 40.2593 22.2319 41.0643 21.9862V19.0469C40.2593 18.8012 39.3493 18.6612 38.2993 18.6612C36.7243 18.6612 35.7443 19.1862 35.7443 20.3762C35.7443 21.5662 36.7243 22.3719 38.6493 22.3719Z" fill="#0072CE"/>
<path d="M64.7597 9.63143C63.3597 19.8514 59.4747 27.3764 52.2297 32.5564C50.6897 32.0314 49.6747 30.5264 49.2197 29.0914C51.0047 27.6564 52.5797 26.2221 53.5947 24.8221C50.3047 19.7471 48.8347 15.3714 47.5747 9.59643C48.2747 9.42143 49.8497 9.21143 51.2497 9.21143C51.8447 9.21143 52.5797 9.24643 53.1397 9.31643C53.7347 13.0268 54.8547 17.0164 56.2547 20.2364C56.4297 20.6221 56.5347 20.9014 56.6047 21.1471C56.6747 20.7971 56.7797 20.4821 56.8847 20.2364C58.2847 16.9814 59.0547 13.0614 59.5097 9.31643C60.1397 9.24643 60.8747 9.21143 61.5047 9.21143C62.6944 9.24643 63.8497 9.38643 64.7597 9.63143Z" fill="#0072CE"/>
<path d="M96.9947 9.28114C96.9597 10.9261 96.5054 12.5011 95.5597 13.6208C94.965 13.4458 94.3347 13.3761 93.6347 13.3761C92.5847 13.3761 91.7097 13.5861 91.1847 13.8311V25.3111C90.3797 25.4511 89.5047 25.5218 88.665 25.5218C87.825 25.5218 87.0197 25.4515 86.1797 25.3111V11.2411C87.2993 10.2265 89.7847 8.79114 93.2847 8.79114C94.825 8.79114 96.05 8.96614 96.9947 9.28114Z" fill="#0072CE"/>
<path d="M112.991 15.8962V24.2966C110.611 25.2762 107.811 25.8716 104.906 25.8716C100.32 25.8716 97.6606 24.1216 97.6606 20.6216C97.661 17.2612 100.566 15.5112 104.661 15.5462C105.956 15.5816 107.041 15.7212 108.021 16.0362V15.4062C108.021 14.0062 107.077 13.0262 104.696 13.0262C102.807 13.0262 101.196 13.7612 100.357 14.4262C99.2713 13.8312 98.432 12.7112 98.187 11.2062C99.097 10.4012 101.617 8.86121 105.152 8.86121C109.771 8.86121 112.991 10.8912 112.991 15.8962ZM105.536 22.3719C106.341 22.3719 107.146 22.2319 107.951 21.9862V19.0469C107.146 18.8012 106.236 18.6612 105.186 18.6612C103.611 18.6612 102.631 19.1862 102.631 20.3762C102.631 21.5662 103.611 22.3719 105.536 22.3719Z" fill="#0072CE"/>
<path d="M116.175 25.3473V3.22659C116.945 3.08659 117.785 3.01624 118.625 3.01624C119.465 3.01624 120.34 3.08624 121.215 3.22659V25.3466C120.445 25.4862 119.57 25.5569 118.73 25.5569C117.89 25.5223 117.05 25.4516 116.175 25.3473Z" fill="#0072CE"/>
<path d="M74.7708 8.75659C69.6608 8.75659 65.9512 12.1516 65.9512 17.3316C65.9512 22.6166 69.5912 25.8712 74.7012 25.8712C79.8112 25.8712 83.5208 22.4766 83.5208 17.3316C83.5208 12.1166 79.8458 8.75659 74.7708 8.75659ZM79.1458 20.8316C79.0762 20.8316 79.0065 20.8316 78.9358 20.8316H70.6762C69.4162 20.7266 68.4012 19.6416 68.4012 18.3462C68.4012 17.1566 69.2412 16.1409 70.3958 15.9316C70.3262 15.6516 70.2565 15.3366 70.2565 15.0212C70.2565 13.2362 71.6915 11.8016 73.4762 11.8016C75.0512 11.8016 76.3458 12.9212 76.6262 14.3912C76.8012 14.3562 76.9762 14.3212 77.1512 14.3212C78.4458 14.3212 79.4612 15.3712 79.4612 16.6316C79.4612 16.7366 79.4612 16.8416 79.4262 16.9462C80.3708 17.0862 81.1065 17.8912 81.1065 18.8712C81.0708 19.9566 80.1958 20.8316 79.1458 20.8316Z" fill="#0072CE"/>
</svg>
