<?xml version="1.0" encoding="UTF-8"?>
<svg width="140px" height="33px" viewBox="0 0 140 33" version="1.1" xmlns="http://www.w3.org/2000/svg" xmlns:xlink="http://www.w3.org/1999/xlink">
    <!-- Generator: Sketch 52 (66869) - http://www.bohemiancoding.com/sketch -->
    <title>new_yorker-logo</title>
    <desc>Created with Sketch.</desc>
    <g id="Page-1" stroke="none" stroke-width="1" fill="none" fill-rule="evenodd">
        <g id="new_yorker-logo" fill="#E2001A">
            <polygon id="Path" points="7.34920455 5.84579545 0 2.67272727 0 32.4028409 6.51397727 32.4028409 6.51397727 16.2010227 16.3680682 32.2357955 16.8692045 32.4028409 21.8797727 32.4028409 21.7127273 10.0219318 15.6998864 8.35147727 15.6998864 8.51852273 15.6998864 19.8760227 15.3665909 19.2078409"></polygon>
            <polygon id="Path" points="69.9832955 10.6893182 69.81625 10.6893182 63.4693182 0 55.6189773 0 66.3090909 15.8677273 66.3090909 32.4028409 73.3234091 32.4028409 73.4904545 15.8677273 84.1805682 0.167045455 84.1805682 0 76.3302273 0 75.9961364 0.668181818 69.9825 10.5222727 69.9825 10.5222727 69.9825 10.6893182"></polygon>
            <polygon id="Path" points="111.906136 11.1904545 107.395909 12.0256818 104.222045 18.0385227 104.222045 17.8714773 104.222045 12.3597727 104.055795 12.3597727 99.2114773 13.0271591 99.2114773 32.4020455 104.222045 32.4020455 104.222045 24.71875 108.064886 32.235 108.064886 32.235 113.2425 32.4020455 113.075455 31.9009091 108.064886 21.8797727 107.730795 21.0445455 108.064886 20.3755682 112.573523 11.0226136 112.407273 11.0226136"></polygon>
            <path d="M139.633295,6.84806818 L137.294659,4.17534091 L125.602273,7.84954545 L125.602273,32.4028409 L130.946136,32.4028409 L130.946136,22.0468182 L134.12,21.8805682 L134.12,32.4028409 L139.800341,32.4028409 L139.800341,21.0453409 L138.129091,18.5396591 L139.633295,15.8677273 L139.633295,6.84806818 Z M130.946136,11.3575 L134.12,10.5222727 L134.12,15.8677273 L133.7875,16.0347727 L130.946136,16.3680682 L130.946136,11.3575 Z" id="Shape" fill-rule="nonzero"></path>
            <polygon id="Path" points="123.597727 10.3552273 123.429886 8.51852273 113.407955 10.8563636 113.407955 32.4020455 123.931818 32.4020455 123.931818 27.0565909 123.931818 27.0565909 123.429886 26.8903409 119.0875 26.8903409 119.0875 22.7142045 123.597727 22.2130682 123.597727 16.7013636 119.422386 17.36875 119.0875 17.36875 119.0875 14.3627273 123.597727 13.0255682"></polygon>
            <path d="M97.2085227,15.6998864 L95.3718182,13.6953409 L87.1873864,14.5305682 L87.0195455,14.8646591 L87.0195455,32.4020455 L91.1964773,32.4020455 L91.1964773,25.2198864 L93.1994318,25.2198864 L93.1994318,32.4020455 L97.3747727,32.4020455 L97.2085227,24.2176136 L96.2070455,22.8804545 L96.2070455,22.7142045 L97.2085227,21.3778409 L97.2085227,15.6998864 Z M93.3656818,17.5373864 L93.1994318,21.2115909 L91.1964773,21.3786364 L91.1964773,17.5373864 L93.3656818,17.5373864 Z" id="Shape" fill-rule="nonzero"></path>
            <path d="M85.5161364,17.03625 L85.1820455,16.7029545 L83.1767045,14.8654545 L82.6763636,14.6984091 L78.3331818,15.0325 L77.4979545,15.3657955 L75.3271591,17.3703409 L75.3271591,29.5630682 L77.9998864,32.2357955 L82.8434091,32.4028409 L83.0104545,32.2357955 L85.3482955,29.5630682 L85.5153409,28.5615909 L85.5153409,17.03625 L85.5161364,17.03625 Z M79.1692045,18.87375 L81.6748864,18.87375 L81.6748864,28.8948864 L79.1692045,28.8948864 L79.1692045,18.87375 Z" id="Shape" fill-rule="nonzero"></path>
            <polygon id="Path" points="59.2939773 15.1995455 59.1269318 15.3657955 56.7890909 23.3839773 56.7890909 23.3839773 54.45125 14.6984091 53.9493182 14.5313636 49.4406818 14.1980682 46.0997727 23.3847727 44.2622727 13.6969318 44.0952273 13.6969318 43.5948864 13.5306818 38.4172727 12.6954545 42.5934091 32.4036364 47.9380682 32.2365909 51.6122727 22.3817045 54.285 32.2365909 54.7853409 32.4036364 59.2955682 32.4036364 59.4626136 32.06875 59.96375 31.2335227 64.3061364 15.5336364"></polygon>
            <polygon id="Path" points="37.0801136 17.3703409 37.0801136 12.5268182 24.2192045 10.5222727 24.2192045 32.4028409 38.2486364 32.4028409 38.2486364 27.0573864 30.9002273 27.0573864 30.9002273 23.8843182 36.9130682 23.8843182 36.9130682 19.8760227 30.9002273 19.3756818 30.9002273 16.7029545"></polygon>
        </g>
    </g>
</svg>