<?xml version="1.0" encoding="UTF-8"?>
<svg width="18px" height="16px" viewBox="0 0 18 16" version="1.1" xmlns="http://www.w3.org/2000/svg" xmlns:xlink="http://www.w3.org/1999/xlink">
    <!-- Generator: Sketch 52 (66869) - http://www.bohemiancoding.com/sketch -->
    <title>settings_phone - material</title>
    <desc>Created with Sketch.</desc>
    <g id="Page-1" stroke="none" stroke-width="1" fill="none" fill-rule="evenodd">
        <g id="menu" transform="translate(-826.000000, -760.000000)" fill="#FFFFFF">
            <g id="Group-5" transform="translate(324.000000, 753.000000)">
                <g id="Group-4-Copy" transform="translate(502.000000, 0.000000)">
                    <path d="M15.1253333,18.1146667 C15.3671123,18.1146667 15.5733325,18.1999991 15.744,18.3706667 C15.9146675,18.5413342 16,18.7475543 16,18.9893333 L16,22.1253333 C16,22.3671123 15.9146675,22.5733325 15.744,22.744 C15.5733325,22.9146675 15.3671123,23 15.1253333,23 C13.0773231,23 11.1146761,22.6017818 9.23733333,21.8053333 C7.43110208,21.0373295 5.83111808,19.9564514 4.43733333,18.5626667 C3.04354859,17.1688819 1.96267051,15.5688979 1.19466667,13.7626667 C0.39821824,11.8853239 1.33226763e-13,9.92267691 1.33226763e-13,7.87466667 C1.33226763e-13,7.63288768 0.08533248,7.42666752 0.256,7.256 C0.42666752,7.08533248 0.63288768,7 0.874666667,7 L4.01066667,7 C4.25244565,7 4.45866581,7.08533248 4.62933333,7.256 C4.80000085,7.42666752 4.88533333,7.63288768 4.88533333,7.87466667 C4.88533333,9.04089472 5.04888725,10.0933286 5.376,11.032 C5.41866688,11.1884452 5.42577792,11.3519991 5.39733333,11.5226667 C5.36888875,11.6933342 5.29066731,11.835555 5.16266667,11.9493333 L3.2,13.912 C3.85422549,15.1635618 4.68621717,16.2942172 5.696,17.304 C6.70578283,18.3137828 7.83643819,19.1457745 9.088,19.8 L11.0506667,17.8373333 C11.164445,17.7093327 11.3066658,17.6311113 11.4773333,17.6026667 C11.6480009,17.5742221 11.8115548,17.5813331 11.968,17.624 C12.9066714,17.9511127 13.9591053,18.1146667 15.1253333,18.1146667 Z M15.9146667,11.48 L17.7066667,11.48 L17.7066667,13.272 L15.9146667,13.272 L15.9146667,11.48 Z M14.1653333,11.48 L14.1653333,13.272 L12.3733333,13.272 L12.3733333,11.48 L14.1653333,11.48 Z M10.5813333,11.48 L10.5813333,13.272 L8.832,13.272 L8.832,11.48 L10.5813333,11.48 Z" id="settings_phone---material"></path>
                </g>
            </g>
        </g>
    </g>
</svg>