<?xml version="1.0" encoding="UTF-8"?>
<svg width="130px" height="16px" viewBox="0 0 130 16" version="1.1" xmlns="http://www.w3.org/2000/svg" xmlns:xlink="http://www.w3.org/1999/xlink">
    <!-- Generator: Sketch 52 (66869) - http://www.bohemiancoding.com/sketch -->
    <title>Group 9</title>
    <desc>Created with Sketch.</desc>
    <g id="Page-1" stroke="none" stroke-width="1" fill="none" fill-rule="evenodd">
        <g id="pizza-bruno_by-olive_logo" transform="translate(0.000000, -1065.000000)">
            <g id="Group-9" transform="translate(0.000000, 1065.000000)">
                <path d="M121.990438,10.4926504 C121.990438,11.6793772 122.265798,12.5785349 122.814084,13.1926191 C123.362337,13.8042211 124.059271,14.1112768 124.902404,14.1112768 C125.747952,14.1112768 126.440016,13.8066764 126.983398,13.1999105 C127.524359,12.5907232 127.79485,11.6793772 127.79485,10.4634105 C127.79485,9.26211446 127.531664,8.36535796 127.002878,7.77565036 C126.476581,7.18353486 125.777205,6.8886743 124.902404,6.8886743 C124.030031,6.8886743 123.325792,7.18840479 122.792149,7.78541051 C122.258493,8.38483767 121.990438,9.2864641 121.990438,10.4926504 Z M119.811984,10.5633184 C119.811984,9.49601977 119.972793,8.59926327 120.292017,7.87313007 C120.528404,7.33946722 120.854919,6.85941415 121.266733,6.43542612 C121.678566,6.01141779 122.129345,5.69707752 122.619172,5.48999063 C123.272202,5.21463007 124.025161,5.07572216 124.878034,5.07572216 C126.422951,5.07572216 127.655942,5.55576847 128.584353,6.51341935 C129.510349,7.4735052 129.973303,8.80643132 129.973303,10.5145853 C129.973303,12.2081498 129.51275,13.533744 128.594093,14.4889599 C127.675462,15.4466108 126.444886,15.9242289 124.907274,15.9242289 C123.350162,15.9242289 122.109866,15.4490661 121.191195,14.4962851 C120.272537,13.5459391 119.811984,12.2349344 119.811984,10.5633184 Z M109.692066,15.7341665 L109.692066,5.26577784 L111.743786,5.26577784 L116.052042,12.2812529 L116.052042,5.26577784 L118.011186,5.26577784 L118.011186,15.7341665 L115.893634,15.7341665 L111.651197,8.85270916 L111.651197,15.7341665 L109.692066,15.7341665 Z M99.1334886,5.26577784 L101.253483,5.26577784 L101.253483,10.9385531 C101.253483,11.8401795 101.280301,12.4225957 101.331456,12.6881826 C101.421624,13.1170812 101.633621,13.463076 101.969917,13.7213918 C102.308607,13.9821087 102.76916,14.1112768 103.353991,14.1112768 C103.946106,14.1112768 104.394484,13.9894136 104.69665,13.7433065 C104.998802,13.4971857 105.179104,13.1974891 105.240032,12.8392451 C105.300967,12.4810552 105.332622,11.8889396 105.332622,11.0604162 L105.332622,5.26577784 L107.45263,5.26577784 L107.45263,10.7704459 C107.45263,12.0278273 107.396585,12.9172383 107.282047,13.4362508 C107.167549,13.9553241 106.957987,14.3939422 106.650931,14.7521119 C106.346331,15.1103559 105.936973,15.3930213 105.425225,15.6049984 C104.911082,15.8169958 104.243402,15.9242289 103.41732,15.9242289 C102.420689,15.9242289 101.665296,15.8096707 101.151133,15.5782138 C100.636957,15.3467232 100.230027,15.0469724 99.9302966,14.6766077 C99.6305661,14.3062024 99.4356337,13.9211941 99.340616,13.5142643 C99.2017284,12.9148236 99.1334886,12.0278273 99.1334886,10.8557305 L99.1334886,5.26577784 Z M90.6949058,9.69584235 L92.2593361,9.69584235 C93.2730114,9.69584235 93.9041472,9.65195213 94.1575525,9.5666743 C94.4085702,9.48137617 94.6083658,9.33274194 94.7496951,9.12318626 C94.8934729,8.91364412 94.964141,8.65045838 94.964141,8.33609781 C94.964141,7.98277784 94.8691233,7.70011238 94.6814755,7.48081009 C94.4938481,7.26394277 94.228268,7.12746982 93.8870822,7.07145213 C93.7140848,7.04708221 93.1999084,7.03490739 92.3446004,7.03490739 L90.6949058,7.03490739 L90.6949058,9.69584235 Z M88.5749318,15.7341665 L88.5749318,5.26577784 L93.0268907,5.26577784 C94.1453777,5.26577784 94.9592508,5.36082258 95.466129,5.54845005 C95.975422,5.73609105 96.3798897,6.06991103 96.6845104,6.5499641 C96.9890702,7.03243184 97.1426082,7.58068418 97.1426082,8.19964516 C97.1426082,8.98674714 96.9135728,9.63490739 96.4529995,10.1466556 C95.9924464,10.6583632 95.3053065,10.9800083 94.3890702,11.1140463 C94.8447534,11.3796264 95.2200219,11.6720723 95.5148689,11.9912487 C95.8121644,12.3104927 96.2117825,12.8782653 96.7137503,13.6921519 L97.9906113,15.7341665 L95.4636535,15.7341665 L93.9479969,13.4484662 C93.4046145,12.6370078 93.0317945,12.1252867 92.8295234,11.9132893 C92.6297211,11.7037471 92.4177102,11.557514 92.193538,11.4795411 C91.9669308,11.4015817 91.611142,11.3625817 91.1238044,11.3625817 L90.6949058,11.3625817 L90.6949058,15.7341665 L88.5749318,15.7341665 Z M80.1363626,11.1578959 L80.1363626,13.9650437 L82.0955479,13.9650437 C82.8557976,13.9650437 83.3407003,13.943129 83.5453928,13.9017144 C83.8597466,13.8432347 84.1155937,13.7043267 84.3129813,13.482576 C84.5103418,13.2583632 84.6102903,12.9635838 84.6102903,12.5907232 C84.6102903,12.2739142 84.5347523,12.0083273 84.3812144,11.7890317 C84.2301519,11.5697294 84.0084147,11.4088866 83.7208387,11.3089787 C83.4333033,11.2090437 82.8070375,11.1578959 81.8445369,11.1578959 L80.1363626,11.1578959 Z M80.1363626,7.00564724 L80.1363626,9.41804683 L81.5204365,9.41804683 C82.3416348,9.41804683 82.8533626,9.40585172 83.0531649,9.3814615 C83.4138236,9.34004683 83.698924,9.21578928 83.9060312,9.00866181 C84.1131993,8.8015411 84.2155016,8.531064 84.2155016,8.19477523 C84.2155016,7.87069511 84.1253741,7.60995786 83.9474865,7.40770708 C83.7695989,7.20542924 83.5039781,7.08362695 83.1531134,7.0421717 C82.943551,7.01782206 82.3416348,7.00564724 81.3498606,7.00564724 L80.1363626,7.00564724 Z M78.0163954,5.26577784 L82.2027268,5.26577784 C83.0336852,5.26577784 83.6501707,5.2999282 84.0571342,5.36812747 C84.466499,5.43877523 84.8295926,5.58259365 85.1512581,5.79946098 C85.4729032,6.01872268 85.7409251,6.30873361 85.9553507,6.67180697 C86.1698236,7.03490739 86.2770567,7.44424506 86.2770567,7.89507856 C86.2770567,8.38243652 86.1454334,8.83321592 85.8822477,9.24015921 C85.6191363,9.64955775 85.2608855,9.95411759 84.8100926,10.1588304 C85.446078,10.3464579 85.9334563,10.6632534 86.2770567,11.1115708 C86.6182019,11.559949 86.7887778,12.086307 86.7887778,12.6930931 C86.7887778,13.1706707 86.6790895,13.6336925 86.457359,14.0844719 C86.2356217,14.5352445 85.9334563,14.89591 85.5484277,15.1663803 C85.1658881,15.4344157 84.6931197,15.6001285 84.130244,15.6635187 C83.7793184,15.7000229 82.9289006,15.7243928 81.5813715,15.7341665 L78.0163954,15.7341665 L78.0163954,5.26577784 Z" id="Fill-3" fill="#000000"></path>
                <path d="M67.7908673,11.5819043 L66.3360848,7.70741727 L64.9227508,11.5819043 L67.7908673,11.5819043 Z M71.6653543,15.7341665 L69.3820687,15.7341665 L68.4780682,13.3510271 L64.2794605,13.3510271 L63.4095224,15.7341665 L61.1677123,15.7341665 L65.2322752,5.26577784 L67.4716571,5.26577784 L71.6653543,15.7341665 Z M52.3831483,15.7341665 L52.3831483,13.8334745 L57.8999912,7.03490739 L53.0118288,7.03490739 L53.0118288,5.26577784 L60.6730494,5.26577784 L60.6730494,6.90326379 L54.9417404,13.9650437 L60.8923517,13.9650437 L60.8923517,15.7341665 L52.3831483,15.7341665 Z M43.4523715,15.7341665 L43.4523715,13.8334745 L48.9692144,7.03490739 L44.0810317,7.03490739 L44.0810317,5.26577784 L51.7422726,5.26577784 L51.7422726,6.90326379 L46.0109636,13.9650437 L51.9615749,13.9650437 L51.9615749,15.7341665 L43.4523715,15.7341665 Z M40.2382804,15.7341665 L40.2382804,5.26577784 L42.3582477,5.26577784 L42.3582477,15.7341665 L40.2382804,15.7341665 Z M32.6793824,7.03490739 L32.6793824,10.0175078 L33.8320198,10.0175078 C34.6629579,10.0175078 35.2161004,9.96142248 35.4963309,9.85179501 C35.7765614,9.74214724 35.9958637,9.57156452 36.154231,9.33521748 C36.3126389,9.10127159 36.3930468,8.83078096 36.3930468,8.51888918 C36.3930468,8.13631582 36.2809641,7.82197555 36.0592268,7.57341311 C35.8350208,7.32483715 35.5548106,7.1688845 35.2112305,7.10554162 C34.9602196,7.05925702 34.4558169,7.03490739 33.6955333,7.03490739 L32.6793824,7.03490739 Z M30.5594287,15.7341665 L30.5594287,5.26577784 L33.9489792,5.26577784 C35.2331452,5.26577784 36.0689329,5.31695265 36.4588517,5.42173049 C37.0582924,5.58011811 37.5602804,5.92128356 37.9647482,6.44762123 C38.3692633,6.97397242 38.5715343,7.65380749 38.5715343,8.48722112 C38.5715343,9.13051145 38.4545411,9.66903746 38.2230708,10.1076353 C37.9891181,10.5462737 37.6942981,10.8898335 37.3360879,11.1408512 C36.9778642,11.3894069 36.6123694,11.5551197 36.2419438,11.6355276 C35.7375479,11.7354017 35.0089729,11.7865765 34.053757,11.7865765 L32.6793824,11.7865765 L32.6793824,15.7341665 L30.5594287,15.7341665 Z" id="Fill-4" fill="#000000"></path>
                <path d="M0.0413808533,15.9242492 L26.9868772,15.9242492 L8.01588658,0.0373158169 C4.00778096,3.10265088 0.0413808533,8.78344121 0.0413808533,15.9242492" id="Fill-5" fill="#00A551"></path>
                <path d="M26.9868772,15.9242492 L12.9210193,4.14502497 C9.86699324,6.22095994 6.70758065,10.751257 6.70758065,15.9242492 L26.9868772,15.9242492 Z" id="Fill-6" fill="#FEFEFE"></path>
                <path d="M26.9868772,15.9242492 L18.0602669,8.44879605 C15.7611067,10.2071644 13.983847,12.3849417 13.9838267,15.9242492 L26.9868772,15.9242492 Z" id="Fill-7" fill="#EE3B23"></path>
            </g>
        </g>
    </g>
</svg>