<svg width="122" height="46" viewBox="0 0 122 46" fill="none" xmlns="http://www.w3.org/2000/svg">
<path d="M111.86 17.1592C109.683 17.741 108.872 18.4157 107.34 19.5764C106.333 20.3387 105.198 21.4702 103.906 21.3536C102.798 21.2536 101.654 20.5428 102.408 19.3751C103.845 17.1481 105.09 14.6643 106.607 12.5039H102.826C102.528 12.9121 102.231 13.2509 101.932 13.659C96.5124 8.372 85.5425 12.9482 87.8665 20.4747C84.9463 22.3255 83.1936 21.7423 84.3749 19.1349C85.4982 16.658 86.8788 13.741 85.2354 12.2193C82.3663 9.51049 77.6021 13.8881 77.4168 13.8812L77.8705 12.4622L73.7039 12.4942C73.1533 16.5969 70.2787 19.7528 66.469 21.0842C63.535 22.1103 63.4838 19.911 65.206 19.0405C68.7999 17.2259 69.7088 15.936 70.8445 12.4261H65.3347C64.5102 15.4209 56.6791 17.0898 52.5195 16.0013C53.7838 18.3727 54.4534 21.0662 50.9687 20.8663C47.8313 20.6872 49.353 16.7899 50.6104 14.8392C55.7025 15.675 63.0121 14.2658 64.0316 7.82636C64.726 3.43345 63.878 0.276213 58.7279 0.0124166C54.9915 -0.206951 52.4655 2.51155 50.5745 5.69932C48.7374 8.79685 44.041 21.4063 39.9864 20.8663C39.0527 20.7427 38.1895 20.2373 38.9102 19.121C40.3475 16.894 41.5939 14.6212 43.1086 12.4609H39.1896C38.8908 12.869 38.8037 12.9968 38.5062 13.4064C34.3106 10.1519 28.5739 11.078 25.323 14.4018C20.574 19.2557 24.3547 23.5986 29.3098 23.5778C31.1234 23.5695 33.096 22.96 34.8639 21.6021C38.1023 25.5355 43.2386 22.624 45.3399 20.6497C45.7411 23.1071 48.0942 23.6819 50.3531 23.6417C53.3564 23.5903 56.8673 22.0547 55.4784 18.138C56.9295 18.499 60.1527 18.2477 62.2651 17.1453C58.797 20.7607 59.6796 24.0874 63.7784 23.9291C66.6613 23.818 69.0849 22.2505 70.756 20.8732C70.4129 21.716 70.0975 22.7698 69.7544 23.6125H74.1396C74.7773 20.6427 76.4484 16.4747 78.973 14.7045C80.6233 13.5591 81.9832 14.5587 81.2915 15.9985L79.9178 19.4015C78.3436 23.3015 82.282 24.0915 84.3417 23.7139C86.2176 23.3709 87.2246 22.9489 88.684 22.095C90.5156 24.2276 95.5717 24.2692 98.3646 21.8534C99.9043 23.4765 102.015 23.8652 104.049 23.4959C107.41 22.885 110.593 19.0363 114.355 20.8524C118.725 22.9627 119.306 31.986 106.619 31.9888L36.0162 32.004C35.9097 33.0801 35.6386 34.0561 35.1876 35.0363H108.332C113.439 35.0363 122.092 32.8163 121.735 24.279C121.498 18.742 116.686 15.8694 111.86 17.1592ZM54.1352 7.36263C54.8628 5.89509 56.823 2.10197 59.3614 2.13806C61.3438 2.16722 61.0878 4.6483 59.7322 7.85552C58.1275 11.6514 53.4172 12.9246 51.54 12.6594L54.1352 7.36263ZM34.1916 18.213C32.9563 19.6167 31.5245 20.3525 29.6473 20.7968C26.7838 21.4744 26.8544 18.7573 28.4259 16.4595C29.5367 14.8364 31.1552 13.4202 33.6217 13.5563C36.5765 13.7187 35.669 16.533 34.1916 18.213ZM97.6909 18.4643C96.4542 19.868 95.7916 20.5344 93.9158 20.9787C91.0523 21.6576 90.3537 19.01 91.9252 16.7108C93.0346 15.0877 94.5854 13.6729 97.0518 13.8076C100.004 13.9687 99.1684 16.7857 97.6909 18.4643Z" fill="#B09E6E"/>
<path d="M71.3663 11.2101C72.1188 9.75226 72.3733 8.53324 72.5836 6.91298C71.939 7.11013 70.9928 7.73214 70.4145 8.71651C70.2471 7.54054 69.4918 6.15352 69.2124 4.97754C68.417 6.34651 67.4376 7.88347 67.5151 9.09416C66.9161 7.97233 66.7985 7.79739 66.01 7.50166C66.1317 9.03446 66.0114 9.85223 65.6738 11.2115H71.3663V11.2101Z" fill="#B09E6E"/>
<path d="M23.4756 24.0008C16.6046 22.8026 19.1347 14.0612 25.2131 11.115C30.5168 8.54508 34.7249 8.8311 39.799 11.4607H43.5949C44.4678 9.87101 45.6312 8.2799 46.6106 6.68879H42.7082L40.4976 7.95224C31.8476 5.63082 23.2529 5.76411 16.0554 11.8925C9.32963 17.6197 12.6953 26.0098 20.2649 26.4458C23.0537 26.6068 25.6945 27.0942 26.4152 29.5641C26.4941 29.8335 26.5494 30.1278 26.5798 30.4458C26.8039 32.7769 26.1745 35.1414 24.8189 37.0324C22.6304 40.0868 18.9217 41.8696 12.8461 41.3725C9.45551 41.0948 7.13289 40.3729 5.64719 38.9136C2.08371 35.4163 3.3384 29.0393 8.07356 28.2493C9.8387 27.955 11.4531 28.1882 12.1046 29.0338C12.9803 30.1681 12.5514 32.0008 10.98 32.0036C6.78014 32.2035 8.7597 38.3222 13.0425 35.0372H24.7469C25.2269 34.0431 25.4497 33.0893 25.4912 32.0091L14.383 31.998C16.7623 27.8342 11.3825 23.8897 4.80335 26.686C-1.7758 29.4822 -2.05109 40.7436 7.26292 44.0591C16.4192 47.3177 28.6452 44.5617 33.7552 35.5134C34.617 33.9737 34.9546 32.5076 34.9546 30.8248C34.9573 24.0536 28.778 24.9255 23.4756 24.0008Z" fill="#B09E6E"/>
<path d="M40.4118 37.36H39.4531V40.4478H39.8889V39.1191H40.4118C40.7327 39.1191 40.9831 39.0413 41.1643 38.8872C41.3441 38.7331 41.4341 38.5179 41.4341 38.243C41.4341 37.9667 41.3441 37.7501 41.1643 37.5932C40.9831 37.4377 40.7327 37.36 40.4118 37.36ZM40.8309 38.6123C40.7355 38.6887 40.5792 38.7276 40.3661 38.7276H39.8889V37.7585H40.3661C40.5805 37.7585 40.7355 37.7973 40.8309 37.8751C40.9264 37.9528 40.9748 38.075 40.9748 38.2444C40.9748 38.4124 40.9264 38.536 40.8309 38.6123Z" fill="#B09E6E"/>
<path d="M43.0061 39.0885H44.3811V38.6887H43.0061V37.7529H44.4198V37.36H42.5703V40.4492H44.4669V40.0507H43.0061V39.0885Z" fill="#B09E6E"/>
<path d="M47.1317 39.0861C47.0861 39.0403 47.0376 39.0028 46.9865 38.975C47.1857 38.9125 47.3323 38.8209 47.4236 38.6973C47.5149 38.5738 47.5619 38.4099 47.5619 38.2072C47.5619 37.9379 47.4775 37.7296 47.3088 37.5825C47.14 37.4353 46.9007 37.3617 46.5894 37.3617H45.6875V40.4495H46.1302V39.0694H46.2616C46.3958 39.0694 46.5134 39.1041 46.6102 39.1708C46.707 39.2374 46.8357 39.3943 46.9934 39.6387L47.5218 40.4481H48.0544L47.306 39.318C47.2355 39.2097 47.1774 39.1319 47.1317 39.0861ZM46.4954 38.6987H46.1302V37.7366H46.4954C46.7112 37.7366 46.8675 37.7741 46.9643 37.8504C47.0612 37.9254 47.1096 38.0476 47.1096 38.2156C47.1096 38.3794 47.0584 38.5002 46.9574 38.5793C46.855 38.6585 46.7015 38.6987 46.4954 38.6987Z" fill="#B09E6E"/>
<path d="M48.917 40.4492H49.3514V39.0649H50.6282V38.6665H49.3514V37.7529H50.6669V37.36H48.917V40.4492Z" fill="#B09E6E"/>
<path d="M54.0507 39.3318C54.0507 39.5582 53.9691 39.7414 53.8059 39.8789C53.6427 40.0177 53.4282 40.0871 53.1613 40.0871C53.0022 40.0871 52.8611 40.0608 52.7366 40.008C52.6121 39.9552 52.5042 39.8747 52.4129 39.7678C52.3631 39.7081 52.3271 39.6359 52.3064 39.554C52.2856 39.4721 52.2745 39.3318 52.2745 39.1347V37.3617H51.8374V39.1514C51.8374 39.3957 51.854 39.5762 51.8872 39.6942C51.9204 39.8122 51.9757 39.9191 52.056 40.0149C52.1846 40.1746 52.3437 40.2968 52.5305 40.3801C52.7186 40.4634 52.9289 40.505 53.1613 40.505C53.5555 40.505 53.8751 40.3981 54.1199 40.1843C54.3648 39.9705 54.4879 39.6914 54.4879 39.3471V37.3631H54.0507V39.3318Z" fill="#B09E6E"/>
<path d="M57.2965 38.6581L56.1898 37.36H55.8066V40.4492H56.2341V38.0375L57.2965 39.2829L58.3603 38.0375V40.4492H58.7877V37.36H58.4045L57.2965 38.6581Z" fill="#B09E6E"/>
<path d="M60.5583 39.0885H61.932V38.6887H60.5583V37.7529H61.9721V37.36H60.1226V40.4492H62.0191V40.0507H60.5583V39.0885Z" fill="#B09E6E"/>
<path d="M64.6859 39.0861C64.6403 39.0403 64.5918 39.0028 64.5407 38.975C64.7399 38.9125 64.8865 38.8209 64.9778 38.6973C65.0705 38.5738 65.1161 38.4099 65.1161 38.2072C65.1161 37.9379 65.0317 37.7296 64.863 37.5825C64.6942 37.4353 64.4549 37.3617 64.1436 37.3617H63.2417V40.4495H63.6844V39.0694H63.8158C63.9514 39.0694 64.0676 39.1041 64.1644 39.1708C64.2612 39.2388 64.3899 39.3943 64.549 39.6387L65.0774 40.4481H65.61L64.8616 39.318C64.7897 39.2097 64.7316 39.1319 64.6859 39.0861ZM64.0496 38.6987H63.6844V37.7366H64.0496C64.2654 37.7366 64.4217 37.7741 64.5185 37.8504C64.6154 37.9254 64.6638 38.0476 64.6638 38.2156C64.6638 38.3794 64.6126 38.5002 64.5116 38.5793C64.4092 38.6585 64.2557 38.6987 64.0496 38.6987Z" fill="#B09E6E"/>
<path d="M67.3573 38.5332L66.4595 37.36H65.938L67.1263 38.9039V40.4492H67.5731V38.9261L68.807 37.36H68.2772L67.3573 38.5332Z" fill="#B09E6E"/>
<path d="M73.7574 39.3004C73.8432 39.1601 73.9137 39.0116 73.9691 38.8575H73.5098C73.4559 38.9685 73.4005 39.0657 73.3466 39.1518C73.2912 39.2365 73.2345 39.3129 73.1764 39.3795L72.7282 38.8547C72.9316 38.7242 73.0796 38.5909 73.1709 38.4562C73.2622 38.3215 73.3078 38.1688 73.3078 38.0008C73.3078 37.7967 73.2345 37.6301 73.0893 37.5024C72.9426 37.3747 72.7517 37.3108 72.5138 37.3108C72.2759 37.3108 72.085 37.3774 71.9397 37.5107C71.7945 37.644 71.7225 37.8189 71.7225 38.0369C71.7225 38.1702 71.7516 38.2979 71.8097 38.4201C71.8678 38.5409 71.9591 38.6645 72.0836 38.7881C71.8055 38.9491 71.6063 39.1018 71.486 39.2476C71.367 39.3934 71.3062 39.5531 71.3062 39.728C71.3062 39.9613 71.3822 40.1501 71.5358 40.2931C71.6893 40.4361 71.8927 40.5069 72.1486 40.5069C72.3326 40.5069 72.5027 40.4666 72.6618 40.3861C72.8209 40.3056 72.9772 40.1792 73.1308 40.0071L73.5001 40.4514H74.0714L73.4531 39.7058C73.5721 39.5753 73.6717 39.4406 73.7574 39.3004ZM72.2565 37.7606C72.3284 37.6954 72.417 37.6634 72.5221 37.6634C72.6328 37.6634 72.7241 37.6954 72.7946 37.7592C72.8652 37.8231 72.8998 37.905 72.8998 38.0036C72.8998 38.1022 72.8666 38.1952 72.8002 38.2813C72.7338 38.3674 72.6217 38.4632 72.464 38.5687C72.363 38.4618 72.2856 38.3577 72.2302 38.2591C72.1749 38.1591 72.1472 38.073 72.1472 37.9994C72.1486 37.905 72.1846 37.8259 72.2565 37.7606ZM72.4875 39.9821C72.381 40.0404 72.28 40.0696 72.186 40.0696C72.0587 40.0696 71.9563 40.0362 71.8802 39.9682C71.8042 39.9002 71.7654 39.8113 71.7654 39.6988C71.7654 39.603 71.8097 39.5086 71.8968 39.4142C71.984 39.3198 72.1348 39.2087 72.3492 39.0782L72.8666 39.6988C72.7213 39.8294 72.5954 39.9238 72.4875 39.9821Z" fill="#B09E6E"/>
<path d="M78.4417 40.0832C78.0931 40.0832 77.8026 39.9708 77.5715 39.7458C77.3405 39.5209 77.2257 39.2419 77.2257 38.9086C77.2257 38.5699 77.3433 38.2894 77.5771 38.0645C77.8122 37.8396 78.1083 37.7285 78.4679 37.7285C78.6284 37.7285 78.7958 37.7535 78.9673 37.8049C79.1389 37.8562 79.3228 37.934 79.5165 38.0395V37.5605C79.3298 37.4744 79.1527 37.4119 78.9825 37.3731C78.8124 37.3328 78.6409 37.3134 78.4679 37.3134C78.2203 37.3134 77.9948 37.3522 77.7901 37.43C77.5868 37.5077 77.4028 37.6244 77.2382 37.7799C77.0846 37.9256 76.9656 38.0964 76.8813 38.2908C76.7983 38.4852 76.7554 38.6865 76.7554 38.8947C76.7554 39.1683 76.819 39.4223 76.9463 39.6556C77.0735 39.8888 77.2506 40.0804 77.4802 40.2304C77.6227 40.322 77.7735 40.3901 77.934 40.4373C78.0944 40.4831 78.2618 40.5067 78.4375 40.5067C78.6215 40.5067 78.8055 40.4817 78.9936 40.4331C79.1804 40.3845 79.3643 40.3123 79.5442 40.2179V39.7195C79.3547 39.843 79.1693 39.9347 78.9853 39.9958C78.8013 40.0527 78.6201 40.0832 78.4417 40.0832Z" fill="#B09E6E"/>
<path d="M83.3616 37.7781C83.2095 37.6282 83.0324 37.513 82.8332 37.4324C82.6326 37.3519 82.421 37.3116 82.1983 37.3116C81.9797 37.3116 81.7722 37.3519 81.573 37.431C81.3752 37.5102 81.1981 37.6254 81.0404 37.7781C80.8868 37.9267 80.7679 38.0975 80.6835 38.2919C80.6005 38.4862 80.5576 38.6862 80.5576 38.8917C80.5576 39.1124 80.5977 39.3193 80.6794 39.5137C80.761 39.708 80.8813 39.8816 81.039 40.0371C81.1912 40.1856 81.3683 40.3009 81.5675 40.3814C81.768 40.4619 81.9769 40.5022 82.1955 40.5022C82.4196 40.5022 82.6312 40.4633 82.8277 40.3842C83.0241 40.3051 83.2039 40.1898 83.363 40.0371C83.5152 39.8899 83.6328 39.7191 83.7158 39.5262C83.7988 39.3332 83.8403 39.1305 83.8403 38.9208C83.8403 38.6973 83.8002 38.489 83.7199 38.2988C83.6411 38.1072 83.5207 37.9336 83.3616 37.7781ZM83.2856 39.3582C83.2261 39.5012 83.1417 39.6275 83.031 39.7372C82.9204 39.851 82.7931 39.9357 82.652 39.994C82.5109 40.0524 82.3587 40.0815 82.1983 40.0815C82.0419 40.0815 81.8912 40.0524 81.7459 39.9913C81.602 39.9316 81.4762 39.8469 81.3683 39.7358C81.259 39.6261 81.1746 39.4984 81.1151 39.3568C81.0556 39.2151 81.0266 39.0638 81.0266 38.9069C81.0266 38.7486 81.0556 38.5959 81.1151 38.4529C81.1732 38.3085 81.2576 38.1822 81.3683 38.0753C81.4831 37.9628 81.6117 37.8767 81.7542 37.817C81.8967 37.7573 82.0447 37.7268 82.1969 37.7268C82.3546 37.7268 82.5054 37.7559 82.6478 37.8156C82.7903 37.8753 82.9162 37.9614 83.0255 38.0753C83.1403 38.1919 83.2261 38.3196 83.2856 38.4599C83.3437 38.6001 83.3727 38.75 83.3727 38.9069C83.3741 39.0652 83.345 39.2151 83.2856 39.3582Z" fill="#B09E6E"/>
<path d="M85.8756 38.6808L85.8092 38.6405C85.4468 38.4142 85.2656 38.224 85.2656 38.0713C85.2656 37.9644 85.3099 37.8755 85.397 37.8075C85.4842 37.7395 85.5962 37.7048 85.7345 37.7048C85.8494 37.7048 85.9628 37.7298 86.0776 37.7783C86.1924 37.8269 86.3169 37.9061 86.4511 38.0158V37.5145C86.3335 37.4424 86.2173 37.3896 86.1025 37.3549C85.9877 37.3202 85.8701 37.3021 85.7511 37.3021C85.4842 37.3021 85.2656 37.3785 85.0968 37.5326C84.9281 37.6867 84.8423 37.8839 84.8423 38.1227C84.8423 38.2934 84.8866 38.4406 84.9751 38.5642C85.0636 38.6878 85.2822 38.8627 85.6294 39.0876C85.8535 39.2306 85.996 39.3403 86.0555 39.4153C86.115 39.4916 86.144 39.5791 86.144 39.6791C86.144 39.8013 86.0997 39.8984 86.0126 39.9692C85.9241 40.0414 85.8037 40.0762 85.6515 40.0762C85.5077 40.0762 85.3721 40.0414 85.2462 39.9706C85.119 39.8998 84.9862 39.7846 84.8464 39.6235V40.2067C84.9696 40.3094 85.0982 40.3844 85.231 40.4316C85.3652 40.4788 85.5146 40.5024 85.6792 40.5024C85.9448 40.5024 86.162 40.426 86.3321 40.2719C86.5023 40.1178 86.5867 39.9234 86.5867 39.6874C86.5867 39.4805 86.541 39.3056 86.4497 39.1654C86.364 39.0265 86.1703 38.8641 85.8756 38.6808Z" fill="#B09E6E"/>
<path d="M89.2496 38.6581L88.143 37.36H87.7598V40.4492H88.1872V38.0375L89.2496 39.2829L90.3134 38.0375V40.4492H90.7409V37.36H90.3577L89.2496 38.6581Z" fill="#B09E6E"/>
<path d="M92.5114 39.0885H93.8865V38.6887H92.5114V37.7529H93.9252V37.36H92.0757V40.4492H93.9722V40.0507H92.5114V39.0885Z" fill="#B09E6E"/>
<path d="M94.9028 37.7626H96.033V40.4492H96.4701V37.7626H97.6003V37.36H94.9028V37.7626Z" fill="#B09E6E"/>
<path d="M99.0898 37.36H98.6499V40.4478H99.0898V37.36Z" fill="#B09E6E"/>
<path d="M101.957 40.0832C101.609 40.0832 101.318 39.9708 101.087 39.7458C100.856 39.5209 100.741 39.2419 100.741 38.9086C100.741 38.5699 100.859 38.2894 101.093 38.0645C101.328 37.8396 101.624 37.7285 101.984 37.7285C102.145 37.7285 102.311 37.7535 102.483 37.8049C102.654 37.8562 102.838 37.934 103.032 38.0395V37.5605C102.845 37.4744 102.668 37.4119 102.498 37.3731C102.328 37.3328 102.156 37.3134 101.984 37.3134C101.736 37.3134 101.51 37.3522 101.306 37.43C101.102 37.5077 100.918 37.6244 100.754 37.7799C100.6 37.9256 100.481 38.0964 100.397 38.2908C100.314 38.4852 100.271 38.6865 100.271 38.8947C100.271 39.1683 100.335 39.4223 100.462 39.6556C100.589 39.8888 100.766 40.0804 100.996 40.2304C101.138 40.322 101.289 40.3901 101.45 40.4373C101.61 40.4831 101.777 40.5067 101.953 40.5067C102.137 40.5067 102.321 40.4817 102.509 40.4331C102.696 40.3845 102.88 40.3123 103.06 40.2179V39.7195C102.87 39.843 102.685 39.9347 102.501 39.9958C102.317 40.0527 102.136 40.0832 101.957 40.0832Z" fill="#B09E6E"/>
<path d="M105.108 38.6808L105.042 38.6405C104.679 38.4142 104.498 38.224 104.498 38.0713C104.498 37.9644 104.542 37.8755 104.629 37.8075C104.717 37.7395 104.829 37.7048 104.967 37.7048C105.082 37.7048 105.195 37.7298 105.31 37.7783C105.425 37.8269 105.549 37.9061 105.684 38.0158V37.5145C105.566 37.4424 105.45 37.3896 105.335 37.3549C105.22 37.3202 105.103 37.3021 104.984 37.3021C104.717 37.3021 104.498 37.3785 104.329 37.5326C104.16 37.6867 104.075 37.8839 104.075 38.1227C104.075 38.2934 104.119 38.4406 104.208 38.5642C104.296 38.6878 104.515 38.8627 104.862 39.0876C105.086 39.2306 105.228 39.3403 105.288 39.4153C105.347 39.4916 105.376 39.5791 105.376 39.6791C105.376 39.8013 105.332 39.8984 105.245 39.9692C105.156 40.0414 105.036 40.0762 104.884 40.0762C104.74 40.0762 104.605 40.0414 104.479 39.9706C104.351 39.8998 104.219 39.7846 104.079 39.6235V40.2067C104.202 40.3094 104.331 40.3844 104.463 40.4316C104.598 40.4788 104.747 40.5024 104.912 40.5024C105.177 40.5024 105.394 40.426 105.565 40.2719C105.735 40.1178 105.819 39.9234 105.819 39.6874C105.819 39.4805 105.773 39.3056 105.682 39.1654C105.595 39.0265 105.403 38.8641 105.108 38.6808Z" fill="#B09E6E"/>
</svg>
