<svg width="40" height="40" viewBox="0 0 40 40" fill="none" xmlns="http://www.w3.org/2000/svg">
<path d="M36.0004 34.5767L33.71 8.78528C33.6609 8.21268 33.1783 7.77914 32.6139 7.77914H27.9022C27.8368 3.47648 24.3194 0 20.0004 0C15.6813 0 12.164 3.47648 12.0985 7.77914H7.38687C6.81427 7.77914 6.33984 8.21268 6.29076 8.78528L4.00037 34.5767C4.00037 34.6094 3.99219 34.6421 3.99219 34.6748C3.99219 37.6115 6.68339 40 9.99628 40H30.0045C33.3173 40 36.0085 37.6115 36.0085 34.6748C36.0085 34.6421 36.0085 34.6094 36.0004 34.5767ZM20.0004 2.20859C23.1006 2.20859 25.6282 4.6953 25.6936 7.77914H14.3071C14.3726 4.6953 16.9002 2.20859 20.0004 2.20859ZM30.0045 37.7914H9.99628C7.91857 37.7914 6.2335 36.4172 6.20078 34.7239L8.393 9.99591H12.0903V13.3497C12.0903 13.9632 12.5811 14.454 13.1946 14.454C13.8081 14.454 14.2989 13.9632 14.2989 13.3497V9.99591H25.6936V13.3497C25.6936 13.9632 26.1844 14.454 26.7979 14.454C27.4114 14.454 27.9022 13.9632 27.9022 13.3497V9.99591H31.5995L33.8 34.7239C33.7672 36.4172 32.074 37.7914 30.0045 37.7914Z" fill="white"/>
<circle cx="13" cy="21" r="1" fill="white"/>
<circle cx="27" cy="21" r="1" fill="white"/>
<path d="M12.9995 25C12.9995 25 14.9995 28.5 19.9995 28.5C24.9995 28.5 26.9995 25 26.9995 25" stroke="white" stroke-width="1.5" stroke-linecap="round"/>
</svg>
